<?xml version="1.0" encoding="utf-8"?><svg width="1025" height="964" viewBox="0 0 1025 964" xmlns="http://www.w3.org/2000/svg" xmlns:xlink="http://www.w3.org/1999/xlink"><svg viewBox="0 0 16 16" width="16" height="16" id="svgsprite_calculator" x="643.74" y="512.01" xmlns="http://www.w3.org/2000/svg"><path d="M4.5 2C3.676 2 3 2.676 3 3.5v9c0 .824.676 1.5 1.5 1.5h7c.824 0 1.5-.676 1.5-1.5v-9c0-.824-.676-1.5-1.5-1.5zm0 1h7c.281 0 .5.219.5.5v9c0 .281-.219.5-.5.5h-7a.494.494 0 01-.5-.5v-9c0-.281.219-.5.5-.5zM5 4v1h6V4zm0 3v1h1V7zm2 0v1h1V7zm2 0v1h2V7zM5 9v1h1V9zm2 0v1h1V9zm2 0v1h2V9zm-4 2v1h1v-1zm2 0v1h1v-1zm2 0v1h2v-1z"/></svg><svg viewBox="0 0 512.001 512.001" width="512" height="512" id="svgsprite_close" x="512.01" xmlns="http://www.w3.org/2000/svg"><path d="M284.286 256.002L506.143 34.144c7.811-7.811 7.811-20.475 0-28.285-7.811-7.81-20.475-7.811-28.285 0L256 227.717 34.143 5.859c-7.811-7.811-20.475-7.811-28.285 0-7.81 7.811-7.811 20.475 0 28.285l221.857 221.857L5.858 477.859c-7.811 7.811-7.811 20.475 0 28.285a19.938 19.938 0 0014.143 5.857 19.94 19.94 0 0014.143-5.857L256 284.287l221.857 221.857c3.905 3.905 9.024 5.857 14.143 5.857s10.237-1.952 14.143-5.857c7.811-7.811 7.811-20.475 0-28.285L284.286 256.002z"/></svg><svg viewBox="0 0 451.74 451.74" width="451.74" height="451.74" id="svgsprite_error" y="512.01" xmlns="http://www.w3.org/2000/svg"><path d="M446.324 367.381L262.857 41.692c-15.644-28.444-58.311-28.444-73.956 0L5.435 367.381c-15.644 28.444 4.267 64 36.978 64h365.511c34.133-1.422 54.044-35.556 38.4-64z" fill="#e24c4b"/><path d="M225.879 63.025l183.467 325.689H42.413L225.879 63.025z" fill="#fff"/><g fill="#3f4448"><path d="M196.013 212.359l11.378 75.378c1.422 8.533 8.533 15.644 18.489 15.644 8.533 0 17.067-7.111 18.489-15.644l11.378-75.378c2.844-18.489-11.378-34.133-29.867-34.133-18.49-.001-31.29 15.644-29.867 34.133z"/><circle cx="225.879" cy="336.092" r="17.067"/></g></svg><svg viewBox="0 0 50 50" width="50" height="50" id="svgsprite_facebook_like" x="451.74" y="512.01" xmlns="http://www.w3.org/2000/svg"><path d="M23 3c-.55 0-1 .45-1 1v7.75l-5 10V20c0-.55-.45-1-1-1H3c-.285 0-.559.129-.75.344a.99.99 0 00-.25.781l3 24c.063.5.496.875 1 .875h10a1 1 0 001-1v-1h1.156c.414 1.164 1.54 2 2.844 2h19c2.207 0 4-1.793 4-4 0-.824-.262-1.582-.688-2.219A4.022 4.022 0 0046 35c0-.98-.352-1.867-.938-2.563A4.017 4.017 0 0047 29c0-.98-.352-1.867-.938-2.563A4.017 4.017 0 0048 23c0-2.207-1.793-4-4-4H29.375c.61-1.93 1.625-5.383 1.625-7 0-3.766-2.758-9-5.469-9zm1 2h1.531C26.45 5 29 8.48 29 12c0 1.566-1.398 6.082-1.938 7.688a.998.998 0 00.125.906A.992.992 0 0028 21h16c1.102 0 2 .898 2 2 0 1.102-.898 2-2 2h-1c-.555 0-1 .445-1 1 0 .555.445 1 1 1 1.102 0 2 .898 2 2 0 1.102-.898 2-2 2h-1c-.555 0-1 .445-1 1 0 .555.445 1 1 1 1.102 0 2 .898 2 2 0 1.102-.898 2-2 2h-2c-.555 0-1 .445-1 1 0 .555.445 1 1 1 1.102 0 2 .898 2 2 0 1.102-.898 2-2 2H21c-.55 0-1-.45-1-1a1 1 0 00-1-1h-2V24h.5c.379 0 .734-.223.906-.563l5.5-11A.93.93 0 0024 12zM4.125 21H15v22H6.875zM11.5 38a1.5 1.5 0 100 3 1.5 1.5 0 000-3z"/></svg><svg viewBox="0 0 512.006 512.006" width="512.01" height="512.01" id="svgsprite_phone" xmlns="http://www.w3.org/2000/svg"><path d="M502.05 407.127l-56.761-37.844-50.459-33.633c-9.738-6.479-22.825-4.355-30.014 4.873l-31.223 40.139c-6.707 8.71-18.772 11.213-28.39 5.888-21.186-11.785-46.239-22.881-101.517-78.23-55.278-55.349-66.445-80.331-78.23-101.517-5.325-9.618-2.822-21.683 5.888-28.389l40.139-31.223c9.227-7.188 11.352-20.275 4.873-30.014l-32.6-48.905-38.877-58.316C98.262.03 85.016-2.95 74.786 3.185L29.95 30.083A54.779 54.779 0 005.074 62.277C-7.187 106.98-9.659 205.593 148.381 363.633s256.644 155.56 301.347 143.298a54.771 54.771 0 0032.194-24.876l26.898-44.835c6.136-10.231 3.156-23.476-6.77-30.093zM291.309 79.447c82.842.092 149.977 67.226 150.069 150.069a8.828 8.828 0 0017.656 0c-.102-92.589-75.135-167.622-167.724-167.724a8.828 8.828 0 00-8.828 8.828 8.826 8.826 0 008.827 8.827z"/><path d="M291.309 132.412c53.603.063 97.04 43.501 97.103 97.103a8.828 8.828 0 0017.656 0c-.073-63.349-51.409-114.686-114.759-114.759a8.828 8.828 0 000 17.656z"/><path d="M291.309 185.378c24.365.029 44.109 19.773 44.138 44.138a8.828 8.828 0 0017.656 0c-.039-34.111-27.682-61.754-61.793-61.793a8.828 8.828 0 00-8.828 8.828 8.826 8.826 0 008.827 8.827z"/></svg><svg viewBox="0 0 30 30" width="30" height="30" id="svgsprite_phone_2" x="583.74" y="512.01" xmlns="http://www.w3.org/2000/svg"><path d="M21.225 17.889a1.285 1.285 0 00-1.309.007l-2.046 1.219a1.28 1.28 0 01-1.45-.087c-.726-.567-1.895-1.521-2.912-2.538s-1.971-2.186-2.538-2.912a1.28 1.28 0 01-.087-1.45l1.219-2.046a1.29 1.29 0 00.005-1.313L9.105 3.641a1.294 1.294 0 00-1.428-.603c-.543.132-1.248.454-1.987 1.194-2.314 2.314-3.543 6.217 5.159 14.919s12.604 7.474 14.919 5.159c.741-.741 1.062-1.447 1.195-1.991a1.288 1.288 0 00-.6-1.422l-5.138-3.008z"/></svg><svg viewBox="0 0 30 30" width="30" height="30" id="svgsprite_secured_letter" x="613.74" y="512.01" xmlns="http://www.w3.org/2000/svg"><path d="M2.537 6l11.274 10.521a1.746 1.746 0 002.378 0L27.463 6H2.537zM1 7.3v15.286l7.906-7.906L1 7.3zm28 0l-7.906 7.38L29 22.586V7.3zm-18.633 8.745L2.414 24h25.172l-7.955-7.955-2.076 1.937a3.74 3.74 0 01-2.557 1.004 3.735 3.735 0 01-2.555-1.004l-2.076-1.937z"/></svg><svg viewBox="0 0 32 32" width="32" height="32" id="svgsprite_telegram_app_1" x="551.74" y="512.01" xmlns="http://www.w3.org/2000/svg"><path d="M26.07 3.996a2.974 2.974 0 00-.933.223h-.004c-.285.113-1.64.683-3.7 1.547l-7.382 3.109c-5.297 2.23-10.504 4.426-10.504 4.426l.062-.024s-.359.118-.734.375a2.03 2.03 0 00-.586.567c-.184.27-.332.683-.277 1.11.09.722.558 1.155.894 1.394.34.242.664.355.664.355h.008l4.883 1.645c.219.703 1.488 4.875 1.793 5.836.18.574.355.933.574 1.207.106.14.23.257.379.351a1.119 1.119 0 00.246.106l-.05-.012c.015.004.027.016.038.02.04.011.067.015.118.023.773.234 1.394-.246 1.394-.246l.035-.028 2.883-2.625 4.832 3.707.11.047c1.007.442 2.027.196 2.566-.238.543-.437.754-.996.754-.996l.035-.09 3.734-19.129c.106-.472.133-.914.016-1.343a1.807 1.807 0 00-.781-1.047 1.872 1.872 0 00-1.067-.27zm-.101 2.05c-.004.063.008.056-.02.177v.011l-3.699 18.93c-.016.027-.043.086-.117.145-.078.062-.14.101-.465-.028l-5.91-4.531-3.57 3.254.75-4.79 9.656-9c.398-.37.265-.448.265-.448.028-.454-.601-.133-.601-.133l-12.176 7.543-.004-.02-5.836-1.965v-.004l-.015-.003a.27.27 0 00.03-.012l.032-.016.031-.011s5.211-2.196 10.508-4.426c2.652-1.117 5.324-2.242 7.379-3.11 2.055-.863 3.574-1.496 3.66-1.53.082-.032.043-.032.102-.032z"/></svg><svg viewBox="0 0 50 50" width="50" height="50" id="svgsprite_viber_1" x="501.74" y="512.01" xmlns="http://www.w3.org/2000/svg"><path d="M44.781 13.156c-.781-2.789-2.328-4.992-4.593-6.55-2.86-1.973-6.149-2.668-8.989-3.094-3.93-.586-7.488-.668-10.883-.254-3.18.39-5.574 1.012-7.757 2.015-4.282 1.97-6.852 5.153-7.637 9.461a58.837 58.837 0 00-.79 5.79c-.343 4.171-.03 7.863.954 11.285.96 3.336 2.637 5.718 5.125 7.285.633.398 1.445.687 2.23.965.446.156.88.308 1.235.476.328.153.328.18.324.453-.027 2.371 0 7.02 0 7.02l.008.992h1.781l.29-.281c.19-.18 4.605-4.446 6.179-6.164l.215-.239c.27-.312.27-.312.547-.316 2.125-.043 4.296-.125 6.453-.242 2.613-.14 5.64-.395 8.492-1.582 2.61-1.09 4.515-2.82 5.66-5.14 1.195-2.423 1.902-5.044 2.168-8.016.469-5.227.137-9.762-1.012-13.864zM35.383 33.48c-.656 1.067-1.633 1.81-2.785 2.29-.844.351-1.703.277-2.535-.075-6.965-2.949-12.43-7.593-16.04-14.273-.746-1.375-1.261-2.875-1.855-4.328-.121-.297-.113-.649-.168-.977.05-2.347 1.852-3.672 3.672-4.07.695-.156 1.312.09 1.828.586a16.005 16.005 0 013.41 4.715c.371.777.203 1.465-.43 2.043-.132.12-.27.23-.414.34-1.445 1.085-1.656 1.91-.886 3.546 1.312 2.785 3.492 4.657 6.308 5.817.742.304 1.442.152 2.008-.45.078-.078.164-.156.219-.25 1.11-1.851 2.723-1.667 4.21-.613.977.696 1.927 1.43 2.891 2.137 1.473 1.082 1.461 2.098.567 3.562zM26.145 15c-.329 0-.657.027-.98.082a.999.999 0 11-.328-1.973c.429-.074.87-.109 1.308-.109C30.477 13 34 16.523 34 20.855c0 .442-.035.883-.11 1.31a1 1 0 01-1.972-.33A5.865 5.865 0 0026.145 15zM31 21c0 .55-.45 1-1 1s-1-.45-1-1c0-1.652-1.348-3-3-3-.55 0-1-.45-1-1s.45-1 1-1c2.758 0 5 2.242 5 5zm5.71 2.223a1 1 0 01-1.952-.446 8.875 8.875 0 00.219-1.96c0-4.86-3.957-8.817-8.817-8.817-.664 0-1.324.074-1.96.219a.996.996 0 01-1.196-.754.996.996 0 01.754-1.195c.781-.18 1.59-.27 2.402-.27 5.965 0 10.817 4.852 10.817 10.816 0 .813-.09 1.622-.266 2.407z"/></svg></svg>