<?xml version="1.0" standalone="no"?><!DOCTYPE svg PUBLIC "-//W3C//DTD SVG 1.1//EN" "http://www.w3.org/Graphics/SVG/1.1/DTD/svg11.dtd" ><svg xmlns="http://www.w3.org/2000/svg"><metadata></metadata><defs><font id="VyacheslavKirilenko,GayaneBagdasaryan: Geometria Bold: 2013" horiz-adv-x="1484"><font-face font-family="Geometria" font-weight="700" font-stretch="normal" units-per-em="1000" panose-1="2 11 7 3 2 2 4 2 2 4" ascent="777" descent="-223" x-height="4" bbox="-475 -270 1425 943" underline-thickness="50" underline-position="-175" unicode-range="U+0020-fb04" /><missing-glyph horiz-adv-x="741" d="M583 0 l-501 0 l0 700 l501 0 l0 -700 ZM191 605 l0 -510 l283 0 l0 510 l-283 0 Z" /><glyph glyph-name="space" unicode=" " d="" /><glyph glyph-name="exclam" unicode="!" d="M80 76 q0 37 25.5 62 q25.5 25 61.5 25 q36 0 61 -25 q25 -25 25 -62 q0 -36 -25 -61.5 q-25 -25.5 -61 -25.5 q-36 0 -61.5 25.5 q-25.5 25.5 -25.5 61.5 ZM221 233 l-109 0 l-31 467 l172 0 l-32 -467 Z" /><glyph glyph-name="quotedbl" unicode="&quot;" d="M156 403 l-121 0 l0 297 l121 0 l0 -297 ZM358 403 l-122 0 l0 297 l122 0 l0 -297 Z" /><glyph glyph-name="numbersign" unicode="#" d="M257 0 l-110 0 l26 167 l-138 0 l17 109 l138 0 l24 148 l-138 0 l16 109 l139 0 l27 167 l110 0 l-27 -167 l150 0 l27 167 l109 0 l-26 -167 l139 0 l-18 -109 l-138 0 l-24 -148 l139 0 l-17 -109 l-139 0 l-27 -167 l-109 0 l27 167 l-151 0 l-26 -167 ZM324 424 l-24 -148 l150 0 l24 148 l-150 0 Z" /><glyph glyph-name="dollar" unicode="$" d="M376 -109 l-130 0 l0 99 q-121 13 -203 71 l0 150 q44 -38 116 -66 q73 -27 144 -27 q59 0 97 21.5 q38 21.5 38 59.5 q0 41 -36 58 q-15 9 -40 18 l-24 8 l-56 17 l-52 17 q-11 3 -47 17 q-31 12 -45 21 q-52 36 -66 61 q-24 48 -24 98 q0 80 52 130.5 q52 50.5 146 64.5 l0 100 l130 0 l0 -99 q82 -10 165 -54 l0 -140 q-107 66 -227 66 q-119 0 -119 -69 q0 -30 37 -48 q22 -12 57 -21 q47 -13 76 -22 q87 -27 152 -73 q70 -49 70 -146 q0 -83 -58 -139.5 q-58 -56.5 -153 -71.5 l0 -101 Z" /><glyph glyph-name="percent" unicode="%" d="M251 0 l-101 0 l418 700 l101 0 l-418 -700 ZM489 287 q49 49 127 49 q78 0 127 -49 q50 -50 50 -122 q0 -72 -50 -122 q-49 -49 -127 -49 q-78 0 -127 49 q-50 50 -50 122 q0 72 50 122 ZM558 107 q23 -23 58 -23 q34 0 57 23 q23 23 23 58 q0 35 -23 58 q-23 23 -57 23 q-35 0 -58 -23 q-22 -23 -22 -58 q0 -35 22 -58 ZM74 657 q49 49 127 49 q78 0 127 -49 q50 -50 50 -122 q0 -72 -50 -122 q-49 -49 -127 -49 q-78 0 -127 49 q-50 50 -50 122 q0 72 50 122 ZM143 477 q23 -23 58 -23 q34 0 57 23 q23 23 23 58 q0 35 -23 58 q-23 23 -57 23 q-35 0 -58 -23 q-22 -23 -22 -58 q0 -35 22 -58 Z" /><glyph glyph-name="ampersand" unicode="&amp;" d="M513 663 l0 -135 q-83 63 -164 63 q-39 0 -65 -22 q-26 -22 -26 -54 q0 -18 9 -36 q12 -23 55 -66 l175 -174 q35 53 38 143 l135 0 q-5 -133 -77 -236 l148 -146 l-178 0 l-58 55 q-93 -69 -210 -69 q-111 0 -185 59 q-73 60 -73 166 q0 73 36 125 q38 53 83 75 q-37 49 -37 112 q0 82 58 136 q58 55 151 55 q104 0 185 -51 ZM304 109 q60 0 108 39 l-175 173 q-25 -12 -43.5 -41 q-18.5 -29 -18.5 -63 q0 -50 36 -79 q36 -29 93 -29 Z" /><glyph glyph-name="quotesingle" unicode="&#39;" d="M156 403 l-121 0 l0 297 l121 0 l0 -297 Z" /><glyph glyph-name="parenleft" unicode="(" d="M359 -206 l-144 0 q-144 182 -144 456 q0 272 144 456 l144 0 q-159 -204 -159 -456 q0 -252 159 -456 Z" /><glyph glyph-name="parenright" unicode=")" d="M173 -206 l-144 0 q159 204 159 456 q0 252 -159 456 l144 0 q144 -184 144 -456 q0 -274 -144 -456 Z" /><glyph glyph-name="asterisk" unicode="*" d="M252 329 l-85 0 l3 117 l-100 -61 l-43 74 l103 56 l-103 56 l43 74 l100 -62 l-3 117 l85 0 l-3 -117 l99 62 l43 -74 l-104 -56 l104 -56 l-43 -74 l-99 61 l3 -117 Z" /><glyph glyph-name="plus" unicode="+" d="M384 77 l-128 0 l0 191 l-190 0 l0 126 l190 0 l0 192 l128 0 l0 -192 l191 0 l0 -126 l-191 0 l0 -191 Z" /><glyph glyph-name="comma" unicode="," d="M122 -152 l-116 0 l86 303 l151 0 l-121 -303 Z" /><glyph glyph-name="hyphen" unicode="-" d="M405 214 l-309 0 l0 127 l309 0 l0 -127 Z" /><glyph glyph-name="period" unicode="." d="M132 -11 q-37 0 -62 25.5 q-25 25.5 -25 62.5 q0 36 25 61 q25 25 62 25 q36 0 61.5 -25 q25.5 -25 25.5 -61 q0 -37 -25.5 -62.5 q-25.5 -25.5 -61.5 -25.5 Z" /><glyph glyph-name="slash" unicode="/" d="M121 -140 l-141 0 l421 932 l141 0 l-421 -932 Z" /><glyph glyph-name="zero" unicode="0" d="M353 -14 q-93 0 -163 52 q-68 51 -103.5 132 q-35.5 81 -35.5 180 q0 98 34 178 q36 84 106.5 135 q70.5 51 161.5 51 q138 0 219 -107 q82 -106 82 -257 q0 -151 -82 -257 q-81 -107 -219 -107 ZM238 187 q44 -66 115 -66 q72 0 114 66 q43 67 43 163 q0 97 -43 162 q-42 67 -114 67 q-72 0 -115 -67 q-43 -65 -43 -162 q0 -96 43 -163 Z" /><glyph glyph-name="one" unicode="1" d="M309 0 l-141 0 l0 546 l-148 -75 l0 141 l164 88 l125 0 l0 -700 Z" /><glyph glyph-name="two" unicode="2" d="M533 0 l-498 0 l0 105 l206 187 q71 65 97 104 q28 40 28 85 q0 45 -33 71.5 q-33 26.5 -87 26.5 q-98 0 -189 -80 l0 148 q85 67 204 67 q100 0 174 -59 q74 -59 74 -155 q0 -74 -33 -131 q-30 -54 -115 -133 l-120 -110 l292 0 l0 -126 Z" /><glyph glyph-name="three" unicode="3" d="M252 -14 q-124 0 -213 56 l0 137 q92 -64 205 -64 q64 0 105 31.5 q41 31.5 41 85.5 q0 51 -38 82.5 q-38 31.5 -101 31.5 q-51 0 -99 -19 l0 95 l167 154 l-258 0 l0 124 l442 0 l0 -108 l-158 -145 q75 -13 132 -69 q57 -55 57 -146 q0 -112 -81 -179 q-80 -67 -201 -67 Z" /><glyph glyph-name="four" unicode="4" d="M514 0 l-140 0 l0 175 l-351 0 l0 104 l349 421 l142 0 l0 -409 l103 0 l0 -116 l-103 0 l0 -175 ZM374 519 l-192 -228 l192 0 l0 228 Z" /><glyph glyph-name="five" unicode="5" d="M246 -14 q-110 0 -199 50 l0 135 q89 -56 193 -56 q68 0 111.5 31 q43.5 31 43.5 86 q0 52 -42.5 84 q-42.5 32 -113.5 32 q-83 0 -168 -30 l46 382 l374 0 l0 -124 l-268 0 l-15 -119 q31 7 67 7 q116 0 189 -64 q75 -64 75 -168 q0 -115 -85 -181 q-85 -65 -208 -65 Z" /><glyph glyph-name="six" unicode="6" d="M334 -14 q-132 0 -205.5 87 q-73.5 87 -73.5 241 q0 79 20 150 q20 71 58.5 127.5 q38.5 56.5 101 89.5 q62.5 33 141.5 33 q90 0 158 -45 l0 -130 q-66 45 -142 45 q-86 0 -136 -54 q-49 -53 -55 -136 q56 65 163 65 q95 0 160 -62 q64 -61 64 -164 q0 -109 -73 -178 q-72 -69 -181 -69 ZM325 110 q53 0 86.5 33.5 q33.5 33.5 33.5 86.5 q0 51 -34 84 q-34 33 -86 33 q-41 0 -77 -25 q-36 -25 -51 -63 q3 -71 37 -110 q34 -39 91 -39 Z" /><glyph glyph-name="seven" unicode="7" d="M233 0 l-153 0 l286 571 l-331 0 l0 129 l494 0 l0 -111 l-296 -589 Z" /><glyph glyph-name="eight" unicode="8" d="M468 373 q59 -21 94.5 -68 q35.5 -47 35.5 -106 q0 -99 -81 -156 q-79 -57 -198 -57 q-118 0 -199 57 q-81 57 -81 156 q0 59 35.5 106 q35.5 47 94.5 68 q-46 21 -72 60 q-26 39 -26 87 q0 86 70 140 q71 54 178 54 q105 0 176 -54 q71 -54 71 -140 q0 -48 -26 -87 q-26 -39 -72 -60 ZM210 506 q0 -38 31.5 -62.5 q31.5 -24.5 77.5 -24.5 q46 0 77 24.5 q31 24.5 31 62.5 q0 39 -31 63.5 q-31 24.5 -77 24.5 q-46 0 -77.5 -24.5 q-31.5 -24.5 -31.5 -63.5 ZM449 208 q0 44 -37 73 q-37 29 -93 29 q-56 0 -93.5 -29 q-37.5 -29 -37.5 -73 q0 -43 37.5 -72 q37.5 -29 93.5 -29 q56 0 93 29 q37 29 37 72 Z" /><glyph glyph-name="nine" unicode="9" d="M304 714 q132 0 205.5 -87 q73.5 -87 73.5 -241 q0 -79 -20 -150 q-20 -71 -58.5 -127.5 q-38.5 -56.5 -101 -89.5 q-62.5 -33 -141.5 -33 q-90 0 -158 45 l0 130 q66 -45 142 -45 q86 0 135 54 q50 55 56 136 q-56 -65 -163 -65 q-96 0 -160 61 q-64 61 -64 165 q0 109 72 178 q73 69 182 69 ZM313 590 q-53 0 -86.5 -33.5 q-33.5 -33.5 -33.5 -86.5 q0 -51 34 -84 q34 -33 86 -33 q41 0 77 25 q36 25 51 64 q-3 71 -37 109.5 q-34 38.5 -91 38.5 Z" /><glyph glyph-name="colon" unicode=":" d="M132 319 q-37 0 -62 25.5 q-25 25.5 -25 62.5 q0 36 25 61 q25 25 62 25 q36 0 61.5 -25 q25.5 -25 25.5 -61 q0 -37 -25.5 -62.5 q-25.5 -25.5 -61.5 -25.5 ZM132 -11 q-37 0 -62 25.5 q-25 25.5 -25 62.5 q0 36 25 61 q25 25 62 25 q36 0 61.5 -25 q25.5 -25 25.5 -61 q0 -37 -25.5 -62.5 q-25.5 -25.5 -61.5 -25.5 Z" /><glyph glyph-name="semicolon" unicode=";" d="M122 -152 l-116 0 l86 303 l151 0 l-121 -303 ZM161 319 q-37 0 -62 25.5 q-25 25.5 -25 62.5 q0 36 25 61 q25 25 62 25 q36 0 61.5 -25 q25.5 -25 25.5 -61 q0 -37 -25.5 -62.5 q-25.5 -25.5 -61.5 -25.5 Z" /><glyph glyph-name="less" unicode="&lt;" d="M575 194 l0 -137 l-509 206 l0 133 l509 207 l0 -137 l-363 -136 l363 -136 Z" /><glyph glyph-name="equal" unicode="=" d="M575 381 l-509 0 l0 127 l509 0 l0 -127 ZM575 154 l-509 0 l0 128 l509 0 l0 -128 Z" /><glyph glyph-name="greater" unicode="&gt;" d="M575 263 l-509 -206 l0 137 l363 136 l-363 136 l0 137 l509 -207 l0 -133 Z" /><glyph glyph-name="question" unicode="?" d="M283 233 l-134 0 l0 148 q67 14 118 47 q52 34 52 77 q0 39 -31.5 59.5 q-31.5 20.5 -83.5 20.5 q-85 0 -179 -56 l0 126 q86 59 202 59 q98 0 167 -54 q70 -52 70 -146 q0 -74 -54 -126 q-54 -53 -127 -75 l0 -80 ZM219 -11 q-37 0 -62 25.5 q-25 25.5 -25 62.5 q0 36 25 61 q25 25 62 25 q36 0 61.5 -25 q25.5 -25 25.5 -61 q0 -37 -25.5 -62.5 q-25.5 -25.5 -61.5 -25.5 Z" /><glyph glyph-name="at" unicode="@" d="M471 -162 q-184 0 -309 124 q-126 125 -126 314 q0 185 127 311 q127 127 308 127 q185 0 309 -120 q125 -120 125 -292 q0 -114 -51 -181 q-49 -67 -132 -67 q-100 0 -143 72 q-23 -33 -62.5 -54.5 q-39.5 -21.5 -90.5 -21.5 q-87 0 -144 64 q-56 65 -56 160 q0 94 56 159 q56 65 142 65 q86 0 139 -65 l0 53 l121 0 l0 -284 q0 -100 69 -100 q45 0 80 54 q34 53 34 146 q0 154 -110 266 q-109 111 -286 111 q-173 0 -285 -118 q-112 -116 -112 -285 q0 -171 112 -286 q112 -117 285 -117 q109 0 217 60 l0 -39 q-98 -56 -217 -56 ZM462 159 q66 0 101 56 l0 118 q-35 56 -101 56 q-47 0 -77.5 -33 q-30.5 -33 -30.5 -82 q0 -49 30.5 -82 q30.5 -33 77.5 -33 Z" /><glyph glyph-name="A" unicode="a" d="M167 0 l-151 0 l300 704 l138 0 l300 -704 l-153 0 l-69 162 l-296 0 l-69 -162 ZM384 524 l-103 -243 l205 0 l-102 243 Z" /><glyph glyph-name="B" unicode="b" d="M429 0 l-352 0 l0 700 l329 0 q97 0 154.5 -46 q57.5 -46 57.5 -129 q0 -51 -25 -87 q-25 -36 -63 -52 q57 -12 100 -62 q42 -49 42 -125 q0 -89 -66 -144 q-65 -55 -177 -55 ZM221 307 l0 -183 l181 0 q54 0 84 23.5 q30 23.5 30 67.5 q0 44 -30 68 q-30 24 -84 24 l-181 0 ZM221 580 l0 -154 l162 0 q45 0 70.5 20 q25.5 20 25.5 56 q0 37 -25.5 57.5 q-25.5 20.5 -70.5 20.5 l-162 0 Z" /><glyph glyph-name="C" unicode="c" d="M432 -14 q-163 0 -271 102 q-108 104 -108 262 q0 160 107 262 q108 102 272 102 q102 0 185 -44 l0 -145 q-81 54 -184 54 q-99 0 -167 -65 q-66 -64 -66 -164 q0 -100 68 -165 q67 -64 171 -64 q115 0 192 61 l0 -145 q-85 -51 -199 -51 Z" /><glyph glyph-name="D" unicode="d" d="M339 0 l-262 0 l0 700 l262 0 q170 0 277 -98 q107 -98 107 -252 q0 -155 -107 -253 q-106 -97 -277 -97 ZM221 571 l0 -442 l106 0 q117 0 182.5 58.5 q65.5 58.5 65.5 162.5 q0 104 -65.5 162.5 q-65.5 58.5 -182.5 58.5 l-106 0 Z" /><glyph glyph-name="E" unicode="e" d="M602 0 l-525 0 l0 700 l514 0 l0 -129 l-370 0 l0 -135 l298 0 l0 -127 l-298 0 l0 -180 l381 0 l0 -129 Z" /><glyph glyph-name="F" unicode="f" d="M221 0 l-144 0 l0 700 l513 0 l0 -129 l-369 0 l0 -142 l285 0 l0 -127 l-285 0 l0 -302 Z" /><glyph glyph-name="G" unicode="g" d="M426 -14 q-160 0 -266 102 q-107 104 -107 262 q0 160 107 262 q106 102 271 102 q121 0 210 -53 l0 -142 q-97 60 -200 60 q-107 0 -174 -64 q-67 -63 -67 -168 q0 -104 65 -166 q65 -62 161 -62 q92 0 141 46 l0 241 l144 0 l0 -309 q-45 -48 -120 -79 q-78 -32 -165 -32 Z" /><glyph glyph-name="H" unicode="h" d="M221 0 l-144 0 l0 700 l144 0 l0 -262 l316 0 l0 262 l143 0 l0 -700 l-143 0 l0 307 l-316 0 l0 -307 Z" /><glyph glyph-name="I" unicode="i" d="M225 0 l-143 0 l0 700 l143 0 l0 -700 Z" /><glyph glyph-name="J" unicode="j" d="M196 -14 q-109 0 -168 41 l0 142 q60 -48 138 -48 q68 0 100.5 31.5 q32.5 31.5 32.5 101.5 l0 446 l143 0 l0 -470 q0 -67 -19.5 -116 q-19.5 -49 -54.5 -76 q-35 -27 -77.5 -39.5 q-42.5 -12.5 -94.5 -12.5 Z" /><glyph glyph-name="K" unicode="k" d="M221 0 l-144 0 l0 700 l144 0 l0 -276 l258 276 l176 0 l-297 -321 l348 -379 l-184 0 l-301 323 l0 -323 Z" /><glyph glyph-name="L" unicode="l" d="M576 0 l-499 0 l0 700 l144 0 l0 -571 l355 0 l0 -129 Z" /><glyph glyph-name="M" unicode="m" d="M221 0 l-144 0 l0 700 l143 0 l203 -290 l203 290 l142 0 l0 -700 l-142 0 l0 479 l-161 -225 l-80 0 l-164 225 l0 -479 Z" /><glyph glyph-name="N" unicode="n" d="M218 0 l-141 0 l0 700 l123 0 l353 -448 l0 448 l140 0 l0 -700 l-119 0 l-356 450 l0 -450 Z" /><glyph glyph-name="O" unicode="o" d="M261 186 q62 -65 155 -65 q92 0 154 65 q62 65 62 164 q0 99 -62 164 q-62 65 -154 65 q-93 0 -155 -65 q-61 -64 -61 -164 q0 -100 61 -164 ZM53 350 q0 154 103 258 q103 106 260 106 q156 0 259 -106 q104 -106 104 -258 q0 -151 -104 -258 q-103 -106 -259 -106 q-157 0 -260 106 q-103 106 -103 258 Z" /><glyph glyph-name="P" unicode="p" d="M221 0 l-144 0 l0 700 l306 0 q113 0 178 -59 q66 -58 66 -152 q0 -95 -66 -153 q-65 -59 -178 -59 l-162 0 l0 -277 ZM221 574 l0 -174 l152 0 q52 0 81 22.5 q29 22.5 29 64.5 q0 42 -29 64.5 q-29 22.5 -81 22.5 l-152 0 Z" /><glyph glyph-name="Q" unicode="q" d="M398 -12 q-150 6 -248 110 q-97 103 -97 252 q0 154 103 258 q103 106 260 106 q156 0 259 -106 q104 -106 104 -258 q0 -112 -60 -204 q-59 -91 -159 -131 q40 -51 107 -51 q45 0 83 21 l0 -121 q-51 -23 -106 -23 q-118 0 -246 147 ZM261 186 q62 -65 155 -65 q92 0 154 65 q62 65 62 164 q0 99 -62 164 q-62 65 -154 65 q-93 0 -155 -65 q-61 -64 -61 -164 q0 -100 61 -164 Z" /><glyph glyph-name="R" unicode="r" d="M221 0 l-144 0 l0 700 l324 0 q112 0 176 -58 q65 -57 65 -149 q0 -70 -38.5 -121.5 q-38.5 -51.5 -106.5 -72.5 l216 -299 l-167 0 l-204 283 l-121 0 l0 -283 ZM221 574 l0 -170 l172 0 q49 0 76.5 22 q27.5 22 27.5 63 q0 40 -27.5 62.5 q-27.5 22.5 -76.5 22.5 l-172 0 Z" /><glyph glyph-name="S" unicode="s" d="M309 -14 q-158 0 -266 75 l0 150 q44 -38 116 -66 q73 -27 144 -27 q59 0 97 21.5 q38 21.5 38 59.5 q0 41 -36 58 q-15 9 -40 18 l-24 8 l-56 17 l-52 17 q-11 3 -47 17 q-31 12 -45 21 q-52 36 -66 61 q-24 48 -24 98 q0 93 71 146 q71 54 193 54 q123 0 229 -58 l0 -140 q-107 66 -227 66 q-119 0 -119 -69 q0 -30 37 -48 q22 -12 57 -21 q47 -13 76 -22 q87 -27 152 -73 q70 -49 70 -146 q0 -101 -79 -159 q-79 -58 -199 -58 Z" /><glyph glyph-name="T" unicode="t" d="M30 571 l0 129 l587 0 l0 -129 l-222 0 l0 -571 l-144 0 l0 571 l-221 0 Z" /><glyph glyph-name="U" unicode="u" d="M367 -14 q-131 0 -215 81 q-84 81 -84 227 l0 406 l143 0 l0 -411 q0 -81 42.5 -124.5 q42.5 -43.5 113.5 -43.5 q72 0 114.5 43.5 q42.5 43.5 42.5 124.5 l0 411 l144 0 l0 -406 q0 -146 -85 -227 q-84 -81 -216 -81 Z" /><glyph glyph-name="V" unicode="v" d="M448 -4 l-136 0 l-294 704 l159 0 l204 -504 l205 504 l156 0 l-294 -704 Z" /><glyph glyph-name="W" unicode="w" d="M383 -4 l-127 0 l-235 704 l160 0 l144 -472 l158 474 l112 0 l159 -474 l144 472 l157 0 l-236 -704 l-127 0 l-153 467 l-156 -467 Z" /><glyph glyph-name="X" unicode="x" d="M48 700 l168 0 l147 -209 l149 209 l166 0 l-231 -322 l272 -378 l-168 0 l-190 261 l-189 -261 l-166 0 l273 377 l-231 323 Z" /><glyph glyph-name="Y" unicode="y" d="M420 0 l-143 0 l0 314 l-271 386 l170 0 l174 -249 l175 249 l165 0 l-270 -383 l0 -317 Z" /><glyph glyph-name="Z" unicode="z" d="M608 0 l-575 0 l0 102 l364 469 l-347 0 l0 129 l542 0 l0 -101 l-363 -470 l379 0 l0 -129 Z" /><glyph glyph-name="bracketleft" unicode="[" d="M393 -206 l-314 0 l0 912 l314 0 l0 -111 l-186 0 l0 -690 l186 0 l0 -111 Z" /><glyph glyph-name="backslash" unicode="\" d="M553 -140 l-141 0 l-421 932 l141 0 l421 -932 Z" /><glyph glyph-name="bracketright" unicode="]" d="M36 706 l314 0 l0 -912 l-314 0 l0 111 l186 0 l0 690 l-186 0 l0 111 Z" /><glyph glyph-name="asciicircum" unicode="^" d="M168 339 l-134 0 l174 399 l134 0 l174 -399 l-133 0 l-108 278 l-107 -278 Z" /><glyph glyph-name="underscore" unicode="_" d="M641 -149 l-637 0 l0 95 l637 0 l0 -95 Z" /><glyph glyph-name="grave" unicode="`" d="M133 722 l171 0 l95 -146 l-122 0 l-144 146 Z" /><glyph glyph-name="a" unicode="a" d="M544 109 q18 0 29 6 l0 -103 q-27 -21 -76 -21 q-85 0 -113 64 q-66 -68 -172 -68 q-82 0 -133 46 q-51 46 -51 121 q0 80 58 122 q58 42 139 42 q85 0 144 -31 l0 15 q0 94 -132 94 q-81 0 -151 -42 l0 118 q76 40 185 40 q108 0 172 -52 q66 -52 66 -144 l0 -169 q0 -38 35 -38 ZM369 147 l0 50 q-44 29 -104 29 q-45 0 -71.5 -17 q-26.5 -17 -26.5 -48 q0 -32 24 -48.5 q24 -16.5 65 -16.5 q74 0 113 51 Z" /><glyph glyph-name="b" unicode="b" d="M374 -13 q-108 0 -164 74 l0 -61 l-141 0 l0 700 l141 0 l0 -262 q59 74 164 74 q102 0 168 -76 q67 -74 67 -186 q0 -112 -67 -188 q-66 -75 -168 -75 ZM334 110 q60 0 97 40 q38 41 38 100 q0 58 -38 99 q-37 40 -97 40 q-40 0 -73 -20.5 q-33 -20.5 -51 -53.5 l0 -130 q18 -33 51 -54 q33 -21 73 -21 Z" /><glyph glyph-name="c" unicode="c" d="M307 -13 q-111 0 -191 72 q-80 74 -80 192 q0 118 80 189 q81 72 193 72 q82 0 148 -33 l0 -120 q-65 30 -127 30 q-66 0 -111 -39 q-44 -38 -44 -100 q0 -62 45 -101 q45 -39 110 -39 q77 0 135 34 l0 -120 q-70 -37 -158 -37 Z" /><glyph glyph-name="d" unicode="d" d="M271 -13 q-101 0 -169 75 q-66 76 -66 188 q0 111 66 186 q67 76 169 76 q105 0 164 -74 l0 262 l141 0 l0 -700 l-141 0 l0 61 q-56 -74 -164 -74 ZM311 110 q40 0 73 21 q33 21 51 54 l0 130 q-18 33 -51 53.5 q-33 20.5 -73 20.5 q-60 0 -97 -40 q-38 -41 -38 -99 q0 -59 38 -100 q37 -40 97 -40 Z" /><glyph glyph-name="e" unicode="e" d="M313 -13 q-117 0 -197 72 q-80 72 -80 191 q0 111 72 186 q72 76 188 76 q108 0 173 -77 q65 -77 65 -187 l0 -37 l-358 0 q11 -50 55.5 -77 q44.5 -27 111.5 -27 q83 0 160 44 l0 -113 q-67 -51 -190 -51 ZM176 301 l219 0 q-2 43 -30.5 71.5 q-28.5 28.5 -74.5 28.5 q-47 0 -78 -27.5 q-31 -27.5 -36 -72.5 Z" /><glyph glyph-name="f" unicode="f" d="M248 381 l0 -381 l-141 0 l0 381 l-89 0 l0 118 l89 0 l0 47 q0 76 44 121 q44 45 125 45 q73 0 127 -21 l0 -114 q-45 17 -86 17 q-69 0 -69 -67 l0 -28 l155 0 l0 -118 l-155 0 Z" /><glyph glyph-name="g" unicode="g" d="M433 441 l0 58 l141 0 l0 -441 q0 -128 -86 -196 q-86 -68 -203 -68 q-123 0 -196 43 l0 127 q79 -48 181 -48 q31 0 58 6.5 q27 6.5 52 21 q25 14.5 39 42 q14 27.5 14 65.5 l0 31 q-59 -71 -165 -71 q-102 0 -167 72 q-65 73 -65 179 q0 105 65 178 q65 72 167 72 q106 0 165 -71 ZM309 133 q40 0 73 19 q33 19 51 49 l0 120 q-18 30 -51 49 q-33 19 -73 19 q-59 0 -95.5 -36.5 q-36.5 -36.5 -36.5 -91.5 q0 -55 37.5 -91.5 q37.5 -36.5 94.5 -36.5 Z" /><glyph glyph-name="h" unicode="h" d="M210 318 l0 -318 l-141 0 l0 700 l141 0 l0 -262 q68 74 167 74 q86 0 134 -54.5 q48 -54.5 48 -151.5 l0 -306 l-141 0 l0 277 q0 54 -26.5 80 q-26.5 26 -68.5 26 q-32 0 -63.5 -18.5 q-31.5 -18.5 -49.5 -46.5 Z" /><glyph glyph-name="i" unicode="i" d="M217 0 l-141 0 l0 499 l141 0 l0 -499 ZM62 631 q0 36 24.5 60.5 q24.5 24.5 59.5 24.5 q35 0 59.5 -24.5 q24.5 -24.5 24.5 -60.5 q0 -35 -24.5 -59.5 q-24.5 -24.5 -59.5 -24.5 q-35 0 -59.5 24.5 q-24.5 24.5 -24.5 59.5 Z" /><glyph glyph-name="j" unicode="j" d="M36 -206 q-74 0 -111 22 l0 120 q35 -19 75 -19 q76 0 76 79 l0 503 l141 0 l0 -517 q0 -89 -48.5 -138.5 q-48.5 -49.5 -132.5 -49.5 ZM61 631 q0 36 24.5 60.5 q24.5 24.5 59.5 24.5 q35 0 60 -24.5 q25 -24.5 25 -60.5 q0 -35 -25 -59.5 q-25 -24.5 -60 -24.5 q-35 0 -59.5 24.5 q-24.5 24.5 -24.5 59.5 Z" /><glyph glyph-name="k" unicode="k" d="M210 0 l-141 0 l0 700 l141 0 l0 -383 l172 182 l173 0 l-217 -225 l251 -274 l-182 0 l-197 215 l0 -215 Z" /><glyph glyph-name="l" unicode="l" d="M202 -13 q-62 0 -97.5 33.5 q-35.5 33.5 -35.5 104.5 l0 575 l141 0 l0 -538 q0 -50 45 -50 q21 0 36 9 l0 -116 q-36 -18 -89 -18 Z" /><glyph glyph-name="m" unicode="m" d="M210 0 l-141 0 l0 499 l141 0 l0 -61 q56 74 152 74 q54 0 96.5 -24 q42.5 -24 58.5 -61 q25 38 72 61.5 q47 23.5 100 23.5 q82 0 130 -52 q48 -52 48 -148 l0 -312 l-141 0 l0 280 q0 103 -83 103 q-32 0 -61 -19 q-29 -19 -43 -49 l0 -315 l-141 0 l0 280 q0 103 -83 103 q-30 0 -60 -19 q-30 -19 -45 -47 l0 -317 Z" /><glyph glyph-name="n" unicode="n" d="M210 318 l0 -318 l-141 0 l0 499 l141 0 l0 -60 q67 73 167 73 q86 0 134 -54.5 q48 -54.5 48 -151.5 l0 -306 l-141 0 l0 277 q0 54 -26.5 80 q-26.5 26 -68.5 26 q-32 0 -63.5 -18.5 q-31.5 -18.5 -49.5 -46.5 Z" /><glyph glyph-name="o" unicode="o" d="M175 250 q0 -60 39 -100 q39 -40 99 -40 q60 0 99 40 q39 41 39 100 q0 60 -39 99 q-39 40 -99 40 q-60 0 -99 -40 q-39 -39 -39 -99 ZM36 250 q0 111 78 186 q77 76 199 76 q122 0 199 -76 q78 -76 78 -186 q0 -112 -78 -188 q-78 -75 -199 -75 q-121 0 -199 75 q-78 76 -78 188 Z" /><glyph glyph-name="p" unicode="p" d="M374 512 q102 0 168 -76 q67 -74 67 -187 q0 -111 -67 -187 q-66 -75 -168 -75 q-105 0 -164 74 l0 -261 l-141 0 l0 699 l141 0 l0 -61 q56 74 164 74 ZM334 389 q-40 0 -73 -21 q-33 -21 -51 -54 l0 -130 q18 -33 51 -53.5 q33 -20.5 73 -20.5 q60 0 97 40 q38 41 38 99 q0 59 -38 100 q-37 40 -97 40 Z" /><glyph glyph-name="q" unicode="q" d="M271 512 q108 0 164 -74 l0 61 l141 0 l0 -699 l-141 0 l0 261 q-59 -74 -164 -74 q-101 0 -169 75 q-66 76 -66 187 q0 112 66 187 q67 76 169 76 ZM311 389 q-60 0 -97 -40 q-38 -41 -38 -100 q0 -58 38 -99 q37 -40 97 -40 q40 0 73 20.5 q33 20.5 51 53.5 l0 130 q-18 33 -51 54 q-33 21 -73 21 Z" /><glyph glyph-name="r" unicode="r" d="M210 0 l-141 0 l0 499 l141 0 l0 -84 q23 40 70 68 q49 29 104 29 q12 0 16 -1 l0 -138 q-20 5 -44 5 q-49 0 -89.5 -25.5 q-40.5 -25.5 -56.5 -61.5 l0 -291 Z" /><glyph glyph-name="s" unicode="s" d="M253 -13 q-133 0 -210 47 l0 125 q36 -24 91.5 -40.5 q55.5 -16.5 112.5 -16.5 q86 0 86 42 q0 20 -25 31 q-13 6 -26 9 l-37 9 q-8 2 -21.5 5.5 q-13.5 3.5 -18.5 5.5 q-89 24 -125.5 57.5 q-36.5 33.5 -36.5 97.5 q0 71 58.5 112 q58.5 41 161.5 41 q114 0 187 -46 l0 -120 q-89 52 -181 52 q-80 0 -80 -40 q0 -8 4.5 -14.5 q4.5 -6.5 9 -9.5 q4.5 -3 14.5 -9 q6 -2 22 -6.5 q16 -4.5 21 -6.5 l53 -11 q83 -19 123 -56.5 q40 -37.5 40 -101.5 q0 -70 -61 -113 q-61 -43 -162 -43 Z" /><glyph glyph-name="t" unicode="t" d="M116 155 l0 226 l-98 0 l0 118 l98 0 l0 137 l141 0 l0 -137 l142 0 l0 -118 l-142 0 l0 -198 q0 -37 16 -53.5 q16 -16.5 52 -16.5 q37 0 73 18 l0 -117 q-44 -27 -119 -27 q-163 0 -163 168 Z" /><glyph glyph-name="u" unicode="u" d="M409 181 l0 318 l141 0 l0 -499 l-141 0 l0 60 q-67 -73 -167 -73 q-86 0 -134 54.5 q-48 54.5 -48 151.5 l0 306 l141 0 l0 -277 q0 -54 26.5 -80 q26.5 -26 68.5 -26 q32 0 63.5 18.5 q31.5 18.5 49.5 46.5 Z" /><glyph glyph-name="v" unicode="v" d="M358 -4 l-128 0 l-217 503 l152 0 l132 -324 l131 324 l147 0 l-217 -503 Z" /><glyph glyph-name="w" unicode="w" d="M308 -4 l-120 0 l-169 503 l141 0 l99 -297 l98 299 l113 0 l101 -299 l97 297 l140 0 l-171 -503 l-122 0 l-104 301 l-103 -301 Z" /><glyph glyph-name="x" unicode="x" d="M34 499 l158 0 l100 -140 l101 140 l156 0 l-175 -238 l190 -261 l-158 0 l-116 160 l-117 -160 l-156 0 l191 260 l-174 239 Z" /><glyph glyph-name="y" unicode="y" d="M134 -206 q-62 0 -100 20 l0 123 q35 -20 76 -20 q38 0 63.5 23.5 q25.5 23.5 47.5 76.5 l-215 482 l152 0 l132 -328 l125 328 l149 0 l-231 -551 q-66 -154 -199 -154 Z" /><glyph glyph-name="z" unicode="z" d="M493 0 l-461 0 l0 93 l252 288 l-236 0 l0 118 l429 0 l0 -96 l-253 -285 l269 0 l0 -118 Z" /><glyph glyph-name="braceleft" unicode="{" d="M373 -206 l-80 0 q-77 0 -122 45 q-45 45 -45 122 l0 111 q0 61 -16 89 q-16 28 -61 33 l0 112 q46 5 61.5 31 q15.5 26 15.5 86 l0 116 q0 77 45 122 q45 45 122 45 l80 0 l0 -111 l-50 0 q-32 0 -50.5 -19.5 q-18.5 -19.5 -18.5 -51.5 l0 -142 q0 -108 -80 -132 q80 -24 80 -132 l0 -142 q0 -32 18.5 -51.5 q18.5 -19.5 50.5 -19.5 l50 0 l0 -111 Z" /><glyph glyph-name="bar" unicode="|" d="M236 -111 l-126 0 l0 871 l126 0 l0 -871 Z" /><glyph glyph-name="braceright" unicode="}" d="M116 -206 l-80 0 l0 111 l50 0 q32 0 50.5 19.5 q18.5 19.5 18.5 51.5 l0 142 q0 108 80 132 q-80 24 -80 132 l0 142 q0 32 -18.5 51.5 q-18.5 19.5 -50.5 19.5 l-50 0 l0 111 l80 0 q77 0 122 -45 q45 -45 45 -122 l0 -116 q0 -60 15.5 -86 q15.5 -26 61.5 -31 l0 -112 q-45 -5 -61 -33 q-16 -28 -16 -89 l0 -111 q0 -77 -45 -122 q-45 -45 -122 -45 Z" /><glyph glyph-name="asciitilde" unicode="~" d="M444 169 q-48 0 -130 27 q-83 27 -130 27 q-75 0 -118 -46 l0 126 q14 19 47 31 q33 12 71 12 q49 0 130 -27 q82 -27 130 -27 q76 0 119 46 l0 -127 q-15 -19 -48 -30.5 q-33 -11.5 -71 -11.5 Z" /><glyph glyph-name="nonbreakingspace" unicode=" " d="" /><glyph glyph-name="exclamdown" unicode="¡" d="M221 266 l32 -466 l-172 0 l31 466 l109 0 ZM80 424 q0 36 25.5 61 q25.5 25 61.5 25 q36 0 61 -25 q25 -25 25 -61 q0 -37 -25 -62.5 q-25 -25.5 -61 -25.5 q-36 0 -61.5 25.5 q-25.5 25.5 -25.5 62.5 Z" /><glyph glyph-name="cent" unicode="¢" d="M242 504 l0 112 l119 0 l0 -108 q48 -6 96 -29 l0 -121 q-65 30 -127 30 q-65 0 -111 -38 q-44 -38 -44 -100 q0 -62 45 -101 q45 -39 110 -39 q77 0 135 34 l0 -120 q-50 -26 -104 -34 l0 -107 l-119 0 l0 111 q-89 20 -148 88 q-58 68 -58 169 q0 101 58 166 q59 68 148 87 Z" /><glyph glyph-name="sterling" unicode="£" d="M557 0 l-510 0 l0 129 l14 0 q41 0 54 17.5 q13 17.5 13 64.5 l0 71 l-81 0 l0 111 l81 0 l0 82 q0 111 68 175 q68 64 185 64 q93 0 160 -35 l0 -134 q-62 34 -137 34 q-132 0 -132 -124 l0 -62 l225 0 l0 -111 l-225 0 l0 -91 q0 -44 -29 -62 l314 0 l0 -129 Z" /><glyph glyph-name="currency" unicode="¤" d="M466 232 l66 -66 l-61 -61 l-65 66 q-55 -37 -120 -37 q-65 0 -120 37 l-65 -66 l-61 61 l66 66 q-36 53 -36 119 q0 66 36 119 l-66 66 l61 61 l65 -66 q55 37 120 37 q65 0 120 -37 l65 66 l61 -61 l-66 -66 q36 -53 36 -119 q0 -66 -36 -119 ZM206 270 q33 -33 80 -33 q48 0 79 33 q33 34 33 81 q0 47 -33 80 q-31 34 -79 34 q-47 0 -80 -34 q-32 -34 -32 -80 q0 -46 32 -81 Z" /><glyph glyph-name="yen" unicode="¥" d="M69 129 l0 94 l196 0 l0 70 l-196 0 l0 95 l156 0 l-215 312 l162 0 l166 -250 l167 250 l157 0 l-215 -312 l158 0 l0 -95 l-197 0 l0 -70 l197 0 l0 -94 l-197 0 l0 -129 l-143 0 l0 129 l-196 0 Z" /><glyph glyph-name="brokenbar" unicode="¦" d="M236 -111 l-126 0 l0 353 l126 0 l0 -353 ZM236 407 l-126 0 l0 353 l126 0 l0 -353 Z" /><glyph glyph-name="section" unicode="§" d="M312 -166 q-123 0 -223 53 l0 130 q115 -59 229 -59 q104 0 104 53 q0 29 -39 43 q-19 10 -42 16 l-26 8 l-60 18 q-104 31 -162 74 q-56 44 -56 119 q0 89 100 132 q-60 47 -60 117 q0 83 70 129 q71 47 186 47 q122 0 223 -53 l0 -131 q-116 60 -228 60 q-105 0 -105 -53 q0 -24 35 -43 q10 -5 57 -20 q5 -2 21.5 -6 q16.5 -4 31 -8.5 q14.5 -4.5 23.5 -7.5 q96 -29 152 -68 q66 -44 66 -125 q0 -44 -27 -78.5 q-27 -34.5 -73 -53.5 q60 -45 60 -117 q0 -82 -71 -129 q-71 -47 -186 -47 ZM367 195 l44 -14 q66 15 66 65 q0 33 -41 53 q-21 11 -43 18 q-19 7 -25 8 l-55 18 q-64 19 -78 25 q-67 -16 -67 -67 q0 -30 41 -52 q25 -12 43 -18 l25 -8 l55 -17 l35 -11 Z" /><glyph glyph-name="dieresis" unicode="¨" d="M428 590 q-21 -21 -52 -21 q-31 0 -53 21 q-21 22 -21 53 q0 31 21 52 q22 21 53 21 q31 0 52 -21 q22 -21 22 -52 q0 -31 -22 -53 ZM156 569 q-30 0 -52 21.5 q-22 21.5 -22 52.5 q0 30 22 51.5 q22 21.5 52 21.5 q31 0 52.5 -21 q21.5 -21 21.5 -52 q0 -31 -21.5 -52.5 q-21.5 -21.5 -52.5 -21.5 Z" /><glyph glyph-name="copyright" unicode="©" d="M158 93 q-105 107 -105 257 q0 150 106 256 q107 108 257 108 q151 0 256 -107 q105 -106 105 -257 q0 -150 -106 -257 q-107 -107 -257 -107 q-151 0 -256 107 ZM440 150 q-90 0 -149 58 q-60 58 -60 142 q0 84 60 141 q59 58 149 58 q57 0 101 -23 l0 -85 q-49 29 -101 29 q-51 0 -86 -34.5 q-35 -34.5 -35 -85.5 q0 -52 36 -86 q35 -34 89 -34 q62 0 105 33 l0 -85 q-46 -28 -109 -28 ZM414 20 q138 0 232 97 q95 98 95 234 q0 138 -94 233 q-95 96 -231 96 q-138 0 -232 -97 q-95 -98 -95 -234 q0 -136 94 -233 q95 -96 231 -96 Z" /><glyph glyph-name="ordfeminine" unicode="ª" d="M282 432 l0 40 q-37 24 -86 24 q-36 0 -57.5 -14 q-21.5 -14 -21.5 -38 q0 -53 72 -53 q58 0 93 41 ZM404 398 q13 0 21 5 l0 -71 q-19 -13 -52 -13 q-65 0 -81 49 q-51 -53 -131 -53 q-61 0 -99.5 34 q-38.5 34 -38.5 90 q0 57 42 89.5 q42 32.5 105 32.5 q62 0 112 -26 l0 16 q0 77 -103 77 q-60 0 -113 -32 l0 80 q53 31 136 31 q79 0 126.5 -39 q47.5 -39 47.5 -107 l0 -131 q0 -32 28 -32 Z" /><glyph glyph-name="guillemotleft" unicode="«" d="M310 35 l-141 0 l-137 179 l0 71 l137 179 l141 0 l-161 -214 l161 -215 ZM559 35 l-142 0 l-137 179 l0 71 l137 179 l142 0 l-162 -214 l162 -215 Z" /><glyph glyph-name="logicalnot" unicode="¬" d="M529 138 l-126 0 l0 160 l-337 0 l0 127 l463 0 l0 -287 Z" /><glyph glyph-name="uni00AD" unicode="­" d="M405 214 l-309 0 l0 127 l309 0 l0 -127 Z" /><glyph glyph-name="registered" unicode="®" d="M158 93 q-105 107 -105 257 q0 150 106 256 q107 108 257 108 q151 0 256 -107 q105 -106 105 -257 q0 -150 -106 -257 q-107 -107 -257 -107 q-151 0 -256 107 ZM347 168 l-85 0 l0 383 l179 0 q60 0 96.5 -32 q36.5 -32 36.5 -83 q0 -38 -20.5 -66.5 q-20.5 -28.5 -57.5 -39.5 l118 -162 l-95 0 l-111 152 l-61 0 l0 -152 ZM347 479 l0 -89 l90 0 q51 0 51 43 q0 22 -13.5 34 q-13.5 12 -37.5 12 l-90 0 ZM414 20 q138 0 232 97 q95 98 95 234 q0 138 -94 233 q-95 96 -231 96 q-138 0 -232 -97 q-95 -98 -95 -234 q0 -136 94 -233 q95 -96 231 -96 Z" /><glyph glyph-name="macron" unicode="¯" d="M405 595 l-307 0 l0 95 l307 0 l0 -95 Z" /><glyph glyph-name="degree" unicode="°" d="M121 556 q0 -32 22 -55 q22 -23 54 -23 q32 0 54 23 q22 23 22 55 q0 33 -22 55.5 q-22 22.5 -54 22.5 q-32 0 -54 -22.5 q-22 -22.5 -22 -55.5 ZM309 667 q48 -47 48 -111 q0 -64 -48 -111 q-46 -46 -112 -46 q-66 0 -113 46 q-47 47 -47 111 q0 64 47 111 q49 47 113 47 q65 0 112 -47 Z" /><glyph glyph-name="plusminus" unicode="±" d="M384 210 l-128 0 l0 163 l-190 0 l0 126 l190 0 l0 167 l128 0 l0 -167 l191 0 l0 -126 l-191 0 l0 -163 ZM575 19 l-509 0 l0 126 l509 0 l0 -126 Z" /><glyph glyph-name="twosuperior" unicode="²" d="M319 322 l-281 0 l0 69 l108 92 q65 56 65 93 q0 20 -15.5 31.5 q-15.5 11.5 -40.5 11.5 q-54 0 -104 -39 l0 95 q47 32 112 32 q57 0 100 -33 q44 -32 44 -86 q0 -41 -17.5 -72 q-17.5 -31 -62.5 -71 l-48 -43 l140 0 l0 -80 Z" /><glyph glyph-name="threesuperior" unicode="³" d="M144 315 q-71 0 -122 30 l0 88 q55 -34 114 -34 q31 0 51.5 14 q20.5 14 20.5 37 q0 22 -17.5 35.5 q-17.5 13.5 -47.5 13.5 q-36 0 -61 -11 l0 59 l87 73 l-136 0 l0 80 l253 0 l0 -71 l-80 -69 q43 -9 70.5 -36.5 q27.5 -27.5 27.5 -75.5 q0 -59 -47 -97 q-47 -36 -113 -36 Z" /><glyph glyph-name="acute" unicode="´" d="M262 570 l-122 0 l95 146 l170 0 l-143 -146 Z" /><glyph glyph-name="mu" unicode="µ" d="M418 181 l0 318 l141 0 l0 -499 l-141 0 l0 60 q-67 -73 -167 -73 q-26 0 -41 4 l0 -191 l-141 0 l0 699 l141 0 l0 -277 q0 -54 26.5 -80 q26.5 -26 68.5 -26 q32 0 63.5 18.5 q31.5 18.5 49.5 46.5 Z" /><glyph glyph-name="paragraph" unicode="¶" d="M495 0 l-144 0 l0 288 l-79 0 q-110 0 -175 57 q-64 58 -64 149 q0 92 64 149 q65 57 175 57 l223 0 l0 -700 Z" /><glyph glyph-name="middot" unicode="·" d="M132 300 q-37 0 -62 25.5 q-25 25.5 -25 62.5 q0 36 25 61 q25 25 62 25 q36 0 61.5 -25 q25.5 -25 25.5 -61 q0 -37 -25.5 -62.5 q-25.5 -25.5 -61.5 -25.5 Z" /><glyph glyph-name="cedilla" unicode="¸" d="M271 -145 l-163 0 l117 156 l113 0 l-67 -156 Z" /><glyph glyph-name="onesuperior" unicode="¹" d="M214 322 l-96 0 l0 280 l-101 -51 l0 94 l105 55 l92 0 l0 -378 Z" /><glyph glyph-name="ordmasculine" unicode="º" d="M150.5 434.5 q29.5 -30.5 74.5 -30.5 q45 0 74 30.5 q29 30.5 29 76.5 q0 45 -29 75.5 q-29 30.5 -74 30.5 q-46 0 -75 -30 q-29 -30 -29 -76 q0 -46 29.5 -76.5 ZM19 511 q0 84 58 139 q58 57 148 57 q89 0 147 -57 q58 -55 58 -139 q0 -85 -58 -140 q-59 -56 -147 -56 q-89 0 -148 56 q-58 55 -58 140 Z" /><glyph glyph-name="guillemotright" unicode="»" d="M172 35 l-141 0 l161 215 l-161 214 l141 0 l137 -179 l0 -71 l-137 -179 ZM420 35 l-141 0 l161 215 l-161 214 l141 0 l137 -179 l0 -71 l-137 -179 Z" /><glyph glyph-name="onequarter" unicode="¼" d="M207 0 l-108 0 l422 700 l108 0 l-422 -700 ZM214 322 l-96 0 l0 280 l-101 -51 l0 94 l105 55 l92 0 l0 -378 ZM696 0 l-92 0 l0 90 l-190 0 l0 68 l185 220 l97 0 l0 -214 l54 0 l0 -74 l-54 0 l0 -90 ZM604 272 l-93 -108 l93 0 l0 108 Z" /><glyph glyph-name="onehalf" unicode="½" d="M207 0 l-108 0 l422 700 l108 0 l-422 -700 ZM214 322 l-96 0 l0 280 l-101 -51 l0 94 l105 55 l92 0 l0 -378 ZM769 0 l-281 0 l0 69 l108 92 q65 56 65 93 q0 20 -15.5 31.5 q-15.5 11.5 -40.5 11.5 q-55 0 -104 -39 l0 95 q47 32 112 32 q57 0 100 -33 q44 -32 44 -86 q0 -41 -17.5 -72 q-17.5 -31 -62.5 -71 l-48 -43 l140 0 l0 -80 Z" /><glyph glyph-name="threequarters" unicode="¾" d="M739 0 l-92 0 l0 90 l-190 0 l0 68 l185 220 l97 0 l0 -214 l54 0 l0 -74 l-54 0 l0 -90 ZM647 272 l-93 -108 l93 0 l0 108 ZM144 315 q-71 0 -122 30 l0 88 q55 -34 114 -34 q31 0 51.5 14 q20.5 14 20.5 37 q0 22 -17.5 35.5 q-17.5 13.5 -47.5 13.5 q-36 0 -61 -11 l0 59 l87 73 l-136 0 l0 80 l253 0 l0 -71 l-80 -69 q43 -9 70.5 -36.5 q27.5 -27.5 27.5 -75.5 q0 -59 -47 -97 q-47 -36 -113 -36 ZM251 0 l-108 0 l422 700 l108 0 l-422 -700 Z" /><glyph glyph-name="questiondown" unicode="¿" d="M272 510 q37 0 62 -25.5 q25 -25.5 25 -62.5 q0 -36 -25 -61 q-25 -25 -62 -25 q-36 0 -61.5 25 q-25.5 25 -25.5 61 q0 37 25.5 62.5 q25.5 25.5 61.5 25.5 ZM208 266 l134 0 l0 -141 q-67 -14 -118 -47 q-52 -33 -52 -76 q0 -39 31.5 -59 q31.5 -20 83.5 -20 q85 0 179 56 l0 -126 q-86 -59 -202 -59 q-98 0 -168 55 q-69 54 -69 149 q0 71 53 121 q53 50 128 74 l0 73 Z" /><glyph glyph-name="Agrave" unicode="à" d="M167 0 l-151 0 l300 704 l138 0 l300 -704 l-153 0 l-69 162 l-296 0 l-69 -162 ZM384 524 l-103 -243 l205 0 l-102 243 ZM185 907 l170 0 l95 -146 l-122 0 l-143 146 Z" /><glyph glyph-name="Aacute" unicode="á" d="M167 0 l-151 0 l300 704 l138 0 l300 -704 l-153 0 l-69 162 l-296 0 l-69 -162 ZM384 524 l-103 -243 l205 0 l-102 243 ZM447 761 l-122 0 l95 146 l170 0 l-143 -146 Z" /><glyph glyph-name="Acircumflex" unicode="â" d="M167 0 l-151 0 l300 704 l138 0 l300 -704 l-153 0 l-69 162 l-296 0 l-69 -162 ZM384 524 l-103 -243 l205 0 l-102 243 ZM319 762 l-122 0 l122 145 l136 0 l119 -145 l-123 0 l-67 77 l-65 -77 Z" /><glyph glyph-name="Atilde" unicode="ã" d="M167 0 l-151 0 l300 704 l138 0 l300 -704 l-153 0 l-69 162 l-296 0 l-69 -162 ZM384 524 l-103 -243 l205 0 l-102 243 ZM280 765 l-77 0 q1 60 32.5 100 q31.5 40 81.5 40 q31 0 71 -22 q40 -22 61 -22 q34 0 43 41 l76 0 q0 -55 -32 -99 q-32 -42 -81 -42 q-32 0 -72 22 q-41 23 -61 23 q-34 0 -42 -41 Z" /><glyph glyph-name="Adieresis" unicode="ä" d="M167 0 l-151 0 l300 704 l138 0 l300 -704 l-153 0 l-69 162 l-296 0 l-69 -162 ZM384 524 l-103 -243 l205 0 l-102 243 ZM548 781 q-21 -21 -52 -21 q-31 0 -53 21 q-21 22 -21 53 q0 31 21 52 q22 21 53 21 q31 0 52 -21 q21 -21 21 -52 q0 -31 -21 -53 ZM276 760 q-30 0 -52 21.5 q-22 21.5 -22 52.5 q0 30 22 51.5 q22 21.5 52 21.5 q31 0 52.5 -21 q21.5 -21 21.5 -52 q0 -31 -21.5 -52.5 q-21.5 -21.5 -52.5 -21.5 Z" /><glyph glyph-name="Aring" unicode="å" d="M167 0 l-151 0 l300 704 l138 0 l300 -704 l-153 0 l-69 162 l-296 0 l-69 -162 ZM384 524 l-103 -243 l205 0 l-102 243 ZM490 838 q0 -43 -31 -74 q-31 -31 -74 -31 q-43 0 -74 31 q-31 31 -31 74 q0 43 31 74 q31 31 74 31 q43 0 74 -31 q31 -31 31 -74 ZM352 805 q14 -13 33 -13 q19 0 32 13 q14 14 14 33 q0 19 -14 32 q-13 14 -32 14 q-19 0 -33 -14 q-13 -13 -13 -32 q0 -19 13 -33 Z" /><glyph glyph-name="AE" unicode="æ" d="M646 309 l0 -180 l374 0 l0 -129 l-518 0 l0 162 l-250 0 l-90 -162 l-158 0 l395 700 l610 0 l0 -129 l-363 0 l0 -135 l291 0 l0 -127 l-291 0 ZM502 575 l-19 0 l-164 -294 l183 0 l0 294 Z" /><glyph glyph-name="Ccedilla" unicode="ç" d="M432 -145 l-163 0 l101 136 q-141 20 -229 117 q-88 98 -88 242 q0 160 107 262 q108 102 272 102 q102 0 185 -44 l0 -145 q-81 54 -184 54 q-99 0 -167 -65 q-66 -64 -66 -164 q0 -100 68 -165 q67 -64 171 -64 q115 0 192 61 l0 -145 q-63 -37 -141 -47 l-58 -135 Z" /><glyph glyph-name="Egrave" unicode="è" d="M602 0 l-525 0 l0 700 l514 0 l0 -129 l-370 0 l0 -135 l298 0 l0 -127 l-298 0 l0 -180 l381 0 l0 -129 ZM153 907 l170 0 l95 -146 l-122 0 l-143 146 Z" /><glyph glyph-name="Eacute" unicode="é" d="M602 0 l-525 0 l0 700 l514 0 l0 -129 l-370 0 l0 -135 l298 0 l0 -127 l-298 0 l0 -180 l381 0 l0 -129 ZM366 761 l-122 0 l95 146 l170 0 l-143 -146 Z" /><glyph glyph-name="Ecircumflex" unicode="ê" d="M602 0 l-525 0 l0 700 l514 0 l0 -129 l-370 0 l0 -135 l298 0 l0 -127 l-298 0 l0 -180 l381 0 l0 -129 ZM272 762 l-122 0 l122 145 l136 0 l119 -145 l-123 0 l-67 77 l-65 -77 Z" /><glyph glyph-name="Edieresis" unicode="ë" d="M602 0 l-525 0 l0 700 l514 0 l0 -129 l-370 0 l0 -135 l298 0 l0 -127 l-298 0 l0 -180 l381 0 l0 -129 ZM502 781 q-21 -21 -52 -21 q-31 0 -53 21 q-21 22 -21 53 q0 31 21 52 q22 21 53 21 q31 0 52 -21 q21 -21 21 -52 q0 -31 -21 -53 ZM230 760 q-30 0 -52 21.5 q-22 21.5 -22 52.5 q0 30 22 51.5 q22 21.5 52 21.5 q31 0 52.5 -21 q21.5 -21 21.5 -52 q0 -31 -21.5 -52.5 q-21.5 -21.5 -52.5 -21.5 Z" /><glyph glyph-name="Igrave" unicode="ì" d="M225 0 l-143 0 l0 700 l143 0 l0 -700 ZM-48 907 l170 0 l95 -146 l-122 0 l-143 146 Z" /><glyph glyph-name="Iacute" unicode="í" d="M225 0 l-143 0 l0 700 l143 0 l0 -700 ZM215 761 l-122 0 l95 146 l170 0 l-143 -146 Z" /><glyph glyph-name="Icircumflex" unicode="î" d="M87 762 l-122 0 l122 145 l136 0 l119 -145 l-123 0 l-67 77 l-65 -77 ZM225 0 l-143 0 l0 700 l143 0 l0 -700 Z" /><glyph glyph-name="Idieresis" unicode="ï" d="M225 0 l-143 0 l0 700 l143 0 l0 -700 ZM316 781 q-21 -21 -52 -21 q-31 0 -53 21 q-21 22 -21 53 q0 31 21 52 q22 21 53 21 q31 0 52 -21 q21 -21 21 -52 q0 -31 -21 -53 ZM44 760 q-30 0 -52 21.5 q-22 21.5 -22 52.5 q0 30 22 51.5 q22 21.5 52 21.5 q31 0 52.5 -21 q21.5 -21 21.5 -52 q0 -31 -21.5 -52.5 q-21.5 -21.5 -52.5 -21.5 Z" /><glyph glyph-name="Eth" unicode="ð" d="M393 0 l-262 0 l0 306 l-96 0 l0 121 l96 0 l0 273 l262 0 q170 0 277 -98 q107 -98 107 -252 q0 -155 -107 -253 q-106 -97 -277 -97 ZM275 306 l0 -177 l106 0 q117 0 182.5 58.5 q65.5 58.5 65.5 162.5 q0 104 -65.5 162.5 q-65.5 58.5 -182.5 58.5 l-106 0 l0 -144 l138 0 l0 -121 l-138 0 Z" /><glyph glyph-name="Ntilde" unicode="ñ" d="M218 0 l-141 0 l0 700 l123 0 l353 -448 l0 448 l140 0 l0 -700 l-119 0 l-356 450 l0 -450 ZM280 765 l-77 0 q1 60 32.5 100 q31.5 40 81.5 40 q31 0 71 -22 q40 -22 61 -22 q34 0 43 41 l76 0 q0 -55 -32 -99 q-32 -42 -81 -42 q-32 0 -72 22 q-41 23 -61 23 q-34 0 -42 -41 Z" /><glyph glyph-name="Ograve" unicode="ò" d="M261 186 q62 -65 155 -65 q92 0 154 65 q62 65 62 164 q0 99 -62 164 q-62 65 -154 65 q-93 0 -155 -65 q-61 -64 -61 -164 q0 -100 61 -164 ZM53 350 q0 154 103 258 q103 106 260 106 q156 0 259 -106 q104 -106 104 -258 q0 -151 -104 -258 q-103 -106 -259 -106 q-157 0 -260 106 q-103 106 -103 258 ZM214 907 l170 0 l95 -146 l-122 0 l-143 146 Z" /><glyph glyph-name="Oacute" unicode="ó" d="M261 186 q62 -65 155 -65 q92 0 154 65 q62 65 62 164 q0 99 -62 164 q-62 65 -154 65 q-93 0 -155 -65 q-61 -64 -61 -164 q0 -100 61 -164 ZM53 350 q0 154 103 258 q103 106 260 106 q156 0 259 -106 q104 -106 104 -258 q0 -151 -104 -258 q-103 -106 -259 -106 q-157 0 -260 106 q-103 106 -103 258 ZM465 761 l-122 0 l95 146 l170 0 l-143 -146 Z" /><glyph glyph-name="Ocircumflex" unicode="ô" d="M261 186 q62 -65 155 -65 q92 0 154 65 q62 65 62 164 q0 99 -62 164 q-62 65 -154 65 q-93 0 -155 -65 q-61 -64 -61 -164 q0 -100 61 -164 ZM53 350 q0 154 103 258 q103 106 260 106 q156 0 259 -106 q104 -106 104 -258 q0 -151 -104 -258 q-103 -106 -259 -106 q-157 0 -260 106 q-103 106 -103 258 ZM350 762 l-122 0 l122 145 l136 0 l119 -145 l-123 0 l-67 77 l-65 -77 Z" /><glyph glyph-name="Otilde" unicode="õ" d="M261 186 q62 -65 155 -65 q92 0 154 65 q62 65 62 164 q0 99 -62 164 q-62 65 -154 65 q-93 0 -155 -65 q-61 -64 -61 -164 q0 -100 61 -164 ZM53 350 q0 154 103 258 q103 106 260 106 q156 0 259 -106 q104 -106 104 -258 q0 -151 -104 -258 q-103 -106 -259 -106 q-157 0 -260 106 q-103 106 -103 258 ZM311 765 l-77 0 q1 60 32.5 100 q31.5 40 81.5 40 q31 0 71 -22 q40 -22 61 -22 q34 0 43 41 l76 0 q0 -55 -32 -99 q-31 -42 -81 -42 q-32 0 -72 22 q-41 23 -61 23 q-34 0 -42 -41 Z" /><glyph glyph-name="Odieresis" unicode="ö" d="M261 186 q62 -65 155 -65 q92 0 154 65 q62 65 62 164 q0 99 -62 164 q-62 65 -154 65 q-93 0 -155 -65 q-61 -64 -61 -164 q0 -100 61 -164 ZM53 350 q0 154 103 258 q103 106 260 106 q156 0 259 -106 q104 -106 104 -258 q0 -151 -104 -258 q-103 -106 -259 -106 q-157 0 -260 106 q-103 106 -103 258 ZM579 781 q-21 -21 -52 -21 q-31 0 -53 21 q-21 22 -21 53 q0 31 21 52 q22 21 53 21 q31 0 52 -21 q21 -21 21 -52 q0 -31 -21 -53 ZM307 760 q-30 0 -52 21.5 q-22 21.5 -22 52.5 q0 30 22 51.5 q22 21.5 52 21.5 q31 0 52.5 -21 q21.5 -21 21.5 -52 q0 -31 -21.5 -52.5 q-21.5 -21.5 -52.5 -21.5 Z" /><glyph glyph-name="multiply" unicode="×" d="M301 242 l-146 -145 l-89 89 l146 145 l-146 146 l89 89 l145 -145 l146 145 l88 -89 l-144 -146 l144 -145 l-88 -89 l-145 145 Z" /><glyph glyph-name="Oslash" unicode="ø" d="M416 -14 q-110 0 -198 56 l-34 -42 l-112 0 l80 97 q-99 103 -99 253 q0 154 103 258 q103 106 260 106 q106 0 197 -56 l35 42 l114 0 l-81 -98 q98 -104 98 -252 q0 -151 -104 -258 q-103 -106 -259 -106 ZM200 350 q0 -81 43 -142 l282 342 q-50 29 -109 29 q-93 0 -155 -65 q-61 -64 -61 -164 ZM416 121 q92 0 154 65 q62 65 62 164 q0 79 -43 140 l-282 -341 q49 -28 109 -28 Z" /><glyph glyph-name="Ugrave" unicode="ù" d="M367 -14 q-131 0 -215 81 q-84 81 -84 227 l0 406 l143 0 l0 -411 q0 -81 42.5 -124.5 q42.5 -43.5 113.5 -43.5 q72 0 114.5 43.5 q42.5 43.5 42.5 124.5 l0 411 l144 0 l0 -406 q0 -146 -85 -227 q-84 -81 -216 -81 ZM171 907 l170 0 l95 -146 l-122 0 l-143 146 Z" /><glyph glyph-name="Uacute" unicode="ú" d="M367 -14 q-131 0 -215 81 q-84 81 -84 227 l0 406 l143 0 l0 -411 q0 -81 42.5 -124.5 q42.5 -43.5 113.5 -43.5 q72 0 114.5 43.5 q42.5 43.5 42.5 124.5 l0 411 l144 0 l0 -406 q0 -146 -85 -227 q-84 -81 -216 -81 ZM423 761 l-122 0 l95 146 l170 0 l-143 -146 Z" /><glyph glyph-name="Ucircumflex" unicode="û" d="M367 -14 q-131 0 -215 81 q-84 81 -84 227 l0 406 l143 0 l0 -411 q0 -81 42.5 -124.5 q42.5 -43.5 113.5 -43.5 q72 0 114.5 43.5 q42.5 43.5 42.5 124.5 l0 411 l144 0 l0 -406 q0 -146 -85 -227 q-84 -81 -216 -81 ZM302 762 l-122 0 l122 145 l136 0 l119 -145 l-123 0 l-67 77 l-65 -77 Z" /><glyph glyph-name="Udieresis" unicode="ü" d="M367 -14 q-131 0 -215 81 q-84 81 -84 227 l0 406 l143 0 l0 -411 q0 -81 42.5 -124.5 q42.5 -43.5 113.5 -43.5 q72 0 114.5 43.5 q42.5 43.5 42.5 124.5 l0 411 l144 0 l0 -406 q0 -146 -85 -227 q-84 -81 -216 -81 ZM530 781 q-21 -21 -52 -21 q-31 0 -53 21 q-21 22 -21 53 q0 31 21 52 q22 21 53 21 q31 0 52 -21 q21 -21 21 -52 q0 -31 -21 -53 ZM258 760 q-30 0 -52 21.5 q-22 21.5 -22 52.5 q0 30 22 51.5 q22 21.5 52 21.5 q31 0 52.5 -21 q21.5 -21 21.5 -52 q0 -31 -21.5 -52.5 q-21.5 -21.5 -52.5 -21.5 Z" /><glyph glyph-name="Yacute" unicode="ý" d="M420 0 l-143 0 l0 314 l-271 386 l170 0 l174 -249 l175 249 l165 0 l-270 -383 l0 -317 ZM401 761 l-122 0 l95 146 l170 0 l-143 -146 Z" /><glyph glyph-name="Thorn" unicode="þ" d="M77 700 l144 0 l0 -139 l171 0 q113 0 178 -59 q66 -58 66 -152 q0 -94 -66 -153 q-65 -59 -178 -59 l-171 0 l0 -138 l-144 0 l0 700 ZM382 435 l-161 0 l0 -174 l161 0 q52 0 81 22.5 q29 22.5 29 64.5 q0 42 -29 64.5 q-29 22.5 -81 22.5 Z" /><glyph glyph-name="germandbls" unicode="ß" d="M374 -9 q-60 0 -91 12 l0 113 q30 -11 63 -11 q49 0 78.5 28 q29.5 28 29.5 75 q0 53 -37.5 83.5 q-37.5 30.5 -102.5 30.5 l-18 0 l0 102 l17 0 q44 0 68.5 21.5 q24.5 21.5 24.5 59.5 q0 38 -25.5 59.5 q-25.5 21.5 -67.5 21.5 q-47 0 -75 -30 q-28 -30 -28 -84 l0 -472 l-141 0 l0 473 q0 111 67 175 q67 64 175 64 q108 0 169 -55 q61 -54 61 -136 q0 -52 -23.5 -89 q-23.5 -37 -59.5 -50 q57 -16 95 -66 q38 -50 38 -122 q0 -96 -59.5 -149.5 q-59.5 -53.5 -157.5 -53.5 Z" /><glyph glyph-name="agrave" unicode="à" d="M544 109 q18 0 29 6 l0 -103 q-27 -21 -76 -21 q-85 0 -113 64 q-66 -68 -172 -68 q-82 0 -133 46 q-51 46 -51 121 q0 80 58 122 q58 42 139 42 q85 0 144 -31 l0 15 q0 94 -132 94 q-81 0 -151 -42 l0 118 q76 40 185 40 q108 0 172 -52 q66 -52 66 -144 l0 -169 q0 -38 35 -38 ZM369 197 q-44 29 -104 29 q-45 0 -71.5 -17 q-26.5 -17 -26.5 -48 q0 -32 24 -48.5 q24 -16.5 65 -16.5 q74 0 113 51 l0 50 ZM105 722 l171 0 l95 -146 l-122 0 l-144 146 Z" /><glyph glyph-name="aacute" unicode="á" d="M544 109 q18 0 29 6 l0 -103 q-27 -21 -76 -21 q-85 0 -113 64 q-66 -68 -172 -68 q-82 0 -133 46 q-51 46 -51 121 q0 80 58 122 q58 42 139 42 q85 0 144 -31 l0 15 q0 94 -132 94 q-81 0 -151 -42 l0 118 q76 40 185 40 q108 0 172 -52 q66 -52 66 -144 l0 -169 q0 -38 35 -38 ZM369 197 q-44 29 -104 29 q-45 0 -71.5 -17 q-26.5 -17 -26.5 -48 q0 -32 24 -48.5 q24 -16.5 65 -16.5 q74 0 113 51 l0 50 ZM315 570 l-122 0 l95 146 l170 0 l-143 -146 Z" /><glyph glyph-name="acircumflex" unicode="â" d="M544 109 q18 0 29 6 l0 -103 q-27 -21 -76 -21 q-85 0 -113 64 q-66 -68 -172 -68 q-82 0 -133 46 q-51 46 -51 121 q0 80 58 122 q58 42 139 42 q85 0 144 -31 l0 15 q0 94 -132 94 q-81 0 -151 -42 l0 118 q76 40 185 40 q108 0 172 -52 q66 -52 66 -144 l0 -169 q0 -38 35 -38 ZM369 197 q-44 29 -104 29 q-45 0 -71.5 -17 q-26.5 -17 -26.5 -48 q0 -32 24 -48.5 q24 -16.5 65 -16.5 q74 0 113 51 l0 50 ZM204 570 l-121 0 l122 146 l136 0 l119 -146 l-124 0 l-66 78 l-66 -78 Z" /><glyph glyph-name="atilde" unicode="ã" d="M544 109 q18 0 29 6 l0 -103 q-27 -21 -76 -21 q-85 0 -113 64 q-66 -68 -172 -68 q-82 0 -133 46 q-51 46 -51 121 q0 80 58 122 q58 42 139 42 q85 0 144 -31 l0 15 q0 94 -132 94 q-81 0 -151 -42 l0 118 q76 40 185 40 q108 0 172 -52 q66 -52 66 -144 l0 -169 q0 -38 35 -38 ZM369 197 q-44 29 -104 29 q-45 0 -71.5 -17 q-26.5 -17 -26.5 -48 q0 -32 24 -48.5 q24 -16.5 65 -16.5 q74 0 113 51 l0 50 ZM176 576 l-76 0 q0 59 31 99 q32 41 82 41 q31 0 71 -22 q41 -22 62 -22 q34 0 42 41 l77 0 q-1 -55 -33 -99 q-32 -42 -80 -42 q-32 0 -72 22 q-41 23 -61 23 q-34 0 -43 -41 Z" /><glyph glyph-name="adieresis" unicode="ä" d="M544 109 q18 0 29 6 l0 -103 q-27 -21 -76 -21 q-85 0 -113 64 q-66 -68 -172 -68 q-82 0 -133 46 q-51 46 -51 121 q0 80 58 122 q58 42 139 42 q85 0 144 -31 l0 15 q0 94 -132 94 q-81 0 -151 -42 l0 118 q76 40 185 40 q108 0 172 -52 q66 -52 66 -144 l0 -169 q0 -38 35 -38 ZM369 197 q-44 29 -104 29 q-45 0 -71.5 -17 q-26.5 -17 -26.5 -48 q0 -32 24 -48.5 q24 -16.5 65 -16.5 q74 0 113 51 l0 50 ZM442 590 q-21 -21 -52 -21 q-31 0 -53 21 q-21 22 -21 53 q0 31 21 52 q22 21 53 21 q31 0 52 -21 q22 -21 22 -52 q0 -31 -22 -53 ZM170 569 q-30 0 -52 21.5 q-22 21.5 -22 52.5 q0 30 22 51.5 q22 21.5 52 21.5 q31 0 52.5 -21 q21.5 -21 21.5 -52 q0 -31 -21.5 -52.5 q-21.5 -21.5 -52.5 -21.5 Z" /><glyph glyph-name="aring" unicode="å" d="M544 109 q18 0 29 6 l0 -103 q-27 -21 -76 -21 q-85 0 -113 64 q-66 -68 -172 -68 q-82 0 -133 46 q-51 46 -51 121 q0 80 58 122 q58 42 139 42 q85 0 144 -31 l0 15 q0 94 -132 94 q-81 0 -151 -42 l0 118 q76 40 185 40 q108 0 172 -52 q66 -52 66 -144 l0 -169 q0 -38 35 -38 ZM369 197 q-44 29 -104 29 q-45 0 -71.5 -17 q-26.5 -17 -26.5 -48 q0 -32 24 -48.5 q24 -16.5 65 -16.5 q74 0 113 51 l0 50 ZM382 650 q0 -43 -31 -74 q-31 -31 -74 -31 q-43 0 -74 31 q-31 31 -31 74 q0 43 31 74 q31 31 74 31 q43 0 74 -31 q31 -31 31 -74 ZM244 617 q14 -13 33 -13 q19 0 32 13 q14 14 14 33 q0 19 -14 32 q-13 14 -32 14 q-19 0 -33 -14 q-13 -13 -13 -32 q0 -19 13 -33 Z" /><glyph glyph-name="ae" unicode="æ" d="M864 248 l0 -37 l-358 0 q11 -50 55.5 -77 q44.5 -27 111.5 -27 q83 0 160 44 l0 -113 q-67 -51 -190 -51 q-137 0 -217 93 q-33 -40 -89 -66.5 q-56 -26.5 -121 -26.5 q-84 0 -136 46 q-52 46 -52 121 q0 80 58 122 q58 42 139 42 q85 0 144 -31 l0 15 q0 94 -132 94 q-81 0 -151 -42 l0 118 q76 40 185 40 q115 0 180 -68 q71 68 172 68 q112 0 176 -76 q65 -77 65 -188 ZM256 94 q41 0 75.5 16.5 q34.5 16.5 50.5 43.5 q-8 20 -12 45 q-44 29 -105 29 q-45 0 -71.5 -17.5 q-26.5 -17.5 -26.5 -49.5 q0 -32 24.5 -49.5 q24.5 -17.5 64.5 -17.5 ZM506 301 l219 0 q-2 43 -30.5 71.5 q-28.5 28.5 -74.5 28.5 q-47 0 -78 -27.5 q-31 -27.5 -36 -72.5 Z" /><glyph glyph-name="ccedilla" unicode="ç" d="M36 251 q0 118 80 189 q81 72 193 72 q82 0 148 -33 l0 -120 q-65 30 -127 30 q-66 0 -111 -39 q-44 -38 -44 -100 q0 -62 45 -101 q45 -39 110 -39 q77 0 135 34 l0 -120 q-39 -21 -83 -30 l-59 -139 l-163 0 l101 136 q-97 14 -161 84 q-64 70 -64 176 Z" /><glyph glyph-name="egrave" unicode="è" d="M313 -13 q-117 0 -197 72 q-80 72 -80 191 q0 111 72 186 q72 76 188 76 q108 0 173 -77 q65 -77 65 -187 l0 -37 l-358 0 q11 -50 55.5 -77 q44.5 -27 111.5 -27 q83 0 160 44 l0 -113 q-67 -51 -190 -51 ZM176 301 l219 0 q-2 43 -30.5 71.5 q-28.5 28.5 -74.5 28.5 q-47 0 -78 -27.5 q-31 -27.5 -36 -72.5 ZM126 722 l171 0 l95 -146 l-122 0 l-144 146 Z" /><glyph glyph-name="eacute" unicode="é" d="M313 -13 q-117 0 -197 72 q-80 72 -80 191 q0 111 72 186 q72 76 188 76 q108 0 173 -77 q65 -77 65 -187 l0 -37 l-358 0 q11 -50 55.5 -77 q44.5 -27 111.5 -27 q83 0 160 44 l0 -113 q-67 -51 -190 -51 ZM176 301 l219 0 q-2 43 -30.5 71.5 q-28.5 28.5 -74.5 28.5 q-47 0 -78 -27.5 q-31 -27.5 -36 -72.5 ZM339 570 l-122 0 l95 146 l170 0 l-143 -146 Z" /><glyph glyph-name="ecircumflex" unicode="ê" d="M313 -13 q-117 0 -197 72 q-80 72 -80 191 q0 111 72 186 q72 76 188 76 q108 0 173 -77 q65 -77 65 -187 l0 -37 l-358 0 q11 -50 55.5 -77 q44.5 -27 111.5 -27 q83 0 160 44 l0 -113 q-67 -51 -190 -51 ZM176 301 l219 0 q-2 43 -30.5 71.5 q-28.5 28.5 -74.5 28.5 q-47 0 -78 -27.5 q-31 -27.5 -36 -72.5 ZM220 570 l-121 0 l122 146 l136 0 l119 -146 l-124 0 l-66 78 l-66 -78 Z" /><glyph glyph-name="edieresis" unicode="ë" d="M313 -13 q-117 0 -197 72 q-80 72 -80 191 q0 111 72 186 q72 76 188 76 q108 0 173 -77 q65 -77 65 -187 l0 -37 l-358 0 q11 -50 55.5 -77 q44.5 -27 111.5 -27 q83 0 160 44 l0 -113 q-67 -51 -190 -51 ZM176 301 l219 0 q-2 43 -30.5 71.5 q-28.5 28.5 -74.5 28.5 q-47 0 -78 -27.5 q-31 -27.5 -36 -72.5 ZM450 590 q-21 -21 -52 -21 q-31 0 -53 21 q-21 22 -21 53 q0 31 21 52 q22 21 53 21 q31 0 52 -21 q22 -21 22 -52 q0 -31 -22 -53 ZM178 569 q-30 0 -52 21.5 q-22 21.5 -22 52.5 q0 30 22 51.5 q22 21.5 52 21.5 q31 0 52.5 -21 q21.5 -21 21.5 -52 q0 -31 -21.5 -52.5 q-21.5 -21.5 -52.5 -21.5 Z" /><glyph glyph-name="igrave" unicode="ì" d="M204 0 l-141 0 l0 499 l141 0 l0 -499 ZM-68 722 l171 0 l95 -146 l-122 0 l-144 146 Z" /><glyph glyph-name="iacute" unicode="í" d="M204 0 l-141 0 l0 499 l141 0 l0 -499 ZM192 570 l-122 0 l95 146 l170 0 l-143 -146 Z" /><glyph glyph-name="icircumflex" unicode="î" d="M66 570 l-121 0 l122 146 l136 0 l119 -146 l-124 0 l-66 78 l-66 -78 ZM204 0 l-141 0 l0 499 l141 0 l0 -499 Z" /><glyph glyph-name="idieresis" unicode="ï" d="M295 590 q-21 -21 -52 -21 q-31 0 -53 21 q-21 22 -21 53 q0 31 21 52 q22 21 53 21 q31 0 52 -21 q22 -21 22 -52 q0 -31 -22 -53 ZM23 569 q-30 0 -52 21.5 q-22 21.5 -22 52.5 q0 30 22 51.5 q22 21.5 52 21.5 q31 0 52.5 -21 q21.5 -21 21.5 -52 q0 -31 -21.5 -52.5 q-21.5 -21.5 -52.5 -21.5 ZM204 0 l-141 0 l0 499 l141 0 l0 -499 Z" /><glyph glyph-name="eth" unicode="ð" d="M301 -13 q-115 0 -191 71 q-74 71 -74 173 q0 100 62 164 q63 63 161 63 q57 0 94 -17 l-80 106 l-120 -46 l-51 69 l115 45 l-68 85 l152 0 l32 -42 l99 37 l50 -70 l-95 -36 l81 -111 q51 -70 76 -124 q23 -51 23 -112 q0 -108 -76 -181 q-76 -74 -190 -74 ZM301 358 q-54 0 -90 -35.5 q-36 -35.5 -36 -88.5 q0 -53 35.5 -88 q35.5 -35 90.5 -35 q55 0 91 35 q36 35 36 88 q0 53 -36 88.5 q-36 35.5 -91 35.5 Z" /><glyph glyph-name="ntilde" unicode="ñ" d="M208 576 l-76 0 q0 59 31 99 q32 41 82 41 q31 0 71 -22 q41 -22 62 -22 q34 0 42 41 l77 0 q-1 -55 -33 -99 q-32 -42 -80 -42 q-32 0 -72 22 q-41 23 -61 23 q-34 0 -43 -41 ZM210 318 l0 -318 l-141 0 l0 499 l141 0 l0 -60 q67 73 167 73 q86 0 134 -54.5 q48 -54.5 48 -151.5 l0 -306 l-141 0 l0 277 q0 54 -26.5 80 q-26.5 26 -68.5 26 q-32 0 -63.5 -18.5 q-31.5 -18.5 -49.5 -46.5 Z" /><glyph glyph-name="ograve" unicode="ò" d="M175 250 q0 -60 39 -100 q39 -40 99 -40 q60 0 99 40 q39 41 39 100 q0 60 -39 99 q-39 40 -99 40 q-60 0 -99 -40 q-39 -39 -39 -99 ZM36 250 q0 111 78 186 q77 76 199 76 q122 0 199 -76 q78 -76 78 -186 q0 -112 -78 -188 q-78 -75 -199 -75 q-121 0 -199 75 q-78 76 -78 188 ZM118 722 l171 0 l95 -146 l-122 0 l-144 146 Z" /><glyph glyph-name="oacute" unicode="ó" d="M175 250 q0 -60 39 -100 q39 -40 99 -40 q60 0 99 40 q39 41 39 100 q0 60 -39 99 q-39 40 -99 40 q-60 0 -99 -40 q-39 -39 -39 -99 ZM36 250 q0 111 78 186 q77 76 199 76 q122 0 199 -76 q78 -76 78 -186 q0 -112 -78 -188 q-78 -75 -199 -75 q-121 0 -199 75 q-78 76 -78 188 ZM364 570 l-122 0 l95 146 l170 0 l-143 -146 Z" /><glyph glyph-name="ocircumflex" unicode="ô" d="M175 250 q0 -60 39 -100 q39 -40 99 -40 q60 0 99 40 q39 41 39 100 q0 60 -39 99 q-39 40 -99 40 q-60 0 -99 -40 q-39 -39 -39 -99 ZM36 250 q0 111 78 186 q77 76 199 76 q122 0 199 -76 q78 -76 78 -186 q0 -112 -78 -188 q-78 -75 -199 -75 q-121 0 -199 75 q-78 76 -78 188 ZM245 570 l-121 0 l122 146 l136 0 l119 -146 l-124 0 l-66 78 l-66 -78 Z" /><glyph glyph-name="otilde" unicode="õ" d="M175 250 q0 -60 39 -100 q39 -40 99 -40 q60 0 99 40 q39 41 39 100 q0 60 -39 99 q-39 40 -99 40 q-60 0 -99 -40 q-39 -39 -39 -99 ZM36 250 q0 111 78 186 q77 76 199 76 q122 0 199 -76 q78 -76 78 -186 q0 -112 -78 -188 q-78 -75 -199 -75 q-121 0 -199 75 q-78 76 -78 188 ZM207 576 l-76 0 q0 59 31 99 q32 41 82 41 q31 0 71 -22 q41 -22 62 -22 q34 0 42 41 l77 0 q-2 -55 -33 -99 q-32 -42 -80 -42 q-32 0 -72 22 q-41 23 -61 23 q-34 0 -43 -41 Z" /><glyph glyph-name="odieresis" unicode="ö" d="M175 250 q0 -60 39 -100 q39 -40 99 -40 q60 0 99 40 q39 41 39 100 q0 60 -39 99 q-39 40 -99 40 q-60 0 -99 -40 q-39 -39 -39 -99 ZM36 250 q0 111 78 186 q77 76 199 76 q122 0 199 -76 q78 -76 78 -186 q0 -112 -78 -188 q-78 -75 -199 -75 q-121 0 -199 75 q-78 76 -78 188 ZM475 590 q-21 -21 -52 -21 q-31 0 -53 21 q-21 22 -21 53 q0 31 21 52 q22 21 53 21 q31 0 52 -21 q22 -21 22 -52 q0 -31 -22 -53 ZM203 569 q-30 0 -52 21.5 q-22 21.5 -22 52.5 q0 30 22 51.5 q22 21.5 52 21.5 q31 0 52.5 -21 q21.5 -21 21.5 -52 q0 -31 -21.5 -52.5 q-21.5 -21.5 -52.5 -21.5 Z" /><glyph glyph-name="divide" unicode="÷" d="M379 494 q-25 -25 -62 -25 q-37 0 -63 25 q-26 26 -26 63 q0 37 26 62 q26 26 63 26 q37 0 62 -26 q26 -25 26 -62 q0 -37 -26 -63 ZM566 268 l-500 0 l0 126 l500 0 l0 -126 ZM379 42 q-25 -25 -62 -25 q-37 0 -63 25 q-26 26 -26 63 q0 37 26 63 q26 26 63 26 q37 0 62 -26 q26 -26 26 -63 q0 -37 -26 -63 Z" /><glyph glyph-name="oslash" unicode="ø" d="M313 -13 q-81 0 -146 36 l-19 -23 l-98 0 l58 68 q-72 74 -72 182 q0 111 78 186 q77 76 199 76 q81 0 145 -36 l20 23 l98 0 l-59 -69 q73 -74 73 -180 q0 -112 -78 -188 q-78 -75 -199 -75 ZM175 250 q0 -45 22 -79 l176 206 q-27 13 -60 13 q-60 0 -99 -40 q-39 -40 -39 -100 ZM313 110 q60 0 99 40 q39 40 39 100 q0 44 -22 78 l-176 -206 q27 -12 60 -12 Z" /><glyph glyph-name="ugrave" unicode="ù" d="M550 499 l0 -499 l-141 0 l0 60 q-67 -73 -167 -73 q-86 0 -134 54.5 q-48 54.5 -48 151.5 l0 306 l141 0 l0 -277 q0 -54 26.5 -80 q26.5 -26 68.5 -26 q32 0 63.5 18.5 q31.5 18.5 49.5 46.5 l0 318 l141 0 ZM128 722 l171 0 l95 -146 l-122 0 l-144 146 Z" /><glyph glyph-name="uacute" unicode="ú" d="M550 499 l0 -499 l-141 0 l0 60 q-67 -73 -167 -73 q-86 0 -134 54.5 q-48 54.5 -48 151.5 l0 306 l141 0 l0 -277 q0 -54 26.5 -80 q26.5 -26 68.5 -26 q32 0 63.5 18.5 q31.5 18.5 49.5 46.5 l0 318 l141 0 ZM342 570 l-122 0 l95 146 l170 0 l-143 -146 Z" /><glyph glyph-name="ucircumflex" unicode="û" d="M550 499 l0 -499 l-141 0 l0 60 q-67 -73 -167 -73 q-86 0 -134 54.5 q-48 54.5 -48 151.5 l0 306 l141 0 l0 -277 q0 -54 26.5 -80 q26.5 -26 68.5 -26 q32 0 63.5 18.5 q31.5 18.5 49.5 46.5 l0 318 l141 0 ZM238 570 l-121 0 l122 146 l136 0 l119 -146 l-124 0 l-66 78 l-66 -78 Z" /><glyph glyph-name="udieresis" unicode="ü" d="M550 499 l0 -499 l-141 0 l0 60 q-67 -73 -167 -73 q-86 0 -134 54.5 q-48 54.5 -48 151.5 l0 306 l141 0 l0 -277 q0 -54 26.5 -80 q26.5 -26 68.5 -26 q32 0 63.5 18.5 q31.5 18.5 49.5 46.5 l0 318 l141 0 ZM468 590 q-21 -21 -52 -21 q-31 0 -53 21 q-21 22 -21 53 q0 31 21 52 q22 21 53 21 q31 0 52 -21 q22 -21 22 -52 q0 -31 -22 -53 ZM196 569 q-30 0 -52 21.5 q-22 21.5 -22 52.5 q0 30 22 51.5 q22 21.5 52 21.5 q31 0 52.5 -21 q21.5 -21 21.5 -52 q0 -31 -21.5 -52.5 q-21.5 -21.5 -52.5 -21.5 Z" /><glyph glyph-name="yacute" unicode="ý" d="M134 -206 q-62 0 -100 20 l0 123 q35 -20 76 -20 q38 0 63.5 23.5 q25.5 23.5 47.5 76.5 l-215 482 l152 0 l132 -328 l125 328 l149 0 l-231 -551 q-66 -154 -199 -154 ZM333 570 l-122 0 l95 146 l170 0 l-143 -146 Z" /><glyph glyph-name="thorn" unicode="þ" d="M374 -13 q-108 0 -164 74 l0 -261 l-141 0 l0 900 l141 0 l0 -262 q59 74 164 74 q102 0 168 -76 q67 -74 67 -186 q0 -112 -67 -188 q-66 -75 -168 -75 ZM334 110 q60 0 97 40 q38 41 38 100 q0 58 -38 99 q-37 40 -97 40 q-40 0 -73 -20.5 q-33 -20.5 -51 -53.5 l0 -130 q18 -33 51 -54 q33 -21 73 -21 Z" /><glyph glyph-name="ydieresis" unicode="ÿ" d="M134 -206 q-62 0 -100 20 l0 123 q35 -20 76 -20 q38 0 63.5 23.5 q25.5 23.5 47.5 76.5 l-215 482 l152 0 l132 -328 l125 328 l149 0 l-231 -551 q-66 -154 -199 -154 ZM446 590 q-21 -21 -52 -21 q-31 0 -53 21 q-21 22 -21 53 q0 31 21 52 q22 21 53 21 q31 0 52 -21 q22 -21 22 -52 q0 -31 -22 -53 ZM174 569 q-30 0 -52 21.5 q-22 21.5 -22 52.5 q0 30 22 51.5 q22 21.5 52 21.5 q31 0 52.5 -21 q21.5 -21 21.5 -52 q0 -31 -21.5 -52.5 q-21.5 -21.5 -52.5 -21.5 Z" /><glyph glyph-name="Amacron" unicode="&#x100;" d="M167 0 l-151 0 l300 704 l138 0 l300 -704 l-153 0 l-69 162 l-296 0 l-69 -162 ZM384 524 l-103 -243 l205 0 l-102 243 ZM538 785 l-306 0 l0 95 l306 0 l0 -95 Z" /><glyph glyph-name="amacron" unicode="&#x101;" d="M544 109 q18 0 29 6 l0 -103 q-27 -21 -76 -21 q-85 0 -113 64 q-66 -68 -172 -68 q-82 0 -133 46 q-51 46 -51 121 q0 80 58 122 q58 42 139 42 q85 0 144 -31 l0 15 q0 94 -132 94 q-81 0 -151 -42 l0 118 q76 40 185 40 q108 0 172 -52 q66 -52 66 -144 l0 -169 q0 -38 35 -38 ZM369 197 q-44 29 -104 29 q-45 0 -71.5 -17 q-26.5 -17 -26.5 -48 q0 -32 24 -48.5 q24 -16.5 65 -16.5 q74 0 113 51 l0 50 ZM437 595 l-307 0 l0 95 l307 0 l0 -95 Z" /><glyph glyph-name="Abreve" unicode="&#x102;" d="M167 0 l-151 0 l300 704 l138 0 l300 -704 l-153 0 l-69 162 l-296 0 l-69 -162 ZM384 524 l-103 -243 l205 0 l-102 243 ZM220 909 l95 0 q2 -33 21 -53 q19 -20 49 -20 q30 0 49 20 q19 20 21 53 l95 0 q-2 -75 -50 -119 q-47 -44 -115 -44 q-67 0 -116 44 q-48 44 -49 119 Z" /><glyph glyph-name="abreve" unicode="&#x103;" d="M544 109 q18 0 29 6 l0 -103 q-27 -21 -76 -21 q-85 0 -113 64 q-66 -68 -172 -68 q-82 0 -133 46 q-51 46 -51 121 q0 80 58 122 q58 42 139 42 q85 0 144 -31 l0 15 q0 94 -132 94 q-81 0 -151 -42 l0 118 q76 40 185 40 q108 0 172 -52 q66 -52 66 -144 l0 -169 q0 -38 35 -38 ZM369 197 q-44 29 -104 29 q-45 0 -71.5 -17 q-26.5 -17 -26.5 -48 q0 -32 24 -48.5 q24 -16.5 65 -16.5 q74 0 113 51 l0 50 ZM278 561 q-70 0 -116.5 44.5 q-46.5 44.5 -49.5 117.5 l96 0 q2 -33 21 -53 q19 -20 49 -20 q30 0 48.5 20 q18.5 20 20.5 53 l95 0 q-2 -74 -49 -118 q-47 -44 -115 -44 Z" /><glyph glyph-name="Aogonek" unicode="&#x104;" d="M749 -202 q-59 0 -93.5 29 q-34.5 29 -34.5 74 q0 54 45 99 l-65 0 l-69 162 l-296 0 l-69 -162 l-151 0 l300 704 l138 0 l300 -704 q-35 -35 -35 -70 q0 -22 14.5 -34.5 q14.5 -12.5 39.5 -12.5 q23 0 36 7 l0 -84 q-22 -8 -60 -8 ZM384 524 l-103 -243 l205 0 l-102 243 Z" /><glyph glyph-name="aogonek" unicode="&#x105;" d="M568 -190 q-59 0 -93.5 29 q-34.5 29 -34.5 74 q0 41 29 81 q-64 10 -85 61 q-66 -68 -172 -68 q-82 0 -133 46 q-51 46 -51 121 q0 80 58 122 q58 42 139 42 q85 0 144 -31 l0 15 q0 94 -132 94 q-81 0 -151 -42 l0 118 q76 40 185 40 q108 0 172 -52 q66 -52 66 -144 l0 -169 q0 -38 35 -38 q18 0 29 6 l0 -103 q-35 -35 -35 -70 q0 -22 14.5 -34.5 q14.5 -12.5 39.5 -12.5 q23 0 36 7 l0 -84 q-22 -8 -60 -8 ZM369 147 l0 50 q-44 29 -104 29 q-45 0 -71.5 -17 q-26.5 -17 -26.5 -48 q0 -32 24 -48.5 q24 -16.5 65 -16.5 q74 0 113 51 Z" /><glyph glyph-name="Cacute" unicode="&#x106;" d="M432 -14 q-163 0 -271 102 q-108 104 -108 262 q0 160 107 262 q108 102 272 102 q102 0 185 -44 l0 -145 q-81 54 -184 54 q-99 0 -167 -65 q-66 -64 -66 -164 q0 -100 68 -165 q67 -64 171 -64 q115 0 192 61 l0 -145 q-85 -51 -199 -51 ZM439 761 l-122 0 l95 146 l170 0 l-143 -146 Z" /><glyph glyph-name="cacute" unicode="&#x107;" d="M307 -13 q-111 0 -191 72 q-80 74 -80 192 q0 118 80 189 q81 72 193 72 q82 0 148 -33 l0 -120 q-65 30 -127 30 q-66 0 -111 -39 q-44 -38 -44 -100 q0 -62 45 -101 q45 -39 110 -39 q77 0 135 34 l0 -120 q-70 -37 -158 -37 ZM313 570 l-122 0 l95 146 l170 0 l-143 -146 Z" /><glyph glyph-name="Ccircumflex" unicode="&#x108;" d="M432 -14 q-163 0 -271 102 q-108 104 -108 262 q0 160 107 262 q108 102 272 102 q102 0 185 -44 l0 -145 q-81 54 -184 54 q-99 0 -167 -65 q-66 -64 -66 -164 q0 -100 68 -165 q67 -64 171 -64 q115 0 192 61 l0 -145 q-85 -51 -199 -51 ZM327 762 l-122 0 l122 145 l136 0 l119 -145 l-123 0 l-67 77 l-65 -77 Z" /><glyph glyph-name="ccircumflex" unicode="&#x109;" d="M307 -13 q-111 0 -191 72 q-80 74 -80 192 q0 118 80 189 q81 72 193 72 q82 0 148 -33 l0 -120 q-65 30 -127 30 q-66 0 -111 -39 q-44 -38 -44 -100 q0 -62 45 -101 q45 -39 110 -39 q77 0 135 34 l0 -120 q-70 -37 -158 -37 ZM211 570 l-121 0 l122 146 l136 0 l119 -146 l-124 0 l-66 78 l-66 -78 Z" /><glyph glyph-name="Cdotaccent" unicode="&#x10a;" d="M432 -14 q-163 0 -271 102 q-108 104 -108 262 q0 160 107 262 q108 102 272 102 q102 0 185 -44 l0 -145 q-81 54 -184 54 q-99 0 -167 -65 q-66 -64 -66 -164 q0 -100 68 -165 q67 -64 171 -64 q115 0 192 61 l0 -145 q-85 -51 -199 -51 ZM410 760 q-30 0 -52 21.5 q-22 21.5 -22 52.5 q0 30 22 51.5 q22 21.5 52 21.5 q31 0 52.5 -21.5 q21.5 -21.5 21.5 -51.5 q0 -31 -21.5 -52.5 q-21.5 -21.5 -52.5 -21.5 Z" /><glyph glyph-name="cdotaccent" unicode="&#x10b;" d="M307 -13 q-111 0 -191 72 q-80 74 -80 192 q0 118 80 189 q81 72 193 72 q82 0 148 -33 l0 -120 q-65 30 -127 30 q-66 0 -111 -39 q-44 -38 -44 -100 q0 -62 45 -101 q45 -39 110 -39 q77 0 135 34 l0 -120 q-70 -37 -158 -37 ZM297 569 q-30 0 -52 21.5 q-22 21.5 -22 52.5 q0 30 22 51.5 q22 21.5 52 21.5 q31 0 52 -21 q21 -21 21 -52 q0 -31 -21 -52.5 q-21 -21.5 -52 -21.5 Z" /><glyph glyph-name="Ccaron" unicode="&#x10c;" d="M432 -14 q-163 0 -271 102 q-108 104 -108 262 q0 160 107 262 q108 102 272 102 q102 0 185 -44 l0 -145 q-81 54 -184 54 q-99 0 -167 -65 q-66 -64 -66 -164 q0 -100 68 -165 q67 -64 171 -64 q115 0 192 61 l0 -145 q-85 -51 -199 -51 ZM467 907 l122 0 l-122 -146 l-136 0 l-119 146 l123 0 l67 -78 l65 78 Z" /><glyph glyph-name="ccaron" unicode="&#x10d;" d="M307 -13 q-111 0 -191 72 q-80 74 -80 192 q0 118 80 189 q81 72 193 72 q82 0 148 -33 l0 -120 q-65 30 -127 30 q-66 0 -111 -39 q-44 -38 -44 -100 q0 -62 45 -101 q45 -39 110 -39 q77 0 135 34 l0 -120 q-70 -37 -158 -37 ZM350 716 l122 0 l-122 -146 l-136 0 l-120 146 l124 0 l66 -78 l66 78 Z" /><glyph glyph-name="Dcaron" unicode="&#x10e;" d="M339 0 l-262 0 l0 700 l262 0 q170 0 277 -98 q107 -98 107 -252 q0 -155 -107 -253 q-106 -97 -277 -97 ZM221 571 l0 -442 l106 0 q117 0 182.5 58.5 q65.5 58.5 65.5 162.5 q0 104 -65.5 162.5 q-65.5 58.5 -182.5 58.5 l-106 0 ZM415 907 l122 0 l-122 -146 l-136 0 l-119 146 l123 0 l67 -78 l65 78 Z" /><glyph glyph-name="dcaron" unicode="&#x10f;" d="M271 -13 q-101 0 -169 75 q-66 76 -66 188 q0 111 66 186 q67 76 169 76 q105 0 164 -74 l0 262 l141 0 l0 -700 l-141 0 l0 61 q-56 -74 -164 -74 ZM311 110 q40 0 73 21 q33 21 51 54 l0 130 q-18 33 -51 53.5 q-33 20.5 -73 20.5 q-60 0 -97 -40 q-38 -41 -38 -99 q0 -59 38 -100 q37 -40 97 -40 ZM751 496 l-105 0 l59 204 l130 0 l-84 -204 Z" /><glyph glyph-name="Dcroat" unicode="&#x110;" d="M393 0 l-262 0 l0 306 l-96 0 l0 121 l96 0 l0 273 l262 0 q170 0 277 -98 q107 -98 107 -252 q0 -155 -107 -253 q-106 -97 -277 -97 ZM275 306 l0 -177 l106 0 q117 0 182.5 58.5 q65.5 58.5 65.5 162.5 q0 104 -65.5 162.5 q-65.5 58.5 -182.5 58.5 l-106 0 l0 -144 l138 0 l0 -121 l-138 0 Z" /><glyph glyph-name="dcroat" unicode="&#x111;" d="M435 559 l-122 0 l0 73 l122 0 l0 68 l141 0 l0 -68 l94 0 l0 -73 l-94 0 l0 -559 l-141 0 l0 61 q-56 -74 -164 -74 q-101 0 -169 75 q-66 76 -66 188 q0 111 66 186 q67 76 169 76 q105 0 164 -74 l0 121 ZM311 110 q40 0 73 21 q33 21 51 54 l0 130 q-18 33 -51 53.5 q-33 20.5 -73 20.5 q-60 0 -97 -40 q-38 -41 -38 -99 q0 -59 38 -100 q37 -40 97 -40 Z" /><glyph glyph-name="Emacron" unicode="&#x112;" d="M602 0 l-525 0 l0 700 l514 0 l0 -129 l-370 0 l0 -135 l298 0 l0 -127 l-298 0 l0 -180 l381 0 l0 -129 ZM491 785 l-306 0 l0 95 l306 0 l0 -95 Z" /><glyph glyph-name="emacron" unicode="&#x113;" d="M313 -13 q-117 0 -197 72 q-80 72 -80 191 q0 111 72 186 q72 76 188 76 q108 0 173 -77 q65 -77 65 -187 l0 -37 l-358 0 q11 -50 55.5 -77 q44.5 -27 111.5 -27 q83 0 160 44 l0 -113 q-67 -51 -190 -51 ZM176 301 l219 0 q-2 43 -30.5 71.5 q-28.5 28.5 -74.5 28.5 q-47 0 -78 -27.5 q-31 -27.5 -36 -72.5 ZM442 595 l-307 0 l0 95 l307 0 l0 -95 Z" /><glyph glyph-name="Ebreve" unicode="&#x114;" d="M602 0 l-525 0 l0 700 l514 0 l0 -129 l-370 0 l0 -135 l298 0 l0 -127 l-298 0 l0 -180 l381 0 l0 -129 ZM173 909 l95 0 q2 -33 21 -53 q19 -20 49 -20 q30 0 49 20 q19 20 21 53 l95 0 q-2 -75 -50 -119 q-47 -44 -115 -44 q-67 0 -116 44 q-48 44 -49 119 Z" /><glyph glyph-name="ebreve" unicode="&#x115;" d="M313 -13 q-117 0 -197 72 q-80 72 -80 191 q0 111 72 186 q72 76 188 76 q108 0 173 -77 q65 -77 65 -187 l0 -37 l-358 0 q11 -50 55.5 -77 q44.5 -27 111.5 -27 q83 0 160 44 l0 -113 q-67 -51 -190 -51 ZM176 301 l219 0 q-2 43 -30.5 71.5 q-28.5 28.5 -74.5 28.5 q-47 0 -78 -27.5 q-31 -27.5 -36 -72.5 ZM288 561 q-70 0 -116.5 44.5 q-46.5 44.5 -49.5 117.5 l96 0 q2 -33 21 -53 q19 -20 49 -20 q30 0 48.5 20 q18.5 20 20.5 53 l95 0 q-2 -74 -49 -118 q-47 -44 -115 -44 Z" /><glyph glyph-name="Edotaccent" unicode="&#x116;" d="M602 0 l-525 0 l0 700 l514 0 l0 -129 l-370 0 l0 -135 l298 0 l0 -127 l-298 0 l0 -180 l381 0 l0 -129 ZM338 760 q-30 0 -52 21.5 q-22 21.5 -22 52.5 q0 30 22 51.5 q22 21.5 52 21.5 q31 0 52.5 -21.5 q21.5 -21.5 21.5 -51.5 q0 -31 -21.5 -52.5 q-21.5 -21.5 -52.5 -21.5 Z" /><glyph glyph-name="edotaccent" unicode="&#x117;" d="M313 -13 q-117 0 -197 72 q-80 72 -80 191 q0 111 72 186 q72 76 188 76 q108 0 173 -77 q65 -77 65 -187 l0 -37 l-358 0 q11 -50 55.5 -77 q44.5 -27 111.5 -27 q83 0 160 44 l0 -113 q-67 -51 -190 -51 ZM176 301 l219 0 q-2 43 -30.5 71.5 q-28.5 28.5 -74.5 28.5 q-47 0 -78 -27.5 q-31 -27.5 -36 -72.5 ZM288 569 q-30 0 -52 21.5 q-22 21.5 -22 52.5 q0 30 22 51.5 q22 21.5 52 21.5 q31 0 52 -21 q21 -21 21 -52 q0 -31 -21 -52.5 q-21 -21.5 -52 -21.5 Z" /><glyph glyph-name="Eogonek" unicode="&#x118;" d="M514 0 l-437 0 l0 700 l514 0 l0 -129 l-370 0 l0 -135 l298 0 l0 -127 l-298 0 l0 -180 l381 0 l0 -129 q-35 -35 -35 -70 q0 -22 14.5 -34.5 q14.5 -12.5 39.5 -12.5 q23 0 36 7 l0 -84 q-22 -8 -60 -8 q-59 0 -93.5 29 q-34.5 29 -34.5 74 q0 54 45 99 Z" /><glyph glyph-name="eogonek" unicode="&#x119;" d="M498 -164 q-59 0 -93.5 29 q-34.5 29 -34.5 74 q0 27 12 54 q-33 -6 -69 -6 q-117 0 -197 72 q-80 72 -80 191 q0 111 72 186 q72 76 188 76 q108 0 173 -77 q65 -77 65 -187 l0 -37 l-358 0 q11 -50 55.5 -77 q44.5 -27 111.5 -27 q83 0 160 44 l0 -113 q-35 -35 -35 -70 q0 -22 14.5 -34.5 q14.5 -12.5 39.5 -12.5 q23 0 36 7 l0 -84 q-22 -8 -60 -8 ZM176 301 l219 0 q-2 43 -30.5 71.5 q-28.5 28.5 -74.5 28.5 q-47 0 -78 -27.5 q-31 -27.5 -36 -72.5 Z" /><glyph glyph-name="Ecaron" unicode="&#x11a;" d="M602 0 l-525 0 l0 700 l514 0 l0 -129 l-370 0 l0 -135 l298 0 l0 -127 l-298 0 l0 -180 l381 0 l0 -129 ZM406 907 l122 0 l-122 -146 l-136 0 l-119 146 l123 0 l67 -78 l65 78 Z" /><glyph glyph-name="ecaron" unicode="&#x11b;" d="M313 -13 q-117 0 -197 72 q-80 72 -80 191 q0 111 72 186 q72 76 188 76 q108 0 173 -77 q65 -77 65 -187 l0 -37 l-358 0 q11 -50 55.5 -77 q44.5 -27 111.5 -27 q83 0 160 44 l0 -113 q-67 -51 -190 -51 ZM176 301 l219 0 q-2 43 -30.5 71.5 q-28.5 28.5 -74.5 28.5 q-47 0 -78 -27.5 q-31 -27.5 -36 -72.5 ZM354 716 l122 0 l-122 -146 l-136 0 l-120 146 l124 0 l66 -78 l66 78 Z" /><glyph glyph-name="Gcircumflex" unicode="&#x11c;" d="M426 -14 q-160 0 -266 102 q-107 104 -107 262 q0 160 107 262 q106 102 271 102 q121 0 210 -53 l0 -142 q-97 60 -200 60 q-107 0 -174 -64 q-67 -63 -67 -168 q0 -104 65 -166 q65 -62 161 -62 q92 0 141 46 l0 241 l144 0 l0 -309 q-45 -48 -120 -79 q-78 -32 -165 -32 ZM334 762 l-122 0 l122 145 l136 0 l119 -145 l-123 0 l-67 77 l-65 -77 Z" /><glyph glyph-name="gcircumflex" unicode="&#x11d;" d="M433 441 l0 58 l141 0 l0 -441 q0 -128 -86 -196 q-86 -68 -203 -68 q-123 0 -196 43 l0 127 q79 -48 181 -48 q31 0 58 6.5 q27 6.5 52 21 q25 14.5 39 42 q14 27.5 14 65.5 l0 31 q-59 -71 -165 -71 q-102 0 -167 72 q-65 73 -65 179 q0 105 65 178 q65 72 167 72 q106 0 165 -71 ZM309 133 q40 0 73 19 q33 19 51 49 l0 120 q-18 30 -51 49 q-33 19 -73 19 q-59 0 -95.5 -36.5 q-36.5 -36.5 -36.5 -91.5 q0 -55 37.5 -91.5 q37.5 -36.5 94.5 -36.5 ZM245 570 l-121 0 l122 146 l136 0 l119 -146 l-124 0 l-66 78 l-66 -78 Z" /><glyph glyph-name="Gbreve" unicode="&#x11e;" d="M426 -14 q-160 0 -266 102 q-107 104 -107 262 q0 160 107 262 q106 102 271 102 q121 0 210 -53 l0 -142 q-97 60 -200 60 q-107 0 -174 -64 q-67 -63 -67 -168 q0 -104 65 -166 q65 -62 161 -62 q92 0 141 46 l0 241 l144 0 l0 -309 q-45 -48 -120 -79 q-78 -32 -165 -32 ZM247 921 l95 0 q2 -33 21 -53 q19 -20 49 -20 q30 0 49 20 q19 20 21 53 l95 0 q-2 -75 -50 -119 q-47 -44 -115 -44 q-67 0 -116 44 q-48 44 -49 119 Z" /><glyph glyph-name="gbreve" unicode="&#x11f;" d="M433 441 l0 58 l141 0 l0 -441 q0 -128 -86 -196 q-86 -68 -203 -68 q-123 0 -196 43 l0 127 q79 -48 181 -48 q31 0 58 6.5 q27 6.5 52 21 q25 14.5 39 42 q14 27.5 14 65.5 l0 31 q-59 -71 -165 -71 q-102 0 -167 72 q-65 73 -65 179 q0 105 65 178 q65 72 167 72 q106 0 165 -71 ZM309 133 q40 0 73 19 q33 19 51 49 l0 120 q-18 30 -51 49 q-33 19 -73 19 q-59 0 -95.5 -36.5 q-36.5 -36.5 -36.5 -91.5 q0 -55 37.5 -91.5 q37.5 -36.5 94.5 -36.5 ZM307 561 q-70 0 -116.5 44.5 q-46.5 44.5 -49.5 117.5 l96 0 q2 -33 21 -53 q19 -20 49 -20 q30 0 48.5 20 q18.5 20 20.5 53 l95 0 q-2 -74 -49 -118 q-47 -44 -115 -44 Z" /><glyph glyph-name="Gdotaccent" unicode="&#x120;" d="M426 -14 q-160 0 -266 102 q-107 104 -107 262 q0 160 107 262 q106 102 271 102 q121 0 210 -53 l0 -142 q-97 60 -200 60 q-107 0 -174 -64 q-67 -63 -67 -168 q0 -104 65 -166 q65 -62 161 -62 q92 0 141 46 l0 241 l144 0 l0 -309 q-45 -48 -120 -79 q-78 -32 -165 -32 ZM414 760 q-30 0 -52 21.5 q-22 21.5 -22 52.5 q0 30 22 51.5 q22 21.5 52 21.5 q31 0 52.5 -21.5 q21.5 -21.5 21.5 -51.5 q0 -31 -21.5 -52.5 q-21.5 -21.5 -52.5 -21.5 Z" /><glyph glyph-name="gdotaccent" unicode="&#x121;" d="M433 441 l0 58 l141 0 l0 -441 q0 -128 -86 -196 q-86 -68 -203 -68 q-123 0 -196 43 l0 127 q79 -48 181 -48 q31 0 58 6.5 q27 6.5 52 21 q25 14.5 39 42 q14 27.5 14 65.5 l0 31 q-59 -71 -165 -71 q-102 0 -167 72 q-65 73 -65 179 q0 105 65 178 q65 72 167 72 q106 0 165 -71 ZM309 133 q40 0 73 19 q33 19 51 49 l0 120 q-18 30 -51 49 q-33 19 -73 19 q-59 0 -95.5 -36.5 q-36.5 -36.5 -36.5 -91.5 q0 -55 37.5 -91.5 q37.5 -36.5 94.5 -36.5 ZM309 569 q-30 0 -52 21.5 q-22 21.5 -22 52.5 q0 30 22 51.5 q22 21.5 52 21.5 q31 0 52 -21 q21 -21 21 -52 q0 -31 -21 -52.5 q-21 -21.5 -52 -21.5 Z" /><glyph glyph-name="uni0122" unicode="&#x122;" d="M426 -14 q-160 0 -266 102 q-107 104 -107 262 q0 160 107 262 q106 102 271 102 q121 0 210 -53 l0 -142 q-97 60 -200 60 q-107 0 -174 -64 q-67 -63 -67 -168 q0 -104 65 -166 q65 -62 161 -62 q92 0 141 46 l0 241 l144 0 l0 -309 q-45 -48 -120 -79 q-78 -32 -165 -32 ZM417 -270 l-105 0 l59 204 l130 0 l-84 -204 Z" /><glyph glyph-name="uni0123" unicode="&#x123;" d="M433 441 l0 58 l141 0 l0 -441 q0 -128 -86 -196 q-86 -68 -203 -68 q-123 0 -196 43 l0 127 q79 -48 181 -48 q31 0 58 6.5 q27 6.5 52 21 q25 14.5 39 42 q14 27.5 14 65.5 l0 31 q-59 -71 -165 -71 q-102 0 -167 72 q-65 73 -65 179 q0 105 65 178 q65 72 167 72 q106 0 165 -71 ZM309 133 q40 0 73 19 q33 19 51 49 l0 120 q-18 30 -51 49 q-33 19 -73 19 q-59 0 -95.5 -36.5 q-36.5 -36.5 -36.5 -91.5 q0 -55 37.5 -91.5 q37.5 -36.5 94.5 -36.5 ZM327 778 l105 0 l-59 -204 l-130 0 l84 204 Z" /><glyph glyph-name="Hcircumflex" unicode="&#x124;" d="M221 0 l-144 0 l0 700 l144 0 l0 -262 l316 0 l0 262 l143 0 l0 -700 l-143 0 l0 307 l-316 0 l0 -307 ZM312 762 l-122 0 l122 145 l136 0 l119 -145 l-123 0 l-67 77 l-65 -77 Z" /><glyph glyph-name="hcircumflex" unicode="&#x125;" d="M61 0 l0 700 l141 0 l0 -262 q68 74 167 74 q86 0 134 -54.5 q48 -54.5 48 -151.5 l0 -306 l-141 0 l0 277 q0 54 -26.5 80 q-26.5 26 -68.5 26 q-32 0 -63.5 -18.5 q-31.5 -18.5 -49.5 -46.5 l0 -318 l-141 0 ZM67 762 l-122 0 l122 145 l136 0 l119 -145 l-123 0 l-67 77 l-65 -77 Z" /><glyph glyph-name="Hbar" unicode="&#x126;" d="M261 0 l-143 0 l0 518 l-72 0 l0 93 l72 0 l0 89 l143 0 l0 -89 l317 0 l0 89 l143 0 l0 -89 l71 0 l0 -93 l-71 0 l0 -518 l-143 0 l0 307 l-317 0 l0 -307 ZM261 518 l0 -80 l317 0 l0 80 l-317 0 Z" /><glyph glyph-name="hbar" unicode="&#x127;" d="M257 247 l0 -247 l-141 0 l0 518 l-102 0 l0 93 l102 0 l0 89 l141 0 l0 -89 l160 0 l0 -93 l-160 0 l0 -151 q68 74 167 74 q86 0 134 -54.5 q48 -54.5 48 -151.5 l0 -235 l-141 0 l0 206 q0 54 -26.5 80 q-26.5 26 -68.5 26 q-32 0 -63.5 -18.5 q-31.5 -18.5 -49.5 -46.5 Z" /><glyph glyph-name="Itilde" unicode="&#x128;" d="M48 765 l-77 0 q1 60 32.5 100 q31.5 40 81.5 40 q31 0 71 -22 q40 -22 61 -22 q34 0 43 41 l76 0 q0 -55 -32 -99 q-32 -42 -81 -42 q-32 0 -72 22 q-41 23 -61 23 q-34 0 -42 -41 ZM225 0 l-143 0 l0 700 l143 0 l0 -700 Z" /><glyph glyph-name="itilde" unicode="&#x129;" d="M27 576 l-76 0 q0 58 32 99 q32 41 81 41 q31 0 71 -22 q41 -22 62 -22 q34 0 42 41 l77 0 q-2 -55 -33 -99 q-31 -42 -80 -42 q-32 0 -72 22 q-41 23 -61 23 q-34 0 -43 -41 ZM204 0 l-141 0 l0 499 l141 0 l0 -499 Z" /><glyph glyph-name="Imacron" unicode="&#x12a;" d="M306 785 l-306 0 l0 95 l306 0 l0 -95 ZM225 0 l-143 0 l0 700 l143 0 l0 -700 Z" /><glyph glyph-name="imacron" unicode="&#x12b;" d="M204 0 l-141 0 l0 499 l141 0 l0 -499 ZM287 595 l-307 0 l0 95 l307 0 l0 -95 Z" /><glyph glyph-name="Ibreve" unicode="&#x12c;" d="M-12 909 l95 0 q2 -33 21 -53 q19 -20 49 -20 q30 0 49 20 q19 20 21 53 l95 0 q-2 -75 -50 -119 q-47 -44 -115 -44 q-67 0 -116 44 q-48 44 -49 119 ZM225 0 l-143 0 l0 700 l143 0 l0 -700 Z" /><glyph glyph-name="ibreve" unicode="&#x12d;" d="M133 561 q-70 0 -116.5 44.5 q-46.5 44.5 -49.5 117.5 l96 0 q2 -33 21 -53 q19 -20 49 -20 q30 0 48.5 20 q18.5 20 20.5 53 l95 0 q-2 -74 -49 -118 q-47 -44 -115 -44 ZM204 0 l-141 0 l0 499 l141 0 l0 -499 Z" /><glyph glyph-name="Iogonek" unicode="&#x12e;" d="M137 0 l-55 0 l0 700 l143 0 l0 -700 q-35 -35 -35 -70 q0 -22 14.5 -34.5 q14.5 -12.5 39.5 -12.5 q23 0 36 7 l0 -84 q-22 -8 -60 -8 q-59 0 -93.5 29 q-34.5 29 -34.5 74 q0 54 45 99 Z" /><glyph glyph-name="iogonek" unicode="&#x12f;" d="M129 0 l-53 0 l0 499 l141 0 l0 -499 q-35 -35 -35 -70 q0 -22 14.5 -34.5 q14.5 -12.5 39.5 -12.5 q23 0 36 7 l0 -84 q-22 -8 -60 -8 q-59 0 -93.5 29 q-34.5 29 -34.5 74 q0 54 45 99 ZM62 631 q0 36 24.5 60.5 q24.5 24.5 59.5 24.5 q35 0 59.5 -24.5 q24.5 -24.5 24.5 -60.5 q0 -35 -24.5 -59.5 q-24.5 -24.5 -59.5 -24.5 q-35 0 -59.5 24.5 q-24.5 24.5 -24.5 59.5 Z" /><glyph glyph-name="Idotaccent" unicode="&#x130;" d="M154 760 q-30 0 -52 21.5 q-22 21.5 -22 52.5 q0 30 22 51.5 q22 21.5 52 21.5 q31 0 52.5 -21.5 q21.5 -21.5 21.5 -51.5 q0 -31 -21.5 -52.5 q-21.5 -21.5 -52.5 -21.5 ZM225 0 l-143 0 l0 700 l143 0 l0 -700 Z" /><glyph glyph-name="dotlessi" unicode="&#x131;" d="M204 0 l-141 0 l0 499 l141 0 l0 -499 Z" /><glyph glyph-name="IJ" unicode="&#x132;" d="M225 270 l-143 0 l0 430 l143 0 l0 -430 ZM482 46 q-80 -60 -206 -60 q-126 0 -194 43 l0 143 q76 -51 171 -51 q84 0 124.5 33.5 q40.5 33.5 40.5 107.5 l0 438 l143 0 l0 -459 q0 -135 -79 -195 Z" /><glyph glyph-name="ij" unicode="&#x133;" d="M317 -206 q-74 0 -111 22 l0 120 q35 -19 75 -19 q76 0 76 79 l0 503 l141 0 l0 -517 q0 -89 -48.5 -138.5 q-48.5 -49.5 -132.5 -49.5 ZM342 631 q0 36 24.5 60.5 q24.5 24.5 59.5 24.5 q35 0 60 -24.5 q25 -24.5 25 -60.5 q0 -35 -25 -59.5 q-25 -24.5 -60 -24.5 q-35 0 -59.5 24.5 q-24.5 24.5 -24.5 59.5 ZM217 0 l-141 0 l0 499 l141 0 l0 -499 ZM62 631 q0 36 24.5 60.5 q24.5 24.5 59.5 24.5 q35 0 59.5 -24.5 q24.5 -24.5 24.5 -60.5 q0 -35 -24.5 -59.5 q-24.5 -24.5 -59.5 -24.5 q-35 0 -59.5 24.5 q-24.5 24.5 -24.5 59.5 Z" /><glyph glyph-name="Jcircumflex" unicode="&#x134;" d="M184 -14 q-109 0 -168 41 l0 142 q60 -48 138 -48 q68 0 100.5 31.5 q32.5 31.5 32.5 101.5 l0 446 l143 0 l0 -470 q0 -67 -19.5 -116 q-19.5 -49 -54.5 -76 q-35 -27 -77.5 -39.5 q-42.5 -12.5 -94.5 -12.5 ZM291 762 l-122 0 l122 145 l136 0 l119 -145 l-123 0 l-67 77 l-65 -77 Z" /><glyph glyph-name="jcircumflex" unicode="&#x135;" d="M36 -206 q-74 0 -111 22 l0 119 q35 -19 75 -19 q76 0 76 79 l0 504 l141 0 l0 -517 q0 -89 -48.5 -138.5 q-48.5 -49.5 -132.5 -49.5 ZM80 576 l-121 0 l122 146 l136 0 l119 -146 l-124 0 l-66 78 l-66 -78 Z" /><glyph glyph-name="uni0136" unicode="&#x136;" d="M221 0 l-144 0 l0 700 l144 0 l0 -276 l258 276 l176 0 l-297 -321 l348 -379 l-184 0 l-301 323 l0 -323 ZM363 -270 l-105 0 l59 204 l130 0 l-84 -204 Z" /><glyph glyph-name="uni0137" unicode="&#x137;" d="M202 0 l-141 0 l0 700 l141 0 l0 -383 l172 182 l173 0 l-217 -225 l251 -274 l-182 0 l-197 215 l0 -215 ZM301 -270 l-105 0 l59 204 l130 0 l-84 -204 Z" /><glyph glyph-name="kgreenlandic" unicode="&#x138;" d="M210 0 l-141 0 l0 499 l141 0 l0 -182 l172 182 l173 0 l-217 -225 l251 -274 l-182 0 l-197 215 l0 -215 Z" /><glyph glyph-name="Lacute" unicode="&#x139;" d="M576 0 l-499 0 l0 700 l144 0 l0 -571 l355 0 l0 -129 ZM211 761 l-122 0 l95 146 l170 0 l-143 -146 Z" /><glyph glyph-name="lacute" unicode="&#x13a;" d="M193 -13 q-62 0 -97.5 33.5 q-35.5 33.5 -35.5 104.5 l0 575 l141 0 l0 -538 q0 -50 45 -50 q21 0 36 9 l0 -116 q-36 -18 -89 -18 ZM194 761 l-122 0 l95 146 l170 0 l-143 -146 Z" /><glyph glyph-name="uni013B" unicode="&#x13b;" d="M576 0 l-499 0 l0 700 l144 0 l0 -571 l355 0 l0 -129 ZM334 -270 l-105 0 l59 204 l130 0 l-84 -204 Z" /><glyph glyph-name="lcommaaccent" unicode="&#x13c;" d="M202 -13 q-62 0 -97.5 33.5 q-35.5 33.5 -35.5 104.5 l0 575 l141 0 l0 -538 q0 -50 45 -50 q21 0 36 9 l0 -116 q-36 -18 -89 -18 ZM186 -270 l-105 0 l59 204 l130 0 l-84 -204 Z" /><glyph glyph-name="Lcaron" unicode="&#x13d;" d="M576 0 l-499 0 l0 700 l144 0 l0 -571 l355 0 l0 -129 ZM487 496 l-105 0 l59 204 l130 0 l-84 -204 Z" /><glyph glyph-name="lcaron" unicode="&#x13e;" d="M186 -13 q-62 0 -97.5 33.5 q-35.5 33.5 -35.5 104.5 l0 575 l141 0 l0 -538 q0 -50 45 -50 q21 0 36 9 l0 -116 q-36 -18 -89 -18 ZM358 496 l-105 0 l59 204 l130 0 l-84 -204 Z" /><glyph glyph-name="Ldot" unicode="&#x13f;" d="M489 298 q-37 0 -62 25.5 q-25 25.5 -25 62.5 q0 36 25 61 q25 25 62 25 q36 0 61.5 -25 q25.5 -25 25.5 -61 q0 -37 -25.5 -62.5 q-25.5 -25.5 -61.5 -25.5 ZM576 0 l-499 0 l0 700 l144 0 l0 -571 l355 0 l0 -129 Z" /><glyph glyph-name="ldot" unicode="&#x140;" d="M195 -13 q-62 0 -97.5 33.5 q-35.5 33.5 -35.5 104.5 l0 575 l141 0 l0 -538 q0 -50 45 -50 q21 0 36 9 l0 -116 q-36 -18 -89 -18 ZM351 298 q-37 0 -62 25.5 q-25 25.5 -25 62.5 q0 36 25 61 q25 25 62 25 q36 0 61.5 -25 q25.5 -25 25.5 -61 q0 -37 -25.5 -62.5 q-25.5 -25.5 -61.5 -25.5 Z" /><glyph glyph-name="Lslash" unicode="&#x141;" d="M108 279 l-97 -62 l0 124 l97 62 l0 297 l144 0 l0 -204 l146 95 l0 -124 l-146 -95 l0 -243 l355 0 l0 -129 l-499 0 l0 279 Z" /><glyph glyph-name="lslash" unicode="&#x142;" d="M118 266 l-102 -66 l0 124 l102 66 l0 310 l141 0 l0 -219 l103 67 l0 -124 l-103 -67 l0 -195 q0 -50 45 -50 q21 0 36 9 l0 -116 q-36 -18 -89 -18 q-62 0 -97.5 33.5 q-35.5 33.5 -35.5 104.5 l0 141 Z" /><glyph glyph-name="Nacute" unicode="&#x143;" d="M218 0 l-141 0 l0 700 l123 0 l353 -448 l0 448 l140 0 l0 -700 l-119 0 l-356 450 l0 -450 ZM439 761 l-122 0 l95 146 l170 0 l-143 -146 Z" /><glyph glyph-name="nacute" unicode="&#x144;" d="M210 318 l0 -318 l-141 0 l0 499 l141 0 l0 -60 q67 73 167 73 q86 0 134 -54.5 q48 -54.5 48 -151.5 l0 -306 l-141 0 l0 277 q0 54 -26.5 80 q-26.5 26 -68.5 26 q-32 0 -63.5 -18.5 q-31.5 -18.5 -49.5 -46.5 ZM345 570 l-122 0 l95 146 l170 0 l-143 -146 Z" /><glyph glyph-name="uni0145" unicode="&#x145;" d="M218 0 l-141 0 l0 700 l123 0 l353 -448 l0 448 l140 0 l0 -700 l-119 0 l-356 450 l0 -450 ZM401 -270 l-105 0 l59 204 l130 0 l-84 -204 Z" /><glyph glyph-name="uni0146" unicode="&#x146;" d="M210 318 l0 -318 l-141 0 l0 499 l141 0 l0 -60 q67 73 167 73 q86 0 134 -54.5 q48 -54.5 48 -151.5 l0 -306 l-141 0 l0 277 q0 54 -26.5 80 q-26.5 26 -68.5 26 q-32 0 -63.5 -18.5 q-31.5 -18.5 -49.5 -46.5 ZM304 -270 l-105 0 l59 204 l130 0 l-84 -204 Z" /><glyph glyph-name="Ncaron" unicode="&#x147;" d="M218 0 l-141 0 l0 700 l123 0 l353 -448 l0 448 l140 0 l0 -700 l-119 0 l-356 450 l0 -450 ZM452 907 l122 0 l-122 -146 l-136 0 l-119 146 l123 0 l67 -78 l65 78 Z" /><glyph glyph-name="ncaron" unicode="&#x148;" d="M210 318 l0 -318 l-141 0 l0 499 l141 0 l0 -60 q67 73 167 73 q86 0 134 -54.5 q48 -54.5 48 -151.5 l0 -306 l-141 0 l0 277 q0 54 -26.5 80 q-26.5 26 -68.5 26 q-32 0 -63.5 -18.5 q-31.5 -18.5 -49.5 -46.5 ZM381 716 l122 0 l-122 -146 l-136 0 l-120 146 l124 0 l66 -78 l66 78 Z" /><glyph glyph-name="napostrophe" unicode="&#x149;" d="M351 318 l0 -318 l-141 0 l0 499 l141 0 l0 -60 q67 73 167 73 q86 0 134 -54.5 q48 -54.5 48 -151.5 l0 -306 l-141 0 l0 277 q0 54 -26.5 80 q-26.5 26 -68.5 26 q-32 0 -63.5 -18.5 q-31.5 -18.5 -49.5 -46.5 ZM119 496 l-105 0 l59 204 l130 0 l-84 -204 Z" /><glyph glyph-name="Eng" unicode="&#x14a;" d="M218 0 l-141 0 l0 700 l123 0 l353 -448 l0 448 l140 0 l0 -702 q0 -97 -51 -150.5 q-51 -53.5 -142 -53.5 q-76 0 -120 23 l0 125 q37 -22 84 -22 q87 0 87 90 l0 19 l-333 421 l0 -450 Z" /><glyph glyph-name="eng" unicode="&#x14b;" d="M378 -206 q-74 0 -111 22 l0 120 q35 -19 75 -19 q76 0 76 79 l0 281 q0 54 -26.5 80 q-26.5 26 -68.5 26 q-32 0 -63.5 -18.5 q-31.5 -18.5 -49.5 -46.5 l0 -318 l-141 0 l0 499 l141 0 l0 -60 q67 73 167 73 q86 0 134 -54.5 q48 -54.5 48 -151.5 l0 -324 q0 -89 -48.5 -138.5 q-48.5 -49.5 -132.5 -49.5 Z" /><glyph glyph-name="Omacron" unicode="&#x14c;" d="M261 186 q62 -65 155 -65 q92 0 154 65 q62 65 62 164 q0 99 -62 164 q-62 65 -154 65 q-93 0 -155 -65 q-61 -64 -61 -164 q0 -100 61 -164 ZM53 350 q0 154 103 258 q103 106 260 106 q156 0 259 -106 q104 -106 104 -258 q0 -151 -104 -258 q-103 -106 -259 -106 q-157 0 -260 106 q-103 106 -103 258 ZM569 785 l-306 0 l0 95 l306 0 l0 -95 Z" /><glyph glyph-name="omacron" unicode="&#x14d;" d="M175 250 q0 -60 39 -100 q39 -40 99 -40 q60 0 99 40 q39 41 39 100 q0 60 -39 99 q-39 40 -99 40 q-60 0 -99 -40 q-39 -39 -39 -99 ZM36 250 q0 111 78 186 q77 76 199 76 q122 0 199 -76 q78 -76 78 -186 q0 -112 -78 -188 q-78 -75 -199 -75 q-121 0 -199 75 q-78 76 -78 188 ZM467 595 l-307 0 l0 95 l307 0 l0 -95 Z" /><glyph glyph-name="Obreve" unicode="&#x14e;" d="M261 186 q62 -65 155 -65 q92 0 154 65 q62 65 62 164 q0 99 -62 164 q-62 65 -154 65 q-93 0 -155 -65 q-61 -64 -61 -164 q0 -100 61 -164 ZM53 350 q0 154 103 258 q103 106 260 106 q156 0 259 -106 q104 -106 104 -258 q0 -151 -104 -258 q-103 -106 -259 -106 q-157 0 -260 106 q-103 106 -103 258 ZM251 921 l95 0 q2 -33 21 -53 q19 -20 49 -20 q30 0 49 20 q19 20 21 53 l95 0 q-2 -75 -50 -119 q-47 -44 -115 -44 q-67 0 -116 44 q-48 44 -49 119 Z" /><glyph glyph-name="obreve" unicode="&#x14f;" d="M175 250 q0 -60 39 -100 q39 -40 99 -40 q60 0 99 40 q39 41 39 100 q0 60 -39 99 q-39 40 -99 40 q-60 0 -99 -40 q-39 -39 -39 -99 ZM36 250 q0 111 78 186 q77 76 199 76 q122 0 199 -76 q78 -76 78 -186 q0 -112 -78 -188 q-78 -75 -199 -75 q-121 0 -199 75 q-78 76 -78 188 ZM313 568 q-70 0 -116.5 44.5 q-46.5 44.5 -49.5 117.5 l96 0 q2 -33 21 -53 q19 -20 49 -20 q30 0 48.5 20 q18.5 20 20.5 53 l95 0 q-2 -74 -49 -118 q-47 -44 -115 -44 Z" /><glyph glyph-name="Ohungarumlaut" unicode="&#x150;" d="M261 186 q62 -65 155 -65 q92 0 154 65 q62 65 62 164 q0 99 -62 164 q-62 65 -154 65 q-93 0 -155 -65 q-61 -64 -61 -164 q0 -100 61 -164 ZM53 350 q0 154 103 258 q103 106 260 106 q156 0 259 -106 q104 -106 104 -258 q0 -151 -104 -258 q-103 -106 -259 -106 q-157 0 -260 106 q-103 106 -103 258 ZM600 761 l-123 0 l95 146 l172 0 l-144 -146 ZM372 761 l-123 0 l95 146 l172 0 l-144 -146 Z" /><glyph glyph-name="ohungarumlaut" unicode="&#x151;" d="M175 250 q0 -60 39 -100 q39 -40 99 -40 q60 0 99 40 q39 41 39 100 q0 60 -39 99 q-39 40 -99 40 q-60 0 -99 -40 q-39 -39 -39 -99 ZM36 250 q0 111 78 186 q77 76 199 76 q122 0 199 -76 q78 -76 78 -186 q0 -112 -78 -188 q-78 -75 -199 -75 q-121 0 -199 75 q-78 76 -78 188 ZM484 570 l-123 0 l95 146 l172 0 l-144 -146 ZM256 570 l-123 0 l95 146 l172 0 l-144 -146 Z" /><glyph glyph-name="OE" unicode="&#x152;" d="M1041 0 l-604 0 q-171 0 -277 97 q-107 98 -107 253 q0 154 107 252 q107 98 277 98 l593 0 l0 -129 l-363 0 l0 -135 l291 0 l0 -127 l-291 0 l0 -180 l374 0 l0 -129 ZM449 129 l74 0 l0 442 l-74 0 q-118 0 -183 -58.5 q-65 -58.5 -65 -162.5 q0 -104 65 -162.5 q65 -58.5 183 -58.5 Z" /><glyph glyph-name="oe" unicode="&#x153;" d="M940 248 l0 -37 l-358 0 q11 -50 55.5 -77 q44.5 -27 111.5 -27 q83 0 160 44 l0 -113 q-67 -51 -194 -51 q-125 0 -201 81 q-80 -81 -204 -81 q-119 0 -196 76 q-78 77 -78 187 q0 111 78 186 q77 76 199 76 q121 0 201 -84 q74 84 185 84 q111 0 176 -77 q65 -77 65 -187 ZM175 250 q0 -60 39 -100 q39 -40 99 -40 q60 0 99 40 q39 41 39 100 q0 60 -39 100 q-39 40 -99 40 q-60 0 -99 -40 q-39 -40 -39 -100 ZM582 301 l219 0 q-2 43 -30.5 71.5 q-28.5 28.5 -74.5 28.5 q-47 0 -78 -27.5 q-31 -27.5 -36 -72.5 Z" /><glyph glyph-name="Racute" unicode="&#x154;" d="M221 0 l-144 0 l0 700 l324 0 q112 0 176 -58 q65 -57 65 -149 q0 -70 -38.5 -121.5 q-38.5 -51.5 -106.5 -72.5 l216 -299 l-167 0 l-204 283 l-121 0 l0 -283 ZM221 574 l0 -170 l172 0 q49 0 76.5 22 q27.5 22 27.5 63 q0 40 -27.5 62.5 q-27.5 22.5 -76.5 22.5 l-172 0 ZM352 761 l-122 0 l95 146 l170 0 l-143 -146 Z" /><glyph glyph-name="racute" unicode="&#x155;" d="M210 0 l-141 0 l0 499 l141 0 l0 -84 q23 40 70 68 q49 29 104 29 q12 0 16 -1 l0 -138 q-20 5 -44 5 q-49 0 -89.5 -25.5 q-40.5 -25.5 -56.5 -61.5 l0 -291 ZM254 570 l-122 0 l95 146 l170 0 l-143 -146 Z" /><glyph glyph-name="uni0156" unicode="&#x156;" d="M221 0 l-144 0 l0 700 l324 0 q112 0 176 -58 q65 -57 65 -149 q0 -70 -38.5 -121.5 q-38.5 -51.5 -106.5 -72.5 l216 -299 l-167 0 l-204 283 l-121 0 l0 -283 ZM221 574 l0 -170 l172 0 q49 0 76.5 22 q27.5 22 27.5 63 q0 40 -27.5 62.5 q-27.5 22.5 -76.5 22.5 l-172 0 ZM368 -270 l-105 0 l59 204 l130 0 l-84 -204 Z" /><glyph glyph-name="uni0157" unicode="&#x157;" d="M210 0 l-141 0 l0 499 l141 0 l0 -84 q23 40 70 68 q49 29 104 29 q12 0 16 -1 l0 -138 q-20 5 -44 5 q-49 0 -89.5 -25.5 q-40.5 -25.5 -56.5 -61.5 l0 -291 ZM122 -270 l-105 0 l59 204 l130 0 l-84 -204 Z" /><glyph glyph-name="Rcaron" unicode="&#x158;" d="M221 0 l-144 0 l0 700 l324 0 q112 0 176 -58 q65 -57 65 -149 q0 -70 -38.5 -121.5 q-38.5 -51.5 -106.5 -72.5 l216 -299 l-167 0 l-204 283 l-121 0 l0 -283 ZM221 574 l0 -170 l172 0 q49 0 76.5 22 q27.5 22 27.5 63 q0 40 -27.5 62.5 q-27.5 22.5 -76.5 22.5 l-172 0 ZM402 907 l122 0 l-122 -146 l-136 0 l-119 146 l123 0 l67 -78 l65 78 Z" /><glyph glyph-name="rcaron" unicode="&#x159;" d="M202 0 l-141 0 l0 499 l141 0 l0 -84 q23 40 70 68 q49 29 104 29 q12 0 16 -1 l0 -138 q-20 5 -44 5 q-49 0 -89.5 -25.5 q-40.5 -25.5 -56.5 -61.5 l0 -291 ZM285 716 l122 0 l-122 -146 l-136 0 l-120 146 l124 0 l66 -78 l66 78 Z" /><glyph glyph-name="Sacute" unicode="&#x15a;" d="M309 -14 q-158 0 -266 75 l0 150 q44 -38 116 -66 q73 -27 144 -27 q59 0 97 21.5 q38 21.5 38 59.5 q0 41 -36 58 q-15 9 -40 18 l-24 8 l-56 17 l-52 17 q-11 3 -47 17 q-31 12 -45 21 q-52 36 -66 61 q-24 48 -24 98 q0 93 71 146 q71 54 193 54 q123 0 229 -58 l0 -140 q-107 66 -227 66 q-119 0 -119 -69 q0 -30 37 -48 q22 -12 57 -21 q47 -13 76 -22 q87 -27 152 -73 q70 -49 70 -146 q0 -101 -79 -159 q-79 -58 -199 -58 ZM329 761 l-122 0 l95 146 l170 0 l-143 -146 Z" /><glyph glyph-name="sacute" unicode="&#x15b;" d="M253 -13 q-133 0 -210 47 l0 125 q36 -24 91.5 -40.5 q55.5 -16.5 112.5 -16.5 q86 0 86 42 q0 20 -25 31 q-13 6 -26 9 l-37 9 q-8 2 -21.5 5.5 q-13.5 3.5 -18.5 5.5 q-89 24 -125.5 57.5 q-36.5 33.5 -36.5 97.5 q0 71 58.5 112 q58.5 41 161.5 41 q114 0 187 -46 l0 -120 q-89 52 -181 52 q-80 0 -80 -40 q0 -8 4.5 -14.5 q4.5 -6.5 9 -9.5 q4.5 -3 14.5 -9 q6 -2 22 -6.5 q16 -4.5 21 -6.5 l53 -11 q83 -19 123 -56.5 q40 -37.5 40 -101.5 q0 -70 -61 -113 q-61 -43 -162 -43 ZM280 570 l-122 0 l95 146 l170 0 l-143 -146 Z" /><glyph glyph-name="Scircumflex" unicode="&#x15c;" d="M309 -14 q-158 0 -266 75 l0 150 q44 -38 116 -66 q73 -27 144 -27 q59 0 97 21.5 q38 21.5 38 59.5 q0 41 -36 58 q-15 9 -40 18 l-24 8 l-56 17 l-52 17 q-11 3 -47 17 q-31 12 -45 21 q-52 36 -66 61 q-24 48 -24 98 q0 93 71 146 q71 54 193 54 q123 0 229 -58 l0 -140 q-107 66 -227 66 q-119 0 -119 -69 q0 -30 37 -48 q22 -12 57 -21 q47 -13 76 -22 q87 -27 152 -73 q70 -49 70 -146 q0 -101 -79 -159 q-79 -58 -199 -58 ZM242 762 l-122 0 l122 145 l136 0 l119 -145 l-123 0 l-67 77 l-65 -77 Z" /><glyph glyph-name="scircumflex" unicode="&#x15d;" d="M253 -13 q-133 0 -210 47 l0 125 q36 -24 91.5 -40.5 q55.5 -16.5 112.5 -16.5 q86 0 86 42 q0 20 -25 31 q-13 6 -26 9 l-37 9 q-8 2 -21.5 5.5 q-13.5 3.5 -18.5 5.5 q-89 24 -125.5 57.5 q-36.5 33.5 -36.5 97.5 q0 71 58.5 112 q58.5 41 161.5 41 q114 0 187 -46 l0 -120 q-89 52 -181 52 q-80 0 -80 -40 q0 -8 4.5 -14.5 q4.5 -6.5 9 -9.5 q4.5 -3 14.5 -9 q6 -2 22 -6.5 q16 -4.5 21 -6.5 l53 -11 q83 -19 123 -56.5 q40 -37.5 40 -101.5 q0 -70 -61 -113 q-61 -43 -162 -43 ZM186 570 l-121 0 l122 146 l136 0 l119 -146 l-124 0 l-66 78 l-66 -78 Z" /><glyph glyph-name="Scedilla" unicode="&#x15e;" d="M326 -145 l-163 0 l100 133 q-130 10 -220 73 l0 150 q44 -38 116 -66 q73 -27 144 -27 q59 0 97 21.5 q38 21.5 38 59.5 q0 41 -36 58 q-15 9 -40 18 l-24 8 l-56 17 l-52 17 q-11 3 -47 17 q-31 12 -45 21 q-52 36 -66 61 q-24 48 -24 98 q0 93 71 146 q71 54 193 54 q123 0 229 -58 l0 -140 q-107 66 -227 66 q-119 0 -119 -69 q0 -30 37 -48 q22 -12 57 -21 q47 -13 76 -22 q87 -27 152 -73 q70 -49 70 -146 q0 -82 -54.5 -137 q-54.5 -55 -147.5 -73 l-59 -138 Z" /><glyph glyph-name="scedilla" unicode="&#x15f;" d="M263 -145 l-163 0 l100 134 q-100 9 -157 45 l0 125 q36 -24 91.5 -40.5 q55.5 -16.5 112.5 -16.5 q86 0 86 42 q0 20 -25 31 q-13 6 -26 9 l-37 9 q-8 2 -21.5 5.5 q-13.5 3.5 -18.5 5.5 q-89 24 -125.5 57.5 q-36.5 33.5 -36.5 97.5 q0 71 58.5 112 q58.5 41 161.5 41 q114 0 187 -46 l0 -120 q-89 52 -181 52 q-80 0 -80 -40 q0 -8 4.5 -14.5 q4.5 -6.5 9 -9.5 q4.5 -3 14.5 -9 q6 -2 22 -6.5 q16 -4.5 21 -6.5 l53 -11 q83 -19 123 -56.5 q40 -37.5 40 -101.5 q0 -57 -41 -97 q-41 -40 -113 -53 l-59 -138 Z" /><glyph glyph-name="Scaron" unicode="&#x160;" d="M309 -14 q-158 0 -266 75 l0 150 q44 -38 116 -66 q73 -27 144 -27 q59 0 97 21.5 q38 21.5 38 59.5 q0 41 -36 58 q-15 9 -40 18 l-24 8 l-56 17 l-52 17 q-11 3 -47 17 q-31 12 -45 21 q-52 36 -66 61 q-24 48 -24 98 q0 93 71 146 q71 54 193 54 q123 0 229 -58 l0 -140 q-107 66 -227 66 q-119 0 -119 -69 q0 -30 37 -48 q22 -12 57 -21 q47 -13 76 -22 q87 -27 152 -73 q70 -49 70 -146 q0 -101 -79 -159 q-79 -58 -199 -58 ZM372 907 l122 0 l-122 -146 l-136 0 l-119 146 l123 0 l67 -78 l65 78 Z" /><glyph glyph-name="scaron" unicode="&#x161;" d="M253 -13 q-133 0 -210 47 l0 125 q36 -24 91.5 -40.5 q55.5 -16.5 112.5 -16.5 q86 0 86 42 q0 20 -25 31 q-13 6 -26 9 l-37 9 q-8 2 -21.5 5.5 q-13.5 3.5 -18.5 5.5 q-89 24 -125.5 57.5 q-36.5 33.5 -36.5 97.5 q0 71 58.5 112 q58.5 41 161.5 41 q114 0 187 -46 l0 -120 q-89 52 -181 52 q-80 0 -80 -40 q0 -8 4.5 -14.5 q4.5 -6.5 9 -9.5 q4.5 -3 14.5 -9 q6 -2 22 -6.5 q16 -4.5 21 -6.5 l53 -11 q83 -19 123 -56.5 q40 -37.5 40 -101.5 q0 -70 -61 -113 q-61 -43 -162 -43 ZM327 716 l122 0 l-122 -146 l-136 0 l-120 146 l124 0 l66 -78 l66 78 Z" /><glyph glyph-name="uni0162" unicode="&#x162;" d="M318 -145 l-163 0 l108 145 l-12 0 l0 571 l-221 0 l0 129 l587 0 l0 -129 l-222 0 l0 -571 l-15 0 l-62 -145 Z" /><glyph glyph-name="uni0163" unicode="&#x163;" d="M116 155 l0 226 l-98 0 l0 118 l98 0 l0 137 l141 0 l0 -137 l142 0 l0 -118 l-142 0 l0 -198 q0 -37 16 -53.5 q16 -16.5 52 -16.5 q37 0 73 18 l0 -117 q-28 -17 -74 -23 l-58 -136 l-163 0 l106 143 q-93 32 -93 157 Z" /><glyph glyph-name="Tcaron" unicode="&#x164;" d="M30 571 l0 129 l587 0 l0 -129 l-222 0 l0 -571 l-144 0 l0 571 l-221 0 ZM390 907 l122 0 l-122 -146 l-136 0 l-119 146 l123 0 l67 -78 l65 78 Z" /><glyph glyph-name="tcaron" unicode="&#x165;" d="M123 381 l-98 0 l0 118 l98 0 l0 137 l141 0 l0 -137 l142 0 l0 -118 l-142 0 l0 -198 q0 -37 16 -53.5 q16 -16.5 52 -16.5 q37 0 73 18 l0 -117 q-43 -27 -119 -27 q-163 0 -163 168 l0 226 ZM550 496 l-105 0 l59 204 l130 0 l-84 -204 Z" /><glyph glyph-name="Tbar" unicode="&#x166;" d="M395 0 l-144 0 l0 300 l-123 0 l0 118 l123 0 l0 153 l-221 0 l0 129 l587 0 l0 -129 l-222 0 l0 -153 l121 0 l0 -118 l-121 0 l0 -300 Z" /><glyph glyph-name="tbar" unicode="&#x167;" d="M116 213 l-98 0 l0 103 l98 0 l0 65 l-98 0 l0 118 l98 0 l0 137 l141 0 l0 -137 l142 0 l0 -118 l-142 0 l0 -65 l142 0 l0 -103 l-142 0 l0 -30 q0 -37 16 -53.5 q16 -16.5 52 -16.5 q37 0 73 18 l0 -117 q-44 -27 -119 -27 q-163 0 -163 168 l0 58 Z" /><glyph glyph-name="Utilde" unicode="&#x168;" d="M263 765 l-77 0 q1 60 32.5 100 q31.5 40 81.5 40 q31 0 71 -22 q40 -22 61 -22 q34 0 43 41 l76 0 q0 -55 -32 -99 q-31 -42 -81 -42 q-32 0 -72 22 q-41 23 -61 23 q-34 0 -42 -41 ZM367 -14 q-131 0 -215 81 q-84 81 -84 227 l0 406 l143 0 l0 -411 q0 -81 42.5 -124.5 q42.5 -43.5 113.5 -43.5 q72 0 114.5 43.5 q42.5 43.5 42.5 124.5 l0 411 l144 0 l0 -406 q0 -146 -85 -227 q-84 -81 -216 -81 Z" /><glyph glyph-name="utilde" unicode="&#x169;" d="M550 499 l0 -499 l-141 0 l0 60 q-67 -73 -167 -73 q-86 0 -134 54.5 q-48 54.5 -48 151.5 l0 306 l141 0 l0 -277 q0 -54 26.5 -80 q26.5 -26 68.5 -26 q32 0 63.5 18.5 q31.5 18.5 49.5 46.5 l0 318 l141 0 ZM200 576 l-76 0 q0 59 31 99 q32 41 82 41 q31 0 71 -22 q41 -22 62 -22 q34 0 42 41 l77 0 q-1 -55 -33 -99 q-32 -42 -80 -42 q-32 0 -72 22 q-41 23 -61 23 q-34 0 -43 -41 Z" /><glyph glyph-name="Umacron" unicode="&#x16a;" d="M367 -14 q-131 0 -215 81 q-84 81 -84 227 l0 406 l143 0 l0 -411 q0 -81 42.5 -124.5 q42.5 -43.5 113.5 -43.5 q72 0 114.5 43.5 q42.5 43.5 42.5 124.5 l0 411 l144 0 l0 -406 q0 -146 -85 -227 q-84 -81 -216 -81 ZM521 785 l-306 0 l0 95 l306 0 l0 -95 Z" /><glyph glyph-name="umacron" unicode="&#x16b;" d="M550 499 l0 -499 l-141 0 l0 60 q-67 -73 -167 -73 q-86 0 -134 54.5 q-48 54.5 -48 151.5 l0 306 l141 0 l0 -277 q0 -54 26.5 -80 q26.5 -26 68.5 -26 q32 0 63.5 18.5 q31.5 18.5 49.5 46.5 l0 318 l141 0 ZM459 595 l-307 0 l0 95 l307 0 l0 -95 Z" /><glyph glyph-name="Ubreve" unicode="&#x16c;" d="M367 -14 q-131 0 -215 81 q-84 81 -84 227 l0 406 l143 0 l0 -411 q0 -81 42.5 -124.5 q42.5 -43.5 113.5 -43.5 q72 0 114.5 43.5 q42.5 43.5 42.5 124.5 l0 411 l144 0 l0 -406 q0 -146 -85 -227 q-84 -81 -216 -81 ZM203 909 l95 0 q2 -33 21 -53 q19 -20 49 -20 q30 0 49 20 q19 20 21 53 l95 0 q-2 -75 -50 -119 q-47 -44 -115 -44 q-67 0 -116 44 q-48 44 -49 119 Z" /><glyph glyph-name="ubreve" unicode="&#x16d;" d="M550 499 l0 -499 l-141 0 l0 60 q-67 -73 -167 -73 q-86 0 -134 54.5 q-48 54.5 -48 151.5 l0 306 l141 0 l0 -277 q0 -54 26.5 -80 q26.5 -26 68.5 -26 q32 0 63.5 18.5 q31.5 18.5 49.5 46.5 l0 318 l141 0 ZM306 561 q-70 0 -116.5 44.5 q-46.5 44.5 -49.5 117.5 l96 0 q2 -33 21 -53 q19 -20 49 -20 q30 0 48.5 20 q18.5 20 20.5 53 l95 0 q-2 -74 -49 -118 q-47 -44 -115 -44 Z" /><glyph glyph-name="Uring" unicode="&#x16e;" d="M473 838 q0 -43 -31 -74 q-31 -31 -74 -31 q-43 0 -74 31 q-31 31 -31 74 q0 43 31 74 q31 31 74 31 q43 0 74 -31 q31 -31 31 -74 ZM335 805 q14 -13 33 -13 q19 0 32 13 q14 14 14 33 q0 19 -14 32 q-13 14 -32 14 q-19 0 -33 -14 q-13 -13 -13 -32 q0 -19 13 -33 ZM367 -14 q-131 0 -215 81 q-84 81 -84 227 l0 406 l143 0 l0 -411 q0 -81 42.5 -124.5 q42.5 -43.5 113.5 -43.5 q72 0 114.5 43.5 q42.5 43.5 42.5 124.5 l0 411 l144 0 l0 -406 q0 -146 -85 -227 q-84 -81 -216 -81 Z" /><glyph glyph-name="uring" unicode="&#x16f;" d="M550 499 l0 -499 l-141 0 l0 60 q-67 -73 -167 -73 q-86 0 -134 54.5 q-48 54.5 -48 151.5 l0 306 l141 0 l0 -277 q0 -54 26.5 -80 q26.5 -26 68.5 -26 q32 0 63.5 18.5 q31.5 18.5 49.5 46.5 l0 318 l141 0 ZM411 650 q0 -43 -31 -74 q-31 -31 -74 -31 q-43 0 -74 31 q-31 31 -31 74 q0 43 31 74 q31 31 74 31 q43 0 74 -31 q31 -31 31 -74 ZM273 617 q14 -13 33 -13 q19 0 32 13 q14 14 14 33 q0 19 -14 32 q-13 14 -32 14 q-19 0 -33 -14 q-13 -13 -13 -32 q0 -19 13 -33 Z" /><glyph glyph-name="Uhungarumlaut" unicode="&#x170;" d="M367 -14 q-131 0 -215 81 q-84 81 -84 227 l0 406 l143 0 l0 -411 q0 -81 42.5 -124.5 q42.5 -43.5 113.5 -43.5 q72 0 114.5 43.5 q42.5 43.5 42.5 124.5 l0 411 l144 0 l0 -406 q0 -146 -85 -227 q-84 -81 -216 -81 ZM524 761 l-123 0 l95 146 l172 0 l-144 -146 ZM296 761 l-123 0 l95 146 l172 0 l-144 -146 Z" /><glyph glyph-name="uhungarumlaut" unicode="&#x171;" d="M550 499 l0 -499 l-141 0 l0 60 q-67 -73 -167 -73 q-86 0 -134 54.5 q-48 54.5 -48 151.5 l0 306 l141 0 l0 -277 q0 -54 26.5 -80 q26.5 -26 68.5 -26 q32 0 63.5 18.5 q31.5 18.5 49.5 46.5 l0 318 l141 0 ZM472 570 l-123 0 l95 146 l172 0 l-144 -146 ZM244 570 l-123 0 l95 146 l172 0 l-144 -146 Z" /><glyph glyph-name="Uogonek" unicode="&#x172;" d="M487 -116 q19 0 36 6 l0 -83 q-24 -9 -60 -9 q-59 0 -93.5 29 q-34.5 29 -34.5 75 q0 47 31 84 q-131 2 -215 81 q-83 81 -83 227 l0 406 l143 0 l0 -411 q0 -81 42.5 -124.5 q42.5 -43.5 113.5 -43.5 q72 0 114.5 43.5 q42.5 43.5 42.5 124.5 l0 411 l144 0 l0 -406 q0 -104 -41.5 -171.5 q-41.5 -67.5 -125.5 -110.5 q-68 -35 -68 -82 q0 -22 14.5 -34 q14.5 -12 39.5 -12 Z" /><glyph glyph-name="uogonek" unicode="&#x173;" d="M545 -202 q-59 0 -93.5 29 q-34.5 29 -34.5 74 q0 54 45 99 l-53 0 l0 60 q-67 -73 -167 -73 q-86 0 -134 54.5 q-48 54.5 -48 151.5 l0 306 l141 0 l0 -277 q0 -54 26.5 -80 q26.5 -26 68.5 -26 q32 0 63.5 18.5 q31.5 18.5 49.5 46.5 l0 318 l141 0 l0 -499 q-35 -35 -35 -70 q0 -22 14.5 -34.5 q14.5 -12.5 39.5 -12.5 q23 0 36 7 l0 -84 q-22 -8 -60 -8 Z" /><glyph glyph-name="Wcircumflex" unicode="&#x174;" d="M383 -4 l-127 0 l-235 704 l160 0 l144 -472 l158 474 l112 0 l159 -474 l144 472 l157 0 l-236 -704 l-127 0 l-153 467 l-156 -467 ZM472 762 l-122 0 l122 145 l136 0 l119 -145 l-123 0 l-67 77 l-65 -77 Z" /><glyph glyph-name="wcircumflex" unicode="&#x175;" d="M308 -4 l-120 0 l-169 503 l141 0 l99 -297 l98 299 l113 0 l101 -299 l97 297 l140 0 l-171 -503 l-122 0 l-104 301 l-103 -301 ZM345 570 l-121 0 l122 146 l136 0 l119 -146 l-124 0 l-66 78 l-66 -78 Z" /><glyph glyph-name="Ycircumflex" unicode="&#x176;" d="M420 0 l-143 0 l0 314 l-271 386 l170 0 l174 -249 l175 249 l165 0 l-270 -383 l0 -317 ZM282 762 l-122 0 l122 145 l136 0 l119 -145 l-123 0 l-67 77 l-65 -77 Z" /><glyph glyph-name="ycircumflex" unicode="&#x177;" d="M134 -206 q-62 0 -100 20 l0 123 q35 -20 76 -20 q38 0 63.5 23.5 q25.5 23.5 47.5 76.5 l-215 482 l152 0 l132 -328 l125 328 l149 0 l-231 -551 q-66 -154 -199 -154 ZM219 570 l-121 0 l122 146 l136 0 l119 -146 l-124 0 l-66 78 l-66 -78 Z" /><glyph glyph-name="Ydieresis" unicode="&#x178;" d="M420 0 l-143 0 l0 314 l-271 386 l170 0 l174 -249 l175 249 l165 0 l-270 -383 l0 -317 ZM511 781 q-21 -21 -52 -21 q-31 0 -53 21 q-21 22 -21 53 q0 31 21 52 q22 21 53 21 q31 0 52 -21 q21 -21 21 -52 q0 -31 -21 -53 ZM239 760 q-30 0 -52 21.5 q-22 21.5 -22 52.5 q0 30 22 51.5 q22 21.5 52 21.5 q31 0 52.5 -21 q21.5 -21 21.5 -52 q0 -31 -21.5 -52.5 q-21.5 -21.5 -52.5 -21.5 Z" /><glyph glyph-name="Zacute" unicode="&#x179;" d="M608 0 l-575 0 l0 102 l364 469 l-347 0 l0 129 l542 0 l0 -101 l-363 -470 l379 0 l0 -129 ZM354 761 l-122 0 l95 146 l170 0 l-143 -146 Z" /><glyph glyph-name="zacute" unicode="&#x17a;" d="M493 0 l-461 0 l0 93 l252 288 l-236 0 l0 118 l429 0 l0 -96 l-253 -285 l269 0 l0 -118 ZM285 570 l-122 0 l95 146 l170 0 l-143 -146 Z" /><glyph glyph-name="Zdotaccent" unicode="&#x17b;" d="M608 0 l-575 0 l0 102 l364 469 l-347 0 l0 129 l542 0 l0 -101 l-363 -470 l379 0 l0 -129 ZM320 760 q-30 0 -52 21.5 q-22 21.5 -22 52.5 q0 30 22 51.5 q22 21.5 52 21.5 q31 0 52.5 -21.5 q21.5 -21.5 21.5 -51.5 q0 -31 -21.5 -52.5 q-21.5 -21.5 -52.5 -21.5 Z" /><glyph glyph-name="zdotaccent" unicode="&#x17c;" d="M493 0 l-461 0 l0 93 l252 288 l-236 0 l0 118 l429 0 l0 -96 l-253 -285 l269 0 l0 -118 ZM263 569 q-30 0 -52 21.5 q-22 21.5 -22 52.5 q0 30 22 51.5 q22 21.5 52 21.5 q31 0 52 -21 q21 -21 21 -52 q0 -31 -21 -52.5 q-21 -21.5 -52 -21.5 Z" /><glyph glyph-name="Zcaron" unicode="&#x17d;" d="M608 0 l-575 0 l0 102 l364 469 l-347 0 l0 129 l542 0 l0 -101 l-363 -470 l379 0 l0 -129 ZM387 907 l122 0 l-122 -146 l-136 0 l-119 146 l123 0 l67 -78 l65 78 Z" /><glyph glyph-name="zcaron" unicode="&#x17e;" d="M493 0 l-461 0 l0 93 l252 288 l-236 0 l0 118 l429 0 l0 -96 l-253 -285 l269 0 l0 -118 ZM329 716 l122 0 l-122 -146 l-136 0 l-120 146 l124 0 l66 -78 l66 78 Z" /><glyph glyph-name="longs" unicode="&#x17f;" d="M248 527 l0 -527 l-141 0 l0 381 l-89 0 l0 118 l89 0 l0 47 q0 76 44 121 q44 45 125 45 q73 0 127 -21 l0 -114 q-45 17 -86 17 q-69 0 -69 -67 Z" /><glyph glyph-name="florin" unicode="&#x192;" d="M410 712 q60 0 98 -19 l0 -116 q-33 13 -68 13 q-95 0 -115 -116 l-8 -47 l133 0 l0 -118 l-152 0 l-49 -308 q-15 -95 -72 -151 q-57 -56 -153 -56 q-60 0 -98 19 l0 116 q33 -13 68 -13 q95 0 115 116 l44 277 l-104 0 l0 118 l123 0 l13 78 q15 95 72 151 q57 56 153 56 Z" /><glyph glyph-name="uni0218" unicode="&#x218;" d="M309 -14 q-158 0 -266 75 l0 150 q44 -38 116 -66 q73 -27 144 -27 q59 0 97 21.5 q38 21.5 38 59.5 q0 41 -36 58 q-15 9 -40 18 l-24 8 l-56 17 l-52 17 q-11 3 -47 17 q-31 12 -45 21 q-52 36 -66 61 q-24 48 -24 98 q0 93 71 146 q71 54 193 54 q123 0 229 -58 l0 -140 q-107 66 -227 66 q-119 0 -119 -69 q0 -30 37 -48 q22 -12 57 -21 q47 -13 76 -22 q87 -27 152 -73 q70 -49 70 -146 q0 -101 -79 -159 q-79 -58 -199 -58 ZM307 -270 l-105 0 l59 204 l130 0 l-84 -204 Z" /><glyph glyph-name="uni0219" unicode="&#x219;" d="M253 -13 q-133 0 -210 47 l0 125 q36 -24 91.5 -40.5 q55.5 -16.5 112.5 -16.5 q86 0 86 42 q0 20 -25 31 q-13 6 -26 9 l-37 9 q-8 2 -21.5 5.5 q-13.5 3.5 -18.5 5.5 q-89 24 -125.5 57.5 q-36.5 33.5 -36.5 97.5 q0 71 58.5 112 q58.5 41 161.5 41 q114 0 187 -46 l0 -120 q-89 52 -181 52 q-80 0 -80 -40 q0 -8 4.5 -14.5 q4.5 -6.5 9 -9.5 q4.5 -3 14.5 -9 q6 -2 22 -6.5 q16 -4.5 21 -6.5 l53 -11 q83 -19 123 -56.5 q40 -37.5 40 -101.5 q0 -70 -61 -113 q-61 -43 -162 -43 ZM262 -270 l-105 0 l59 204 l130 0 l-84 -204 Z" /><glyph glyph-name="uni021A" unicode="&#x21a;" d="M30 571 l0 129 l587 0 l0 -129 l-222 0 l0 -571 l-144 0 l0 571 l-221 0 ZM305 -270 l-105 0 l59 204 l130 0 l-84 -204 Z" /><glyph glyph-name="uni021B" unicode="&#x21b;" d="M116 155 l0 226 l-98 0 l0 118 l98 0 l0 137 l141 0 l0 -137 l142 0 l0 -118 l-142 0 l0 -198 q0 -37 16 -53.5 q16 -16.5 52 -16.5 q37 0 73 18 l0 -117 q-44 -27 -119 -27 q-163 0 -163 168 ZM256 -270 l-105 0 l59 204 l130 0 l-84 -204 Z" /><glyph glyph-name="circumflex" unicode="&#x2c6;" d="M204 570 l-121 0 l122 146 l136 0 l119 -146 l-124 0 l-66 78 l-66 -78 Z" /><glyph glyph-name="caron" unicode="&#x2c7;" d="M299 716 l122 0 l-122 -146 l-136 0 l-120 146 l124 0 l66 -78 l66 78 Z" /><glyph glyph-name="uni02C9" unicode="&#x2c9;" d="M418 596 l-333 0 l0 94 l333 0 l0 -94 Z" /><glyph glyph-name="breve" unicode="&#x2d8;" d="M239 561 q-70 0 -116.5 44.5 q-46.5 44.5 -49.5 117.5 l96 0 q2 -33 21 -53 q19 -20 49 -20 q30 0 48.5 20 q18.5 20 20.5 53 l95 0 q-2 -74 -49 -118 q-47 -44 -115 -44 Z" /><glyph glyph-name="dotaccent" unicode="&#x2d9;" d="M285 569 q-30 0 -52 21.5 q-22 21.5 -22 52.5 q0 30 22 51.5 q22 21.5 52 21.5 q31 0 52 -21 q21 -21 21 -52 q0 -31 -21 -52.5 q-21 -21.5 -52 -21.5 Z" /><glyph glyph-name="ring" unicode="&#x2da;" d="M368 650 q0 -43 -31 -74 q-31 -31 -74 -31 q-43 0 -74 31 q-31 31 -31 74 q0 43 31 74 q31 31 74 31 q43 0 74 -31 q31 -31 31 -74 ZM230 617 q14 -13 33 -13 q19 0 32 13 q14 14 14 33 q0 19 -14 32 q-13 14 -32 14 q-19 0 -33 -14 q-13 -13 -13 -32 q0 -19 13 -33 Z" /><glyph glyph-name="ogonek" unicode="&#x2db;" d="M302 -200 q-59 0 -93.5 29 q-34.5 29 -34.5 74 q0 54 45 99 l88 0 q-35 -35 -35 -70 q0 -22 14.5 -34.5 q14.5 -12.5 39.5 -12.5 q23 0 36 7 l0 -84 q-22 -8 -60 -8 Z" /><glyph glyph-name="tilde" unicode="&#x2dc;" d="M146 576 l-76 0 q0 59 31 99 q32 41 82 41 q31 0 71 -22 q41 -22 62 -22 q34 0 42 41 l77 0 q-1 -55 -33 -99 q-32 -42 -80 -42 q-32 0 -72 22 q-41 23 -61 23 q-34 0 -43 -41 Z" /><glyph glyph-name="hungarumlaut" unicode="&#x2dd;" d="M418 570 l-123 0 l95 146 l172 0 l-144 -146 ZM190 570 l-123 0 l95 146 l172 0 l-144 -146 Z" /><glyph glyph-name="acutecomb" unicode="&#x301;" d="M-237 570 l-122 0 l95 146 l170 0 l-143 -146 Z" /><glyph glyph-name="uni037E" unicode="&#x37e;" d="M122 -152 l-116 0 l86 303 l151 0 l-121 -303 ZM161 319 q-37 0 -62 25.5 q-25 25.5 -25 62.5 q0 36 25 61 q25 25 62 25 q36 0 61.5 -25 q25.5 -25 25.5 -61 q0 -37 -25.5 -62.5 q-25.5 -25.5 -61.5 -25.5 Z" /><glyph glyph-name="uni0394" unicode="&#x394;" d="M754 0 l-738 0 l300 700 l138 0 l300 -700 ZM384 521 l-166 -394 l332 0 l-166 394 Z" /><glyph glyph-name="uni03A9" unicode="&#x3a9;" d="M721 382 q0 -73 -27.5 -142 q-27.5 -69 -71.5 -111 l98 0 l0 -129 l-266 0 l0 109 q53 38 86.5 104 q33.5 66 33.5 144 q0 97 -49 159 q-49 63 -129 63 q-80 0 -129 -63 q-49 -62 -49 -159 q0 -78 33.5 -144 q33.5 -66 86.5 -104 l0 -109 l-266 0 l0 129 l98 0 q-44 42 -71.5 111 q-27.5 69 -27.5 142 q0 136 89 234 q89 98 236 98 q147 0 236 -98 q89 -98 89 -234 Z" /><glyph glyph-name="uni03BC" unicode="&#x3bc;" d="M418 181 l0 318 l141 0 l0 -499 l-141 0 l0 60 q-67 -73 -167 -73 q-26 0 -41 4 l0 -191 l-141 0 l0 699 l141 0 l0 -277 q0 -54 26.5 -80 q26.5 -26 68.5 -26 q32 0 63.5 18.5 q31.5 18.5 49.5 46.5 Z" /><glyph glyph-name="pi" unicode="&#x3c0;" d="M561 -11 q-63 0 -101 39.5 q-38 39.5 -38 114.5 l0 238 l-158 0 l0 -381 l-141 0 l0 381 l-97 0 l0 118 l631 0 l0 -118 l-99 0 l0 -197 q0 -37 11.5 -53 q11.5 -16 38.5 -16 q30 0 49 15 l0 -116 q-34 -25 -96 -25 Z" /><glyph glyph-name="uni0401" unicode="&#x401;" d="M602 0 l-525 0 l0 700 l514 0 l0 -129 l-370 0 l0 -135 l298 0 l0 -127 l-298 0 l0 -180 l381 0 l0 -129 ZM501 781 q-21 -21 -52 -21 q-31 0 -53 21 q-21 22 -21 53 q0 31 21 52 q22 21 53 21 q31 0 52 -21 q21 -21 21 -52 q0 -31 -21 -53 ZM229 760 q-30 0 -52 21.5 q-22 21.5 -22 52.5 q0 30 22 51.5 q22 21.5 52 21.5 q31 0 52.5 -21 q21.5 -21 21.5 -52 q0 -31 -21.5 -52.5 q-21.5 -21.5 -52.5 -21.5 Z" /><glyph glyph-name="uni0402" unicode="&#x402;" d="M516 -8 q-50 0 -85 11 l0 117 q30 -11 64 -11 q49 0 79.5 26 q30.5 26 30.5 68 q0 45 -36.5 73 q-36.5 28 -98.5 28 q-77 0 -140 -29 l0 -275 l-143 0 l0 571 l-157 0 l0 129 l522 0 l0 -129 l-222 0 l0 -161 q72 27 158 27 q118 0 188 -64 q71 -65 71 -166 q0 -93 -63 -154 q-61 -61 -168 -61 Z" /><glyph glyph-name="uni0403" unicode="&#x403;" d="M221 0 l-144 0 l0 700 l505 0 l0 -129 l-361 0 l0 -571 ZM360 761 l-122 0 l95 146 l170 0 l-143 -146 Z" /><glyph glyph-name="uni0404" unicode="&#x404;" d="M434 -14 q-159 0 -268 106 q-109 106 -109 258 q0 153 108 258 q107 106 267 106 q101 0 185 -45 l0 -141 q-83 53 -187 53 q-75 0 -134 -45 q-58 -43 -76 -115 l266 0 l0 -121 l-273 0 q15 -80 77 -131 q62 -50 143 -50 q122 0 197 60 l0 -143 q-85 -50 -196 -50 Z" /><glyph glyph-name="uni0405" unicode="&#x405;" d="M311 -14 q-158 0 -266 75 l0 150 q44 -38 116 -66 q73 -27 144 -27 q59 0 97 21.5 q38 21.5 38 59.5 q0 41 -36 58 q-15 9 -40 18 l-24 8 l-56 17 l-52 17 q-11 3 -47 17 q-31 12 -45 21 q-52 36 -66 61 q-24 48 -24 98 q0 93 71 146 q71 54 193 54 q123 0 229 -58 l0 -140 q-106 66 -227 66 q-119 0 -119 -69 q0 -30 37 -48 q22 -12 57 -21 q48 -13 76 -22 q87 -27 152 -73 q70 -49 70 -146 q0 -101 -79 -159 q-79 -58 -199 -58 Z" /><glyph glyph-name="uni0406" unicode="&#x406;" d="M225 0 l-143 0 l0 700 l143 0 l0 -700 Z" /><glyph glyph-name="uni0407" unicode="&#x407;" d="M225 0 l-143 0 l0 700 l143 0 l0 -700 ZM316 781 q-21 -21 -52 -21 q-31 0 -53 21 q-21 22 -21 53 q0 31 21 52 q22 21 53 21 q31 0 52 -21 q21 -21 21 -52 q0 -31 -21 -53 ZM44 760 q-30 0 -52 21.5 q-22 21.5 -22 52.5 q0 30 22 51.5 q22 21.5 52 21.5 q31 0 52.5 -21 q21.5 -21 21.5 -52 q0 -31 -21.5 -52.5 q-21.5 -21.5 -52.5 -21.5 Z" /><glyph glyph-name="uni0408" unicode="&#x408;" d="M196 -14 q-109 0 -168 41 l0 142 q60 -48 138 -48 q68 0 100.5 31.5 q32.5 31.5 32.5 101.5 l0 446 l143 0 l0 -470 q0 -67 -19.5 -116 q-19.5 -49 -54.5 -76 q-35 -27 -77.5 -39.5 q-42.5 -12.5 -94.5 -12.5 Z" /><glyph glyph-name="uni0409" unicode="&#x409;" d="M506 571 l-207 0 l-4 -142 q-8 -247 -56 -339 q-49 -93 -173 -93 q-38 0 -59 9 l0 130 q22 -8 51 -8 q56 0 76 77 q20 79 23 290 l3 205 l489 0 l0 -231 l150 0 q125 0 198 -66 q73 -64 73 -169 q0 -105 -73 -169 q-74 -65 -198 -65 l-293 0 l0 571 ZM649 349 l0 -224 l141 0 q63 0 99 29.5 q36 29.5 36 81.5 q0 53 -36 83 q-36 30 -99 30 l-141 0 Z" /><glyph glyph-name="uni040A" unicode="&#x40a;" d="M820 0 l-293 0 l0 325 l-306 0 l0 -325 l-144 0 l0 700 l144 0 l0 -248 l306 0 l0 248 l143 0 l0 -231 l150 0 q124 0 198 -66 q73 -64 73 -169 q0 -105 -73 -169 q-74 -65 -198 -65 ZM670 349 l0 -224 l141 0 q63 0 99 29.5 q36 29.5 36 81.5 q0 53 -36 83 q-36 30 -99 30 l-141 0 Z" /><glyph glyph-name="uni040B" unicode="&#x40b;" d="M330 274 l0 -274 l-143 0 l0 571 l-157 0 l0 129 l522 0 l0 -129 l-222 0 l0 -160 q73 26 158 26 q124 0 191 -58.5 q67 -58.5 67 -170.5 l0 -208 l-143 0 l0 184 q0 64 -33 92 q-33 28 -101 28 q-77 0 -139 -30 Z" /><glyph glyph-name="uni040C" unicode="&#x40c;" d="M221 0 l-144 0 l0 700 l144 0 l0 -276 l258 276 l176 0 l-297 -321 l348 -379 l-184 0 l-301 323 l0 -323 ZM387 761 l-122 0 l95 146 l170 0 l-143 -146 Z" /><glyph glyph-name="uni040E" unicode="&#x40e;" d="M177 -14 q-72 0 -106 20 l0 127 q34 -19 81 -19 q44 0 70 20 q25 19 54 77 l-265 489 l159 0 l177 -344 l155 344 l153 0 l-258 -548 q-78 -166 -220 -166 ZM148 909 l106 0 q0 -33 20.5 -53 q20.5 -20 55.5 -20 q35 0 56 20 q21 20 22 53 l106 0 q-1 -78 -52 -124.5 q-51 -46.5 -131 -46.5 q-80 0 -131 46.5 q-51 46.5 -52 124.5 Z" /><glyph glyph-name="uni040F" unicode="&#x40f;" d="M435 -143 l-136 0 l0 143 l-222 0 l0 700 l144 0 l0 -571 l293 0 l0 571 l144 0 l0 -700 l-223 0 l0 -143 Z" /><glyph glyph-name="uni0410" unicode="&#x410;" d="M167 0 l-151 0 l300 704 l138 0 l300 -704 l-153 0 l-69 162 l-296 0 l-69 -162 ZM384 524 l-103 -243 l205 0 l-102 243 Z" /><glyph glyph-name="uni0411" unicode="&#x411;" d="M379 0 l-302 0 l0 700 l508 0 l0 -129 l-364 0 l0 -112 l158 0 q123 0 193 -64 q72 -65 72 -166 q0 -101 -71 -166 q-71 -63 -194 -63 ZM221 339 l0 -212 l147 0 q63 0 97 27 q34 27 34 78 q0 51 -34.5 79 q-34.5 28 -96.5 28 l-147 0 Z" /><glyph glyph-name="uni0412" unicode="&#x412;" d="M429 0 l-352 0 l0 700 l329 0 q97 0 154.5 -46 q57.5 -46 57.5 -129 q0 -51 -25 -87 q-25 -36 -63 -52 q57 -12 100 -62 q42 -49 42 -125 q0 -89 -66 -144 q-65 -55 -177 -55 ZM221 307 l0 -183 l181 0 q54 0 84 23.5 q30 23.5 30 67.5 q0 44 -30 68 q-30 24 -84 24 l-181 0 ZM221 580 l0 -154 l162 0 q45 0 70.5 20 q25.5 20 25.5 56 q0 37 -25.5 57.5 q-25.5 20.5 -70.5 20.5 l-162 0 Z" /><glyph glyph-name="uni0413" unicode="&#x413;" d="M221 0 l-144 0 l0 700 l505 0 l0 -129 l-361 0 l0 -571 Z" /><glyph glyph-name="uni0414" unicode="&#x414;" d="M153 -143 l-135 0 l0 272 l69 0 q47 72 70 180 q22 104 22 280 l0 111 l492 0 l0 -571 l96 0 l0 -272 l-135 0 l0 143 l-479 0 l0 -143 ZM246 129 l281 0 l0 442 l-205 0 q0 -145 -16.5 -249 q-16.5 -104 -59.5 -193 Z" /><glyph glyph-name="uni0415" unicode="&#x415;" d="M602 0 l-525 0 l0 700 l514 0 l0 -129 l-370 0 l0 -135 l298 0 l0 -127 l-298 0 l0 -180 l381 0 l0 -129 Z" /><glyph glyph-name="uni0416" unicode="&#x416;" d="M193 0 l-187 0 l296 363 l-266 337 l177 0 l230 -295 l0 295 l144 0 l0 -295 l231 295 l177 0 l-267 -337 l297 -363 l-188 0 l-250 309 l0 -309 l-144 0 l0 309 l-250 -309 Z" /><glyph glyph-name="uni0417" unicode="&#x417;" d="M288 -14 q-152 0 -253 65 l0 140 q46 -32 110 -51.5 q64 -19.5 123 -19.5 q80 0 124.5 27 q44.5 27 44.5 75 q0 42 -39.5 64.5 q-39.5 22.5 -109.5 22.5 l-88 0 l0 121 l105 0 q113 0 113 77 q0 35 -35 54.5 q-35 19.5 -96 19.5 q-121 0 -224 -52 l0 133 q97 52 231 52 q122 0 193 -55 q73 -55 73 -144 q0 -50 -27.5 -86.5 q-27.5 -36.5 -67.5 -53.5 q54 -20 87 -63.5 q33 -43.5 33 -104.5 q0 -93 -80 -158 q-79 -63 -217 -63 Z" /><glyph glyph-name="uni0418" unicode="&#x418;" d="M198 0 l-121 0 l0 700 l144 0 l0 -456 l339 456 l124 0 l0 -700 l-143 0 l0 459 l-343 -459 Z" /><glyph glyph-name="uni0419" unicode="&#x419;" d="M198 0 l-121 0 l0 700 l144 0 l0 -456 l339 456 l124 0 l0 -700 l-143 0 l0 459 l-343 -459 ZM197 909 l106 0 q0 -33 20.5 -53 q20.5 -20 55.5 -20 q35 0 56 20 q21 20 22 53 l106 0 q-1 -78 -52 -124.5 q-51 -46.5 -131 -46.5 q-80 0 -131 46.5 q-51 46.5 -52 124.5 Z" /><glyph glyph-name="uni041A" unicode="&#x41a;" d="M221 0 l-144 0 l0 700 l144 0 l0 -276 l258 276 l176 0 l-297 -321 l348 -379 l-184 0 l-301 323 l0 -323 Z" /><glyph glyph-name="uni041B" unicode="&#x41b;" d="M7 6 l0 130 q22 -8 51 -8 q56 0 76 77 q20 79 23 290 l3 205 l494 0 l0 -700 l-143 0 l0 571 l-212 0 l-4 -142 q-8 -247 -56 -339 q-49 -93 -173 -93 q-38 0 -59 9 Z" /><glyph glyph-name="uni041C" unicode="&#x41c;" d="M221 0 l-144 0 l0 700 l143 0 l203 -290 l203 290 l142 0 l0 -700 l-142 0 l0 479 l-161 -225 l-80 0 l-164 225 l0 -479 Z" /><glyph glyph-name="uni041D" unicode="&#x41d;" d="M221 0 l-144 0 l0 700 l144 0 l0 -262 l316 0 l0 262 l143 0 l0 -700 l-143 0 l0 307 l-316 0 l0 -307 Z" /><glyph glyph-name="uni041E" unicode="&#x41e;" d="M261 186 q62 -65 155 -65 q92 0 154 65 q62 65 62 164 q0 99 -62 164 q-62 65 -154 65 q-93 0 -155 -65 q-61 -64 -61 -164 q0 -100 61 -164 ZM53 350 q0 154 103 258 q103 106 260 106 q156 0 259 -106 q104 -106 104 -258 q0 -151 -104 -258 q-103 -106 -259 -106 q-157 0 -260 106 q-103 106 -103 258 Z" /><glyph glyph-name="uni041F" unicode="&#x41f;" d="M221 0 l-144 0 l0 700 l586 0 l0 -700 l-143 0 l0 571 l-299 0 l0 -571 Z" /><glyph glyph-name="uni0420" unicode="&#x420;" d="M221 0 l-144 0 l0 700 l306 0 q113 0 178 -59 q66 -58 66 -152 q0 -95 -66 -153 q-65 -59 -178 -59 l-162 0 l0 -277 ZM221 574 l0 -174 l152 0 q52 0 81 22.5 q29 22.5 29 64.5 q0 42 -29 64.5 q-29 22.5 -81 22.5 l-152 0 Z" /><glyph glyph-name="uni0421" unicode="&#x421;" d="M432 -14 q-163 0 -271 102 q-108 104 -108 262 q0 160 107 262 q108 102 272 102 q102 0 185 -44 l0 -145 q-81 54 -184 54 q-99 0 -167 -65 q-66 -64 -66 -164 q0 -100 68 -165 q67 -64 171 -64 q115 0 192 61 l0 -145 q-85 -51 -199 -51 Z" /><glyph glyph-name="uni0422" unicode="&#x422;" d="M30 571 l0 129 l587 0 l0 -129 l-222 0 l0 -571 l-144 0 l0 571 l-221 0 Z" /><glyph glyph-name="uni0423" unicode="&#x423;" d="M177 -14 q-72 0 -106 20 l0 127 q34 -19 81 -19 q44 0 70 20 q25 19 54 77 l-265 489 l159 0 l177 -344 l155 344 l153 0 l-258 -548 q-78 -166 -220 -166 Z" /><glyph glyph-name="uni0424" unicode="&#x424;" d="M536 -27 l-145 0 l0 77 q-162 6 -250 95 q-88 89 -88 211 q0 123 88 211 q89 89 250 95 l0 64 l145 0 l0 -64 q161 -6 250 -95 q88 -88 88 -211 q0 -122 -88 -211 q-88 -89 -250 -95 l0 -77 ZM391 180 l0 352 q-90 -1 -140 -48.5 q-50 -47.5 -50 -127.5 q0 -79 50 -126.5 q50 -47.5 140 -49.5 ZM536 532 l0 -352 q90 2 140 49.5 q50 47.5 50 126.5 q0 80 -50 127.5 q-50 47.5 -140 48.5 Z" /><glyph glyph-name="uni0425" unicode="&#x425;" d="M48 700 l168 0 l147 -209 l149 209 l166 0 l-231 -322 l272 -378 l-168 0 l-190 261 l-189 -261 l-166 0 l273 377 l-231 323 Z" /><glyph glyph-name="uni0426" unicode="&#x426;" d="M755 -143 l-136 0 l0 143 l-542 0 l0 700 l144 0 l0 -571 l293 0 l0 571 l144 0 l0 -571 l97 0 l0 -272 Z" /><glyph glyph-name="uni0427" unicode="&#x427;" d="M614 0 l-143 0 l0 273 q-74 -25 -158 -25 q-125 0 -192 58 q-67 58 -67 170 l0 224 l144 0 l0 -200 q0 -64 32.5 -91.5 q32.5 -27.5 101.5 -27.5 q78 0 139 30 l0 289 l143 0 l0 -700 Z" /><glyph glyph-name="uni0428" unicode="&#x428;" d="M955 0 l-878 0 l0 700 l144 0 l0 -571 l223 0 l0 571 l143 0 l0 -571 l224 0 l0 571 l144 0 l0 -700 Z" /><glyph glyph-name="uni0429" unicode="&#x429;" d="M1052 -143 l-136 0 l0 143 l-839 0 l0 700 l144 0 l0 -571 l224 0 l0 571 l143 0 l0 -571 l224 0 l0 571 l143 0 l0 -571 l97 0 l0 -272 Z" /><glyph glyph-name="uni042A" unicode="&#x42a;" d="M497 0 l-298 0 l0 571 l-179 0 l0 129 l323 0 l0 -231 l154 0 q125 0 198 -66 q73 -64 73 -169 q0 -105 -73 -169 q-74 -65 -198 -65 ZM343 347 l0 -220 l146 0 q63 0 98.5 28.5 q35.5 28.5 35.5 80.5 q0 53 -35.5 82 q-35.5 29 -98.5 29 l-146 0 Z" /><glyph glyph-name="uni042B" unicode="&#x42b;" d="M850 0 l-144 0 l0 700 l144 0 l0 -700 ZM351 0 l-274 0 l0 700 l144 0 l0 -231 l130 0 q125 0 198 -66 q73 -64 73 -169 q0 -105 -73 -169 q-74 -65 -198 -65 ZM221 347 l0 -220 l122 0 q63 0 98.5 28.5 q35.5 28.5 35.5 80.5 q0 53 -35.5 82 q-35.5 29 -98.5 29 l-122 0 Z" /><glyph glyph-name="uni042C" unicode="&#x42c;" d="M375 0 l-298 0 l0 700 l144 0 l0 -231 l154 0 q125 0 198 -66 q73 -64 73 -169 q0 -105 -73 -169 q-74 -65 -198 -65 ZM221 347 l0 -220 l146 0 q63 0 98.5 28.5 q35.5 28.5 35.5 80.5 q0 53 -35.5 82 q-35.5 29 -98.5 29 l-146 0 Z" /><glyph glyph-name="uni042D" unicode="&#x42d;" d="M242 -14 q-111 0 -196 50 l0 143 q75 -60 197 -60 q81 0 143 50 q62 51 77 131 l-273 0 l0 121 l266 0 q-18 72 -76 115 q-58 45 -134 45 q-104 0 -187 -53 l0 141 q84 45 185 45 q160 0 267 -106 q108 -105 108 -258 q0 -152 -109 -258 q-109 -106 -268 -106 Z" /><glyph glyph-name="uni042E" unicode="&#x42e;" d="M658 714 q146 0 242 -106 q97 -104 97 -258 q0 -153 -97 -259 q-96 -105 -242 -105 q-131 0 -221 84 q-89 86 -113 217 l-101 0 l0 -287 l-146 0 l0 700 l146 0 l0 -282 l102 0 q21 128 113 212 q92 84 220 84 ZM658 121 q85 0 139 62 q54 63 54 167 q0 104 -54 166 q-54 63 -139 63 q-84 0 -138 -63 q-54 -62 -54 -166 q0 -103 54 -166 q54 -63 138 -63 Z" /><glyph glyph-name="uni042F" unicode="&#x42f;" d="M183 0 l-166 0 l219 299 q-69 21 -107.5 72.5 q-38.5 51.5 -38.5 121.5 q0 92 65 149 q64 58 176 58 l324 0 l0 -700 l-144 0 l0 283 l-122 0 l-206 -283 ZM339 404 l172 0 l0 170 l-172 0 q-49 0 -76.5 -22.5 q-27.5 -22.5 -27.5 -62.5 q0 -41 27.5 -63 q27.5 -22 76.5 -22 Z" /><glyph glyph-name="uni0430" unicode="&#x430;" d="M544 109 q18 0 29 6 l0 -103 q-27 -21 -76 -21 q-85 0 -113 64 q-66 -68 -172 -68 q-82 0 -133 46 q-51 46 -51 121 q0 80 58 122 q58 42 139 42 q85 0 144 -31 l0 15 q0 94 -132 94 q-81 0 -151 -42 l0 118 q76 40 185 40 q108 0 172 -52 q66 -52 66 -144 l0 -169 q0 -38 35 -38 ZM369 147 l0 50 q-44 29 -104 29 q-45 0 -71.5 -17 q-26.5 -17 -26.5 -48 q0 -32 24 -48.5 q24 -16.5 65 -16.5 q74 0 113 51 Z" /><glyph glyph-name="uni0431" unicode="&#x431;" d="M353 467 q98 0 159 -61 q62 -62 62 -162 q0 -113 -75 -185 q-73 -72 -186 -72 q-133 0 -203 88 q-71 89 -71 237 q0 101 28 169.5 q28 68.5 90 113.5 q64 47 146 74 q81 28 213 49 l0 -131 l-53 -9 l-52 -9 q-21 -4 -47 -10 q-39 -8 -85 -25 q-32 -12 -65 -42 q-41 -36 -47 -110 q67 85 186 85 ZM312 106 q54 0 88.5 36 q34.5 36 34.5 92 q0 53 -33 84.5 q-33 31.5 -85 31.5 q-41 0 -80 -21.5 q-39 -21.5 -60 -54.5 q1 -81 36.5 -124.5 q35.5 -43.5 98.5 -43.5 Z" /><glyph glyph-name="uni0432" unicode="&#x432;" d="M363 0 l-294 0 l0 499 l282 0 q76 0 118 -35.5 q42 -35.5 42 -92.5 q0 -75 -61 -106 q95 -33 95 -128 q0 -64 -48 -100.5 q-48 -36.5 -134 -36.5 ZM208 211 l0 -112 l120 0 q73 0 73 56 q0 56 -73 56 l-120 0 ZM208 402 l0 -102 l98 0 q67 0 67 51 q0 51 -67 51 l-98 0 Z" /><glyph glyph-name="uni0433" unicode="&#x433;" d="M210 0 l-141 0 l0 499 l396 0 l0 -118 l-255 0 l0 -381 Z" /><glyph glyph-name="uni0434" unicode="&#x434;" d="M155 -127 l-135 0 l0 245 l64 0 q57 89 60 284 l2 97 l420 0 l0 -381 l82 0 l0 -245 l-133 0 l0 127 l-360 0 l0 -127 ZM228 118 l200 0 l0 263 l-156 0 q0 -155 -44 -263 Z" /><glyph glyph-name="uni0435" unicode="&#x435;" d="M313 -13 q-117 0 -197 72 q-80 72 -80 191 q0 111 72 186 q72 76 188 76 q108 0 173 -77 q65 -77 65 -187 l0 -37 l-358 0 q11 -50 55.5 -77 q44.5 -27 111.5 -27 q83 0 160 44 l0 -113 q-67 -51 -190 -51 ZM176 301 l219 0 q-2 43 -30.5 71.5 q-28.5 28.5 -74.5 28.5 q-47 0 -78 -27.5 q-31 -27.5 -36 -72.5 Z" /><glyph glyph-name="uni0436" unicode="&#x436;" d="M180 0 l-167 0 l215 266 l-193 233 l159 0 l152 -188 l0 188 l139 0 l0 -188 l151 188 l159 0 l-193 -233 l216 -266 l-168 0 l-165 213 l0 -213 l-139 0 l0 213 l-166 -213 Z" /><glyph glyph-name="uni0437" unicode="&#x437;" d="M244 -13 q-116 0 -194 38 l0 114 q77 -40 174 -40 q57 0 88.5 15 q31.5 15 31.5 43 q0 49 -88 49 l-98 0 l0 102 l98 0 q72 0 72 44 q0 48 -102 48 q-93 0 -162 -34 l0 110 q77 36 193 36 q91 0 153 -39 q62 -39 62 -98 q0 -83 -72 -107 q41 -13 66.5 -43.5 q25.5 -30.5 25.5 -75.5 q0 -71 -69 -117 q-67 -45 -179 -45 Z" /><glyph glyph-name="uni0438" unicode="&#x438;" d="M201 0 l-132 0 l0 499 l139 0 l0 -294 l226 294 l132 0 l0 -499 l-139 0 l0 294 l-226 -294 Z" /><glyph glyph-name="uni0439" unicode="&#x439;" d="M201 0 l-132 0 l0 499 l139 0 l0 -294 l226 294 l132 0 l0 -499 l-139 0 l0 294 l-226 -294 ZM317 554 q-80 0 -130 46.5 q-50 46.5 -51 124.5 l106 0 q0 -33 20 -53 q20 -20 54 -20 q34 0 53.5 20 q19.5 20 20.5 53 l107 0 q-1 -79 -52 -125 q-50 -46 -128 -46 Z" /><glyph glyph-name="uni043A" unicode="&#x43a;" d="M210 0 l-141 0 l0 499 l141 0 l0 -182 l172 182 l173 0 l-217 -225 l251 -274 l-182 0 l-197 215 l0 -215 Z" /><glyph glyph-name="uni043B" unicode="&#x43b;" d="M423 381 l-154 0 l-2 -70 q-5 -111 -23 -175 q-19 -67 -59.5 -102.5 q-40.5 -35.5 -111.5 -37.5 q-37 0 -53 9 l0 115 q11 -4 29 -4 q49 0 65 64 q15 57 16 172 l3 147 l431 0 l0 -499 l-141 0 l0 381 Z" /><glyph glyph-name="uni043C" unicode="&#x43c;" d="M202 0 l-133 0 l0 499 l139 0 l145 -186 l146 186 l139 0 l0 -499 l-133 0 l0 308 l-124 -155 l-56 0 l-123 155 l0 -308 Z" /><glyph glyph-name="uni043D" unicode="&#x43d;" d="M210 0 l-141 0 l0 499 l141 0 l0 -185 l205 0 l0 185 l141 0 l0 -499 l-141 0 l0 196 l-205 0 l0 -196 Z" /><glyph glyph-name="uni043E" unicode="&#x43e;" d="M175 250 q0 -60 39 -100 q39 -40 99 -40 q60 0 99 40 q39 41 39 100 q0 60 -39 99 q-39 40 -99 40 q-60 0 -99 -40 q-39 -39 -39 -99 ZM36 250 q0 111 78 186 q77 76 199 76 q122 0 199 -76 q78 -76 78 -186 q0 -112 -78 -188 q-78 -75 -199 -75 q-121 0 -199 75 q-78 76 -78 188 Z" /><glyph glyph-name="uni043F" unicode="&#x43f;" d="M210 0 l-141 0 l0 499 l481 0 l0 -499 l-141 0 l0 381 l-199 0 l0 -381 Z" /><glyph glyph-name="uni0440" unicode="&#x440;" d="M374 512 q102 0 168 -76 q67 -74 67 -187 q0 -111 -67 -187 q-66 -75 -168 -75 q-105 0 -164 74 l0 -261 l-141 0 l0 699 l141 0 l0 -61 q56 74 164 74 ZM334 389 q-40 0 -73 -21 q-33 -21 -51 -54 l0 -130 q18 -33 51 -53.5 q33 -20.5 73 -20.5 q60 0 97 40 q38 41 38 99 q0 59 -38 100 q-37 40 -97 40 Z" /><glyph glyph-name="uni0441" unicode="&#x441;" d="M307 -13 q-111 0 -191 72 q-80 74 -80 192 q0 118 80 189 q81 72 193 72 q82 0 148 -33 l0 -120 q-65 30 -127 30 q-66 0 -111 -39 q-44 -38 -44 -100 q0 -62 45 -101 q45 -39 110 -39 q77 0 135 34 l0 -120 q-70 -37 -158 -37 Z" /><glyph glyph-name="uni0442" unicode="&#x442;" d="M312 0 l-141 0 l0 381 l-156 0 l0 118 l455 0 l0 -118 l-158 0 l0 -381 Z" /><glyph glyph-name="uni0443" unicode="&#x443;" d="M134 -206 q-62 0 -100 20 l0 123 q35 -20 76 -20 q38 0 63.5 23.5 q25.5 23.5 47.5 76.5 l-215 482 l152 0 l132 -328 l125 328 l149 0 l-231 -551 q-66 -154 -199 -154 Z" /><glyph glyph-name="uni0444" unicode="&#x444;" d="M311 505 l0 195 l139 0 l0 -195 q128 -6 201 -77 q73 -70 73 -178 q0 -110 -71.5 -177.5 q-71.5 -67.5 -202.5 -77.5 l0 -195 l-139 0 l0 195 q-128 4 -203 76 q-72 72 -72 179 q0 109 72.5 177 q72.5 68 202.5 78 ZM311 108 l0 283 q-64 -4 -101.5 -41.5 q-37.5 -37.5 -37.5 -99.5 q0 -62 37.5 -100.5 q37.5 -38.5 101.5 -41.5 ZM450 391 l0 -283 q64 3 101.5 41.5 q37.5 38.5 37.5 100.5 q0 62 -37.5 99.5 q-37.5 37.5 -101.5 41.5 Z" /><glyph glyph-name="uni0445" unicode="&#x445;" d="M34 499 l158 0 l100 -140 l101 140 l156 0 l-175 -238 l190 -261 l-158 0 l-116 160 l-117 -160 l-156 0 l191 260 l-174 239 Z" /><glyph glyph-name="uni0446" unicode="&#x446;" d="M634 -127 l-136 0 l0 127 l-429 0 l0 499 l141 0 l0 -381 l201 0 l0 381 l141 0 l0 -381 l82 0 l0 -245 Z" /><glyph glyph-name="uni0447" unicode="&#x447;" d="M508 0 l-141 0 l0 164 q-49 -17 -109 -17 q-213 0 -213 204 l0 148 l141 0 l0 -134 q0 -54 21.5 -76.5 q21.5 -22.5 72.5 -22.5 q53 0 87 19 l0 214 l141 0 l0 -499 Z" /><glyph glyph-name="uni0448" unicode="&#x448;" d="M791 0 l-722 0 l0 499 l139 0 l0 -381 l152 0 l0 381 l138 0 l0 -381 l155 0 l0 381 l138 0 l0 -499 Z" /><glyph glyph-name="uni0449" unicode="&#x449;" d="M873 -127 l-127 0 l0 127 l-677 0 l0 499 l139 0 l0 -381 l152 0 l0 381 l138 0 l0 -381 l155 0 l0 381 l138 0 l0 -381 l82 0 l0 -245 Z" /><glyph glyph-name="uni044A" unicode="&#x44a;" d="M422 0 l-268 0 l0 381 l-140 0 l0 118 l281 0 l0 -146 l120 0 q94 0 150 -48 q56 -48 56 -128 q0 -76 -52 -127 q-53 -50 -147 -50 ZM295 248 l0 -139 l98 0 q41 0 64 18 q23 18 23 51 q0 33 -23 51.5 q-23 18.5 -64 18.5 l-98 0 Z" /><glyph glyph-name="uni044B" unicode="&#x44b;" d="M717 0 l-139 0 l0 499 l139 0 l0 -499 ZM319 0 l-250 0 l0 499 l141 0 l0 -146 l102 0 q94 0 150 -48 q56 -48 56 -128 q0 -76 -52 -127 q-53 -50 -147 -50 ZM210 248 l0 -139 l80 0 q41 0 64 18 q23 18 23 51 q0 33 -23 51.5 q-23 18.5 -64 18.5 l-80 0 Z" /><glyph glyph-name="uni044C" unicode="&#x44c;" d="M337 0 l-268 0 l0 499 l141 0 l0 -146 l120 0 q94 0 150 -48 q56 -48 56 -128 q0 -76 -52 -127 q-53 -50 -147 -50 ZM210 248 l0 -139 l98 0 q41 0 64 18 q23 18 23 51 q0 33 -23 51.5 q-23 18.5 -64 18.5 l-98 0 Z" /><glyph glyph-name="uni044D" unicode="&#x44d;" d="M205 -13 q-91 0 -156 36 l0 115 q64 -34 134 -34 q57 0 98.5 27 q41.5 27 51.5 71 l-184 0 l0 98 l183 0 q-11 44 -51.5 70 q-40.5 26 -97.5 26 q-64 0 -124 -29 l0 113 q66 32 146 32 q111 0 191 -72 q80 -71 80 -189 q0 -120 -80 -192 q-80 -72 -191 -72 Z" /><glyph glyph-name="uni044E" unicode="&#x44e;" d="M543 -13 q-99 0 -169 59 q-67 58 -84 151 l-80 0 l0 -197 l-141 0 l0 499 l141 0 l0 -184 l83 0 q20 87 86 142 q67 55 164 55 q114 0 186 -76 q73 -74 73 -186 q0 -112 -73 -188 q-72 -75 -186 -75 ZM543 110 q53 0 86.5 40 q33.5 40 33.5 100 q0 60 -33.5 99.5 q-33.5 39.5 -86.5 39.5 q-54 0 -88 -39.5 q-34 -39.5 -34 -99.5 q0 -59 33 -100 q34 -40 89 -40 Z" /><glyph glyph-name="uni044F" unicode="&#x44f;" d="M183 0 l-158 0 l134 190 q-99 36 -99 147 q0 73 50.5 117.5 q50.5 44.5 145.5 44.5 l268 0 l0 -499 l-141 0 l0 165 l-85 0 l-115 -165 ZM279 267 l104 0 l0 122 l-104 0 q-35 0 -55 -16 q-20 -16 -20 -45 q0 -29 20 -45 q20 -16 55 -16 Z" /><glyph glyph-name="uni0451" unicode="&#x451;" d="M313 -13 q-117 0 -197 72 q-80 72 -80 191 q0 111 72 186 q72 76 188 76 q108 0 173 -77 q65 -77 65 -187 l0 -37 l-358 0 q11 -50 55.5 -77 q44.5 -27 111.5 -27 q83 0 160 44 l0 -113 q-67 -51 -190 -51 ZM176 301 l219 0 q-2 43 -30.5 71.5 q-28.5 28.5 -74.5 28.5 q-47 0 -78 -27.5 q-31 -27.5 -36 -72.5 ZM450 590 q-21 -21 -52 -21 q-31 0 -53 21 q-21 22 -21 53 q0 31 21 52 q22 21 53 21 q31 0 52 -21 q22 -21 22 -52 q0 -31 -22 -53 ZM178 569 q-30 0 -52 21.5 q-22 21.5 -22 52.5 q0 30 22 51.5 q22 21.5 52 21.5 q31 0 52.5 -21 q21.5 -21 21.5 -52 q0 -31 -21.5 -52.5 q-21.5 -21.5 -52.5 -21.5 Z" /><glyph glyph-name="uni0452" unicode="&#x452;" d="M425 -206 q-74 0 -111 22 l0 120 q35 -19 75 -19 q76 0 76 79 l0 210 q0 54 -26.5 80 q-26.5 26 -68.5 26 q-32 0 -63.5 -18.5 q-31.5 -18.5 -49.5 -46.5 l0 -247 l-141 0 l0 518 l-102 0 l0 93 l102 0 l0 89 l141 0 l0 -89 l160 0 l0 -93 l-160 0 l0 -151 q68 74 167 74 q86 0 134 -54.5 q48 -54.5 48 -151.5 l0 -253 q0 -89 -48.5 -138.5 q-48.5 -49.5 -132.5 -49.5 Z" /><glyph glyph-name="uni0453" unicode="&#x453;" d="M210 0 l-141 0 l0 499 l396 0 l0 -118 l-255 0 l0 -381 ZM288 570 l-122 0 l95 146 l170 0 l-143 -146 Z" /><glyph glyph-name="uni0454" unicode="&#x454;" d="M311 -13 q-111 0 -191 72 q-80 72 -80 192 q0 118 80 189 q80 72 191 72 q80 0 146 -32 l0 -113 q-60 29 -124 29 q-57 0 -97.5 -26 q-40.5 -26 -51.5 -70 l183 0 l0 -98 l-184 0 q10 -44 51.5 -71 q41.5 -27 98.5 -27 q70 0 134 34 l0 -115 q-65 -36 -156 -36 Z" /><glyph glyph-name="uni0455" unicode="&#x455;" d="M246 -13 q-133 0 -210 47 l0 125 q36 -24 91.5 -40.5 q55.5 -16.5 112.5 -16.5 q86 0 86 42 q0 20 -25 31 q-13 6 -26 9 l-37 9 q-8 2 -21.5 5.5 q-13.5 3.5 -18.5 5.5 q-89 24 -125.5 57.5 q-36.5 33.5 -36.5 97.5 q0 71 58.5 112 q58.5 41 161.5 41 q114 0 187 -46 l0 -120 q-89 52 -181 52 q-80 0 -80 -40 q0 -8 4.5 -14.5 q4.5 -6.5 9 -9.5 q4.5 -3 14.5 -9 q6 -2 22 -6.5 q16 -4.5 21 -6.5 l53 -11 q83 -19 123 -56.5 q40 -37.5 40 -101.5 q0 -70 -61 -113 q-61 -43 -162 -43 Z" /><glyph glyph-name="uni0456" unicode="&#x456;" d="M217 0 l-141 0 l0 499 l141 0 l0 -499 ZM62 631 q0 36 24.5 60.5 q24.5 24.5 59.5 24.5 q35 0 59.5 -24.5 q24.5 -24.5 24.5 -60.5 q0 -35 -24.5 -59.5 q-24.5 -24.5 -59.5 -24.5 q-35 0 -59.5 24.5 q-24.5 24.5 -24.5 59.5 Z" /><glyph glyph-name="uni0457" unicode="&#x457;" d="M295 590 q-21 -21 -52 -21 q-31 0 -53 21 q-21 22 -21 53 q0 31 21 52 q22 21 53 21 q31 0 52 -21 q22 -21 22 -52 q0 -31 -22 -53 ZM23 569 q-30 0 -52 21.5 q-22 21.5 -22 52.5 q0 30 22 51.5 q22 21.5 52 21.5 q31 0 52.5 -21 q21.5 -21 21.5 -52 q0 -31 -21.5 -52.5 q-21.5 -21.5 -52.5 -21.5 ZM204 0 l-141 0 l0 499 l141 0 l0 -499 Z" /><glyph glyph-name="uni0458" unicode="&#x458;" d="M36 -206 q-74 0 -111 22 l0 120 q35 -19 75 -19 q76 0 76 79 l0 503 l141 0 l0 -517 q0 -89 -48.5 -138.5 q-48.5 -49.5 -132.5 -49.5 ZM61 631 q0 36 24.5 60.5 q24.5 24.5 59.5 24.5 q35 0 60 -24.5 q25 -24.5 25 -60.5 q0 -35 -25 -59.5 q-25 -24.5 -60 -24.5 q-35 0 -59.5 24.5 q-24.5 24.5 -24.5 59.5 Z" /><glyph glyph-name="uni0459" unicode="&#x459;" d="M686 0 l-268 0 l0 381 l-149 0 q-6 -157 -16 -209 q-31 -160 -153 -174 q-18 -2 -27 -2 q-37 0 -53 9 l0 115 q11 -4 29 -4 q53 0 68 69 q15 61 15 193 l1 121 l426 0 l0 -146 l120 0 q94 0 150 -48 q56 -48 56 -128 q0 -76 -52 -127 q-53 -50 -147 -50 ZM559 248 l0 -139 l98 0 q41 0 64 18 q23 18 23 51 q0 33 -23 51.5 q-23 18.5 -64 18.5 l-98 0 Z" /><glyph glyph-name="uni045A" unicode="&#x45a;" d="M676 0 l-268 0 l0 213 l-198 0 l0 -213 l-141 0 l0 499 l141 0 l0 -173 l198 0 l0 173 l141 0 l0 -146 l120 0 q94 0 150 -48 q56 -48 56 -128 q0 -76 -52 -127 q-53 -50 -147 -50 ZM549 248 l0 -139 l98 0 q41 0 64 18 q23 18 23 51 q0 33 -23 51.5 q-23 18.5 -64 18.5 l-98 0 Z" /><glyph glyph-name="uni045B" unicode="&#x45b;" d="M257 247 l0 -247 l-141 0 l0 518 l-102 0 l0 93 l102 0 l0 89 l141 0 l0 -89 l160 0 l0 -93 l-160 0 l0 -151 q68 74 167 74 q86 0 134 -54.5 q48 -54.5 48 -151.5 l0 -235 l-141 0 l0 206 q0 54 -26.5 80 q-26.5 26 -68.5 26 q-32 0 -63.5 -18.5 q-31.5 -18.5 -49.5 -46.5 Z" /><glyph glyph-name="uni045C" unicode="&#x45c;" d="M210 0 l-141 0 l0 499 l141 0 l0 -182 l172 182 l173 0 l-217 -225 l251 -274 l-182 0 l-197 215 l0 -215 ZM350 570 l-122 0 l95 146 l170 0 l-143 -146 Z" /><glyph glyph-name="uni045E" unicode="&#x45e;" d="M134 -206 q-62 0 -100 20 l0 123 q35 -20 76 -20 q38 0 63.5 23.5 q25.5 23.5 47.5 76.5 l-215 482 l152 0 l132 -328 l125 328 l149 0 l-231 -551 q-66 -154 -199 -154 ZM285 554 q-80 0 -130 46.5 q-50 46.5 -51 124.5 l106 0 q0 -33 20 -53 q20 -20 54 -20 q34 0 53.5 20 q19.5 20 20.5 53 l107 0 q-1 -79 -52 -125 q-50 -46 -128 -46 Z" /><glyph glyph-name="uni045F" unicode="&#x45f;" d="M379 -127 l-137 0 l0 127 l-173 0 l0 499 l141 0 l0 -381 l201 0 l0 381 l141 0 l0 -499 l-173 0 l0 -127 Z" /><glyph glyph-name="uni0490" unicode="&#x490;" d="M221 0 l-144 0 l0 700 l373 0 l0 139 l130 0 l0 -268 l-359 0 l0 -571 Z" /><glyph glyph-name="uni0491" unicode="&#x491;" d="M210 0 l-141 0 l0 499 l267 0 l0 124 l129 0 l0 -242 l-255 0 l0 -381 Z" /><glyph glyph-name="uni1E02" unicode="&#x1e02;" d="M429 0 l-352 0 l0 700 l329 0 q97 0 154.5 -46 q57.5 -46 57.5 -129 q0 -51 -25 -87 q-25 -36 -63 -52 q57 -12 100 -62 q42 -49 42 -125 q0 -89 -66 -144 q-65 -55 -177 -55 ZM221 307 l0 -183 l181 0 q54 0 84 23.5 q30 23.5 30 67.5 q0 44 -30 68 q-30 24 -84 24 l-181 0 ZM221 580 l0 -154 l162 0 q45 0 70.5 20 q25.5 20 25.5 56 q0 37 -25.5 57.5 q-25.5 20.5 -70.5 20.5 l-162 0 ZM335 760 q-30 0 -52 21.5 q-22 21.5 -22 52.5 q0 30 22 51.5 q22 21.5 52 21.5 q31 0 52.5 -21.5 q21.5 -21.5 21.5 -51.5 q0 -31 -21.5 -52.5 q-21.5 -21.5 -52.5 -21.5 Z" /><glyph glyph-name="uni1E03" unicode="&#x1e03;" d="M374 -13 q-108 0 -164 74 l0 -61 l-141 0 l0 700 l141 0 l0 -262 q59 74 164 74 q102 0 168 -76 q67 -74 67 -186 q0 -112 -67 -188 q-66 -75 -168 -75 ZM334 110 q60 0 97 40 q38 41 38 100 q0 58 -38 99 q-37 40 -97 40 q-40 0 -73 -20.5 q-33 -20.5 -51 -53.5 l0 -130 q18 -33 51 -54 q33 -21 73 -21 ZM332 760 q-30 0 -52 21.5 q-22 21.5 -22 52.5 q0 30 22 51.5 q22 21.5 52 21.5 q31 0 52.5 -21.5 q21.5 -21.5 21.5 -51.5 q0 -31 -21.5 -52.5 q-21.5 -21.5 -52.5 -21.5 Z" /><glyph glyph-name="uni1E0A" unicode="&#x1e0a;" d="M339 0 l-262 0 l0 700 l262 0 q170 0 277 -98 q107 -98 107 -252 q0 -155 -107 -253 q-106 -97 -277 -97 ZM221 571 l0 -442 l106 0 q117 0 182.5 58.5 q65.5 58.5 65.5 162.5 q0 104 -65.5 162.5 q-65.5 58.5 -182.5 58.5 l-106 0 ZM355 760 q-30 0 -52 21.5 q-22 21.5 -22 52.5 q0 30 22 51.5 q22 21.5 52 21.5 q31 0 52.5 -21.5 q21.5 -21.5 21.5 -51.5 q0 -31 -21.5 -52.5 q-21.5 -21.5 -52.5 -21.5 Z" /><glyph glyph-name="uni1E0B" unicode="&#x1e0b;" d="M271 -13 q-101 0 -169 75 q-66 76 -66 188 q0 111 66 186 q67 76 169 76 q105 0 164 -74 l0 262 l141 0 l0 -700 l-141 0 l0 61 q-56 -74 -164 -74 ZM311 110 q40 0 73 21 q33 21 51 54 l0 130 q-18 33 -51 53.5 q-33 20.5 -73 20.5 q-60 0 -97 -40 q-38 -41 -38 -99 q0 -59 38 -100 q37 -40 97 -40 ZM319 760 q-30 0 -52 21.5 q-22 21.5 -22 52.5 q0 30 22 51.5 q22 21.5 52 21.5 q31 0 52.5 -21.5 q21.5 -21.5 21.5 -51.5 q0 -31 -21.5 -52.5 q-21.5 -21.5 -52.5 -21.5 Z" /><glyph glyph-name="uni1E1E" unicode="&#x1e1e;" d="M221 0 l-144 0 l0 700 l513 0 l0 -129 l-369 0 l0 -142 l285 0 l0 -127 l-285 0 l0 -302 ZM333 760 q-30 0 -52 21.5 q-22 21.5 -22 52.5 q0 30 22 51.5 q22 21.5 52 21.5 q31 0 52.5 -21.5 q21.5 -21.5 21.5 -51.5 q0 -31 -21.5 -52.5 q-21.5 -21.5 -52.5 -21.5 Z" /><glyph glyph-name="uni1E1F" unicode="&#x1e1f;" d="M107 0 l0 381 l-89 0 l0 118 l89 0 l0 47 q0 76 44 121 q44 45 125 45 q73 0 127 -21 l0 -114 q-45 17 -86 17 q-69 0 -69 -67 l0 -28 l155 0 l0 -118 l-155 0 l0 -381 l-141 0 ZM256 760 q-30 0 -52 21.5 q-22 21.5 -22 52.5 q0 30 22 51.5 q22 21.5 52 21.5 q31 0 52.5 -21.5 q21.5 -21.5 21.5 -51.5 q0 -31 -21.5 -52.5 q-21.5 -21.5 -52.5 -21.5 Z" /><glyph glyph-name="uni1E40" unicode="&#x1e40;" d="M221 0 l-144 0 l0 700 l143 0 l203 -290 l203 290 l142 0 l0 -700 l-142 0 l0 479 l-161 -225 l-80 0 l-164 225 l0 -479 ZM422 760 q-30 0 -52 21.5 q-22 21.5 -22 52.5 q0 30 22 51.5 q22 21.5 52 21.5 q31 0 52.5 -21.5 q21.5 -21.5 21.5 -51.5 q0 -31 -21.5 -52.5 q-21.5 -21.5 -52.5 -21.5 Z" /><glyph glyph-name="uni1E41" unicode="&#x1e41;" d="M210 0 l-141 0 l0 499 l141 0 l0 -61 q56 74 152 74 q54 0 96.5 -24 q42.5 -24 58.5 -61 q25 38 72 61.5 q47 23.5 100 23.5 q82 0 130 -52 q48 -52 48 -148 l0 -312 l-141 0 l0 280 q0 103 -83 103 q-32 0 -61 -19 q-29 -19 -43 -49 l0 -315 l-141 0 l0 280 q0 103 -83 103 q-30 0 -60 -19 q-30 -19 -45 -47 l0 -317 ZM468 569 q-30 0 -52 21.5 q-22 21.5 -22 52.5 q0 30 22 51.5 q22 21.5 52 21.5 q31 0 52 -21 q21 -21 21 -52 q0 -31 -21 -52.5 q-21 -21.5 -52 -21.5 Z" /><glyph glyph-name="uni1E56" unicode="&#x1e56;" d="M221 0 l-144 0 l0 700 l306 0 q113 0 178 -59 q66 -58 66 -152 q0 -95 -66 -153 q-65 -59 -178 -59 l-162 0 l0 -277 ZM221 574 l0 -174 l152 0 q52 0 81 22.5 q29 22.5 29 64.5 q0 42 -29 64.5 q-29 22.5 -81 22.5 l-152 0 ZM331 760 q-30 0 -52 21.5 q-22 21.5 -22 52.5 q0 30 22 51.5 q22 21.5 52 21.5 q31 0 52.5 -21.5 q21.5 -21.5 21.5 -51.5 q0 -31 -21.5 -52.5 q-21.5 -21.5 -52.5 -21.5 Z" /><glyph glyph-name="uni1E57" unicode="&#x1e57;" d="M374 512 q102 0 168 -76 q67 -74 67 -187 q0 -111 -67 -187 q-66 -75 -168 -75 q-105 0 -164 74 l0 -261 l-141 0 l0 699 l141 0 l0 -61 q56 74 164 74 ZM334 389 q-40 0 -73 -21 q-33 -21 -51 -54 l0 -130 q18 -33 51 -53.5 q33 -20.5 73 -20.5 q60 0 97 40 q38 41 38 99 q0 59 -38 100 q-37 40 -97 40 ZM335 569 q-30 0 -52 21.5 q-22 21.5 -22 52.5 q0 30 22 51.5 q22 21.5 52 21.5 q31 0 52 -21 q21 -21 21 -52 q0 -31 -21 -52.5 q-21 -21.5 -52 -21.5 Z" /><glyph glyph-name="uni1E60" unicode="&#x1e60;" d="M309 -14 q-158 0 -266 75 l0 150 q44 -38 116 -66 q73 -27 144 -27 q59 0 97 21.5 q38 21.5 38 59.5 q0 41 -36 58 q-15 9 -40 18 l-24 8 l-56 17 l-52 17 q-11 3 -47 17 q-31 12 -45 21 q-52 36 -66 61 q-24 48 -24 98 q0 93 71 146 q71 54 193 54 q123 0 229 -58 l0 -140 q-107 66 -227 66 q-119 0 -119 -69 q0 -30 37 -48 q22 -12 57 -21 q47 -13 76 -22 q87 -27 152 -73 q70 -49 70 -146 q0 -101 -79 -159 q-79 -58 -199 -58 ZM304 760 q-30 0 -52 21.5 q-22 21.5 -22 52.5 q0 30 22 51.5 q22 21.5 52 21.5 q31 0 52.5 -21.5 q21.5 -21.5 21.5 -51.5 q0 -31 -21.5 -52.5 q-21.5 -21.5 -52.5 -21.5 Z" /><glyph glyph-name="uni1E61" unicode="&#x1e61;" d="M253 -13 q-133 0 -210 47 l0 125 q36 -24 91.5 -40.5 q55.5 -16.5 112.5 -16.5 q86 0 86 42 q0 20 -25 31 q-13 6 -26 9 l-37 9 q-8 2 -21.5 5.5 q-13.5 3.5 -18.5 5.5 q-89 24 -125.5 57.5 q-36.5 33.5 -36.5 97.5 q0 71 58.5 112 q58.5 41 161.5 41 q114 0 187 -46 l0 -120 q-89 52 -181 52 q-80 0 -80 -40 q0 -8 4.5 -14.5 q4.5 -6.5 9 -9.5 q4.5 -3 14.5 -9 q6 -2 22 -6.5 q16 -4.5 21 -6.5 l53 -11 q83 -19 123 -56.5 q40 -37.5 40 -101.5 q0 -70 -61 -113 q-61 -43 -162 -43 ZM248 569 q-30 0 -52 21.5 q-22 21.5 -22 52.5 q0 30 22 51.5 q22 21.5 52 21.5 q31 0 52 -21 q21 -21 21 -52 q0 -31 -21 -52.5 q-21 -21.5 -52 -21.5 Z" /><glyph glyph-name="uni1E6A" unicode="&#x1e6a;" d="M30 571 l0 129 l587 0 l0 -129 l-222 0 l0 -571 l-144 0 l0 571 l-221 0 ZM322 760 q-30 0 -52 21.5 q-22 21.5 -22 52.5 q0 30 22 51.5 q22 21.5 52 21.5 q31 0 52.5 -21.5 q21.5 -21.5 21.5 -51.5 q0 -31 -21.5 -52.5 q-21.5 -21.5 -52.5 -21.5 Z" /><glyph glyph-name="uni1E6B" unicode="&#x1e6b;" d="M116 381 l-98 0 l0 118 l98 0 l0 137 l141 0 l0 -137 l142 0 l0 -118 l-142 0 l0 -198 q0 -37 16 -53.5 q16 -16.5 52 -16.5 q37 0 73 18 l0 -117 q-44 -27 -119 -27 q-163 0 -163 168 l0 226 ZM187 679 q-30 0 -52 21.5 q-22 21.5 -22 52.5 q0 30 22 51.5 q22 21.5 52 21.5 q31 0 52 -21 q21 -21 21 -52 q0 -31 -21 -52.5 q-21 -21.5 -52 -21.5 Z" /><glyph glyph-name="Wgrave" unicode="&#x1e80;" d="M383 -4 l-127 0 l-235 704 l160 0 l144 -472 l158 474 l112 0 l159 -474 l144 472 l157 0 l-236 -704 l-127 0 l-153 467 l-156 -467 ZM334 907 l170 0 l95 -146 l-122 0 l-143 146 Z" /><glyph glyph-name="wgrave" unicode="&#x1e81;" d="M308 -4 l-120 0 l-169 503 l141 0 l99 -297 l98 299 l113 0 l101 -299 l97 297 l140 0 l-171 -503 l-122 0 l-104 301 l-103 -301 ZM210 722 l171 0 l95 -146 l-122 0 l-144 146 Z" /><glyph glyph-name="Wacute" unicode="&#x1e82;" d="M383 -4 l-127 0 l-235 704 l160 0 l144 -472 l158 474 l112 0 l159 -474 l144 472 l157 0 l-236 -704 l-127 0 l-153 467 l-156 -467 ZM603 761 l-122 0 l95 146 l170 0 l-143 -146 Z" /><glyph glyph-name="wacute" unicode="&#x1e83;" d="M308 -4 l-120 0 l-169 503 l141 0 l99 -297 l98 299 l113 0 l101 -299 l97 297 l140 0 l-171 -503 l-122 0 l-104 301 l-103 -301 ZM480 570 l-122 0 l95 146 l170 0 l-143 -146 Z" /><glyph glyph-name="Wdieresis" unicode="&#x1e84;" d="M383 -4 l-127 0 l-235 704 l160 0 l144 -472 l158 474 l112 0 l159 -474 l144 472 l157 0 l-236 -704 l-127 0 l-153 467 l-156 -467 ZM701 781 q-21 -21 -52 -21 q-31 0 -53 21 q-21 22 -21 53 q0 31 21 52 q22 21 53 21 q31 0 52 -21 q21 -21 21 -52 q0 -31 -21 -53 ZM429 760 q-30 0 -52 21.5 q-22 21.5 -22 52.5 q0 30 22 51.5 q22 21.5 52 21.5 q31 0 52.5 -21 q21.5 -21 21.5 -52 q0 -31 -21.5 -52.5 q-21.5 -21.5 -52.5 -21.5 Z" /><glyph glyph-name="wdieresis" unicode="&#x1e85;" d="M308 -4 l-120 0 l-169 503 l141 0 l99 -297 l98 299 l113 0 l101 -299 l97 297 l140 0 l-171 -503 l-122 0 l-104 301 l-103 -301 ZM575 590 q-21 -21 -52 -21 q-31 0 -53 21 q-21 22 -21 53 q0 31 21 52 q22 21 53 21 q31 0 52 -21 q22 -21 22 -52 q0 -31 -22 -53 ZM303 569 q-30 0 -52 21.5 q-22 21.5 -22 52.5 q0 30 22 51.5 q22 21.5 52 21.5 q31 0 52.5 -21 q21.5 -21 21.5 -52 q0 -31 -21.5 -52.5 q-21.5 -21.5 -52.5 -21.5 Z" /><glyph glyph-name="Ygrave" unicode="&#x1ef2;" d="M420 0 l-143 0 l0 314 l-271 386 l170 0 l174 -249 l175 249 l165 0 l-270 -383 l0 -317 ZM158 907 l170 0 l95 -146 l-122 0 l-143 146 Z" /><glyph glyph-name="ygrave" unicode="&#x1ef3;" d="M134 -206 q-62 0 -100 20 l0 123 q35 -20 76 -20 q38 0 63.5 23.5 q25.5 23.5 47.5 76.5 l-215 482 l152 0 l132 -328 l125 328 l149 0 l-231 -551 q-66 -154 -199 -154 ZM109 722 l171 0 l95 -146 l-122 0 l-144 146 Z" /><glyph glyph-name="endash" unicode="&#x2013;" d="M675 214 l-579 0 l0 127 l579 0 l0 -127 Z" /><glyph glyph-name="emdash" unicode="&#x2014;" d="M821 214 l-725 0 l0 127 l725 0 l0 -127 Z" /><glyph glyph-name="uni2015" unicode="&#x2015;" d="M675 214 l-579 0 l0 127 l579 0 l0 -127 Z" /><glyph glyph-name="quoteleft" unicode="&#x2018;" d="M146 700 l116 0 l-86 -303 l-151 0 l121 303 Z" /><glyph glyph-name="quoteright" unicode="&#x2019;" d="M142 397 l-116 0 l86 303 l151 0 l-121 -303 Z" /><glyph glyph-name="quotesinglbase" unicode="&#x201a;" d="M122 -152 l-116 0 l86 303 l151 0 l-121 -303 Z" /><glyph glyph-name="quotedblleft" unicode="&#x201c;" d="M363 700 l116 0 l-86 -303 l-151 0 l121 303 ZM146 700 l116 0 l-86 -303 l-151 0 l121 303 Z" /><glyph glyph-name="quotedblright" unicode="&#x201d;" d="M359 397 l-116 0 l86 303 l151 0 l-121 -303 ZM142 397 l-116 0 l86 303 l151 0 l-121 -303 Z" /><glyph glyph-name="quotedblbase" unicode="&#x201e;" d="M339 -152 l-116 0 l86 303 l151 0 l-121 -303 ZM122 -152 l-116 0 l86 303 l151 0 l-121 -303 Z" /><glyph glyph-name="dagger" unicode="&#x2020;" d="M307 0 l-114 0 l0 409 l-164 0 l0 111 l164 0 l0 180 l114 0 l0 -180 l164 0 l0 -111 l-164 0 l0 -409 Z" /><glyph glyph-name="daggerdbl" unicode="&#x2021;" d="M307 0 l-114 0 l0 174 l-164 0 l0 111 l164 0 l0 124 l-164 0 l0 111 l164 0 l0 180 l114 0 l0 -180 l164 0 l0 -111 l-164 0 l0 -124 l164 0 l0 -111 l-164 0 l0 -174 Z" /><glyph glyph-name="bullet" unicode="&#x2022;" d="M60 388 q0 61 43 104 q43 43 104 43 q61 0 103 -43 q43 -43 43 -104 q0 -60 -43 -103 q-42 -43 -103 -43 q-61 0 -104 43 q-43 43 -43 103 Z" /><glyph glyph-name="ellipsis" unicode="&#x2026;" d="M132 -11 q-37 0 -62 25.5 q-25 25.5 -25 62.5 q0 36 25 61 q25 25 62 25 q36 0 61.5 -25 q25.5 -25 25.5 -61 q0 -37 -25.5 -62.5 q-25.5 -25.5 -61.5 -25.5 ZM290 77 q0 36 25.5 61 q25.5 25 61.5 25 q36 0 61.5 -25 q25.5 -25 25.5 -61 q0 -37 -25.5 -62.5 q-25.5 -25.5 -61.5 -25.5 q-36 0 -61.5 25.5 q-25.5 25.5 -25.5 62.5 ZM535 77 q0 36 25.5 61 q25.5 25 61.5 25 q36 0 61.5 -25 q25.5 -25 25.5 -61 q0 -37 -25.5 -62.5 q-25.5 -25.5 -61.5 -25.5 q-36 0 -61.5 25.5 q-25.5 25.5 -25.5 62.5 Z" /><glyph glyph-name="perthousand" unicode="&#x2030;" d="M251 0 l-101 0 l418 700 l101 0 l-418 -700 ZM74 657 q49 49 127 49 q78 0 127 -49 q50 -50 50 -122 q0 -72 -50 -122 q-49 -49 -127 -49 q-78 0 -127 49 q-50 50 -50 122 q0 72 50 122 ZM143 477 q23 -23 58 -23 q34 0 57 23 q23 23 23 58 q0 35 -23 58 q-23 23 -57 23 q-35 0 -58 -23 q-22 -23 -22 -58 q0 -35 22 -58 ZM489 287 q49 49 127 49 q78 0 127 -49 q50 -50 50 -122 q0 -72 -50 -122 q-49 -49 -127 -49 q-78 0 -127 49 q-50 50 -50 122 q0 72 50 122 ZM558 107 q23 -23 58 -23 q34 0 57 23 q23 23 23 58 q0 35 -23 58 q-23 23 -57 23 q-35 0 -58 -23 q-22 -23 -22 -58 q0 -35 22 -58 ZM882 286 q49 49 127 49 q78 0 127 -49 q50 -50 50 -122 q0 -72 -50 -122 q-49 -49 -127 -49 q-78 0 -127 49 q-50 50 -50 122 q0 72 50 122 ZM951 106 q23 -23 58 -23 q34 0 57 23 q23 23 23 58 q0 35 -23 58 q-23 23 -57 23 q-35 0 -58 -23 q-22 -23 -22 -58 q0 -35 22 -58 Z" /><glyph glyph-name="guilsinglleft" unicode="&#x2039;" d="M310 35 l-141 0 l-137 179 l0 71 l137 179 l141 0 l-161 -214 l161 -215 Z" /><glyph glyph-name="guilsinglright" unicode="&#x203a;" d="M172 35 l-141 0 l161 215 l-161 214 l141 0 l137 -179 l0 -71 l-137 -179 Z" /><glyph glyph-name="fraction" unicode="&#x2044;" d="M-44 0 l-108 0 l422 700 l108 0 l-422 -700 Z" /><glyph glyph-name="zerosuperior" unicode="&#x2070;" d="M190 315 q-80 0 -126 58 q-45 59 -45 138 q0 79 45 138 q46 58 126 58 q79 0 124 -58 q46 -58 46 -138 q0 -80 -46 -138 q-45 -58 -124 -58 ZM190 398 q28 -2 47 21.5 q19 23.5 23.5 57.5 q4.5 34 0 68 q-4.5 34 -23.5 57.5 q-19 23.5 -47 21.5 q-28 2 -48 -21.5 q-20 -23.5 -24 -57.5 q-4 -34 0 -68 q4 -34 24 -57.5 q20 -23.5 48 -21.5 Z" /><glyph glyph-name="foursuperior" unicode="&#x2074;" d="M295 322 l-92 0 l0 90 l-190 0 l0 68 l185 220 l97 0 l0 -214 l54 0 l0 -74 l-54 0 l0 -90 ZM203 594 l-93 -108 l93 0 l0 108 Z" /><glyph glyph-name="fivesuperior" unicode="&#x2075;" d="M137 315 q-65 0 -112 27 l0 89 q50 -32 108 -32 q32 0 53 13.5 q21 13.5 21 38.5 q0 23 -20 37 q-20 14 -55 14 q-47 0 -95 -15 l25 213 l216 0 l0 -80 l-144 0 l-5 -48 q10 2 26 2 q66 0 107 -33.5 q41 -33.5 41 -89.5 q0 -65 -48 -101 q-49 -35 -118 -35 Z" /><glyph glyph-name="sixsuperior" unicode="&#x2076;" d="M184 315 q-75 0 -116.5 47.5 q-41.5 47.5 -41.5 129.5 q0 90 46 152 q46 63 136 63 q56 0 90 -23 l0 -84 q-34 24 -79 24 q-39 0 -64.5 -22.5 q-25.5 -22.5 -28.5 -61.5 q28 34 80 34 q55 0 89.5 -33.5 q34.5 -33.5 34.5 -90.5 q0 -60 -41.5 -97.5 q-41.5 -37.5 -104.5 -37.5 ZM135.5 412 q16.5 -20 42.5 -20 q26 0 41.5 16.5 q15.5 16.5 15.5 41.5 q0 22 -16.5 38 q-16.5 16 -40.5 16 q-18 0 -35 -10.5 q-17 -10.5 -25 -27.5 q1 -34 17.5 -54 Z" /><glyph glyph-name="sevensuperior" unicode="&#x2077;" d="M147 322 l-104 0 l151 298 l-173 0 l0 80 l282 0 l0 -75 l-156 -303 Z" /><glyph glyph-name="eightsuperior" unicode="&#x2078;" d="M180 315 q-69 0 -114 31 q-45 31 -45 86 q0 29 20 55 q20 26 48 36 q-22 10 -36 31 q-14 21 -14 46 q0 47 40 77 q40 30 101 30 q60 0 100 -30 q40 -30 40 -77 q0 -24 -14.5 -45.5 q-14.5 -21.5 -35.5 -31.5 q30 -10 49 -35.5 q19 -25.5 19 -55.5 q0 -55 -45 -86 q-45 -31 -113 -31 ZM180 392 q27 0 44.5 14 q17.5 14 17.5 34 q0 22 -17.5 35.5 q-17.5 13.5 -44.5 13.5 q-28 0 -45.5 -13.5 q-17.5 -13.5 -17.5 -35.5 q0 -21 17.5 -34.5 q17.5 -13.5 45.5 -13.5 ZM180 549 q22 0 36.5 11.5 q14.5 11.5 14.5 29.5 q0 19 -14.5 30.5 q-14.5 11.5 -36.5 11.5 q-23 0 -38 -11.5 q-15 -11.5 -15 -30.5 q0 -18 15 -29.5 q15 -11.5 38 -11.5 Z" /><glyph glyph-name="ninesuperior" unicode="&#x2079;" d="M171 707 q75 0 117 -47.5 q42 -47.5 42 -129.5 q0 -88 -47 -152 q-47 -63 -135 -63 q-57 0 -91 23 l0 84 q35 -24 79 -24 q39 0 64.5 22.5 q25.5 22.5 29.5 61.5 q-31 -34 -81 -34 q-54 0 -88.5 34 q-34.5 34 -34.5 90 q0 59 41 97 q43 38 104 38 ZM178 630 q-26 0 -41.5 -16.5 q-15.5 -16.5 -15.5 -41.5 q0 -22 16 -38 q16 -16 40 -16 q42 0 60 38 q-1 34 -17.5 54 q-16.5 20 -41.5 20 Z" /><glyph glyph-name="zeroinferior" unicode="&#x2080;" d="M190 -7 q-80 0 -126 58 q-45 59 -45 138 q0 79 45 138 q46 58 126 58 q79 0 124 -58 q46 -58 46 -138 q0 -80 -46 -138 q-45 -58 -124 -58 ZM190 76 q28 -2 47 21.5 q19 23.5 23.5 57.5 q4.5 34 0 68 q-4.5 34 -23.5 57.5 q-19 23.5 -47 21.5 q-28 2 -48 -21.5 q-20 -23.5 -24 -57.5 q-4 -34 0 -68 q4 -34 24 -57.5 q20 -23.5 48 -21.5 Z" /><glyph glyph-name="oneinferior" unicode="&#x2081;" d="M214 0 l-96 0 l0 280 l-101 -51 l0 94 l105 55 l92 0 l0 -378 Z" /><glyph glyph-name="twoinferior" unicode="&#x2082;" d="M319 0 l-281 0 l0 69 l108 92 q65 56 65 93 q0 20 -15.5 31.5 q-15.5 11.5 -40.5 11.5 q-54 0 -104 -39 l0 95 q47 32 112 32 q57 0 100 -33 q44 -32 44 -86 q0 -41 -17.5 -72 q-17.5 -31 -62.5 -71 l-48 -43 l140 0 l0 -80 Z" /><glyph glyph-name="threeinferior" unicode="&#x2083;" d="M144 -7 q-71 0 -122 30 l0 88 q55 -34 114 -34 q31 0 51.5 14 q20.5 14 20.5 37 q0 22 -17.5 35.5 q-17.5 13.5 -47.5 13.5 q-36 0 -61 -11 l0 59 l87 73 l-136 0 l0 80 l253 0 l0 -71 l-80 -69 q43 -9 70.5 -36.5 q27.5 -27.5 27.5 -75.5 q0 -59 -47 -97 q-47 -36 -113 -36 Z" /><glyph glyph-name="fourinferior" unicode="&#x2084;" d="M295 0 l-92 0 l0 90 l-190 0 l0 68 l185 220 l97 0 l0 -214 l54 0 l0 -74 l-54 0 l0 -90 ZM203 272 l-93 -108 l93 0 l0 108 Z" /><glyph glyph-name="fiveinferior" unicode="&#x2085;" d="M137 -7 q-65 0 -112 27 l0 89 q50 -32 108 -32 q32 0 53 13.5 q21 13.5 21 38.5 q0 23 -20 37 q-20 14 -55 14 q-47 0 -95 -15 l25 213 l216 0 l0 -80 l-144 0 l-5 -48 q10 2 26 2 q66 0 107 -33.5 q41 -33.5 41 -89.5 q0 -65 -48 -101 q-49 -35 -118 -35 Z" /><glyph glyph-name="sixinferior" unicode="&#x2086;" d="M184 -7 q-75 0 -116.5 47.5 q-41.5 47.5 -41.5 129.5 q0 90 46 152 q47 63 136 63 q56 0 90 -23 l0 -84 q-34 24 -79 24 q-39 0 -64.5 -22.5 q-25.5 -22.5 -28.5 -61.5 q28 34 80 34 q55 0 89.5 -33.5 q34.5 -33.5 34.5 -90.5 q0 -60 -41.5 -97.5 q-41.5 -37.5 -104.5 -37.5 ZM135.5 90 q16.5 -20 42.5 -20 q26 0 41.5 16.5 q15.5 16.5 15.5 41.5 q0 22 -16.5 38 q-16.5 16 -40.5 16 q-18 0 -35 -10.5 q-17 -10.5 -25 -27.5 q1 -34 17.5 -54 Z" /><glyph glyph-name="seveninferior" unicode="&#x2087;" d="M147 0 l-104 0 l151 298 l-173 0 l0 80 l282 0 l0 -75 l-156 -303 Z" /><glyph glyph-name="eightinferior" unicode="&#x2088;" d="M180 -7 q-69 0 -114 31 q-45 31 -45 86 q0 29 20 55 q20 26 48 36 q-22 10 -36 31 q-14 21 -14 46 q0 47 40 77 q40 30 101 30 q60 0 100 -30 q40 -30 40 -77 q0 -24 -14.5 -45.5 q-14.5 -21.5 -35.5 -31.5 q30 -10 49 -35.5 q19 -25.5 19 -55.5 q0 -55 -45 -86 q-45 -31 -113 -31 ZM180 70 q27 0 44.5 14 q17.5 14 17.5 34 q0 22 -17.5 35.5 q-17.5 13.5 -44.5 13.5 q-28 0 -45.5 -13.5 q-17.5 -13.5 -17.5 -35.5 q0 -21 17.5 -34.5 q17.5 -13.5 45.5 -13.5 ZM180 227 q22 0 36.5 11.5 q14.5 11.5 14.5 29.5 q0 19 -14.5 30.5 q-14.5 11.5 -36.5 11.5 q-23 0 -38 -11.5 q-15 -11.5 -15 -30.5 q0 -18 15 -29.5 q15 -11.5 38 -11.5 Z" /><glyph glyph-name="nineinferior" unicode="&#x2089;" d="M171 384 q75 0 117 -47.5 q42 -47.5 42 -129.5 q0 -88 -47 -152 q-47 -63 -135 -63 q-57 0 -91 23 l0 84 q34 -24 79 -24 q39 0 64.5 22.5 q25.5 22.5 29.5 61.5 q-31 -34 -81 -34 q-54 0 -88.5 34 q-34.5 34 -34.5 90 q0 59 41 97 q43 38 104 38 ZM178 307 q-26 0 -41.5 -16.5 q-15.5 -16.5 -15.5 -41.5 q0 -22 16 -38 q16 -16 40 -16 q42 0 60 38 q-1 34 -17.5 54 q-16.5 20 -41.5 20 Z" /><glyph glyph-name="franc" unicode="&#x20a3;" d="M115 108 l-102 0 l0 103 l102 0 l0 489 l513 0 l0 -131 l-369 0 l0 -140 l285 0 l0 -128 l-285 0 l0 -90 l149 0 l0 -103 l-149 0 l0 -108 l-144 0 l0 108 Z" /><glyph glyph-name="lira" unicode="&#x20a4;" d="M128 362 l-81 0 l0 79 l81 0 l0 34 q0 111 68 175 q68 64 185 64 q93 0 160 -35 l0 -134 q-62 34 -137 34 q-132 0 -132 -124 l0 -14 l211 0 l0 -79 l-211 0 l0 -61 l211 0 l0 -79 l-211 0 l0 -31 q0 -44 -29 -62 l314 0 l0 -129 l-510 0 l0 129 l14 0 q41 0 54 17.5 q13 17.5 13 64.5 l0 11 l-81 0 l0 79 l81 0 l0 61 Z" /><glyph glyph-name="peseta" unicode="&#x20a7;" d="M252 0 l-144 0 l0 426 l-91 0 l0 111 l91 0 l0 163 l306 0 q96 0 159.5 -44 q63.5 -44 79.5 -119 l81 0 l0 -111 l-85 0 q-21 -69 -82.5 -109 q-61.5 -40 -152.5 -40 l-162 0 l0 -277 ZM252 574 l0 -174 l152 0 q52 0 81 22.5 q29 22.5 29 64.5 q0 42 -29 64.5 q-29 22.5 -81 22.5 l-152 0 Z" /><glyph glyph-name="Euro" unicode="&#x20ac;" d="M462 479 l0 -86 l-215 0 q-2 -30 -2 -36 q0 -9 2 -31 l215 0 l0 -87 l-196 0 q22 -58 72 -89.5 q50 -31.5 119 -31.5 q92 0 158 51 l0 -141 q-71 -42 -176 -42 q-127 0 -212 69 q-87 72 -115 184 l-82 0 l0 87 l69 0 q-1 8 -1 33 q0 4 2 34 l-70 0 l0 86 l87 0 q31 105 117 170 q86 65 205 65 q93 0 161 -37 l0 -136 q-68 41 -143 41 q-135 0 -184 -103 l189 0 Z" /><glyph glyph-name="uni20B4" unicode="&#x20b4;" d="M556 388 l-510 0 l0 79 l291 0 q33 19 33 55 q0 65 -114 65 q-89 0 -164 -33 l0 129 q68 31 183 31 q107 0 178 -46 q72 -45 72 -130 q0 -47 -28 -71 l59 0 l0 -79 ZM323 -14 q-108 0 -180 45 q-71 47 -71 134 q0 58 44 96 l-70 0 l0 79 l510 0 l0 -79 l-270 0 q-60 -29 -60 -76 q0 -70 122 -70 q39 0 92 11 q49 12 84 29 l0 -132 q-83 -37 -201 -37 Z" /><glyph glyph-name="uni20B6" unicode="&#x20b6;&#x20b7;&#x20b9;&#x20ba;&#x20bb;&#x20bc;&#x20bd;&#x20be;&#x20bf;&#x20c0;&#x20c1;&#x20c2;&#x20c3;&#x20c4;&#x20c5;&#x20c6;&#x20c7;&#x20c8;&#x20c9;&#x20ca;&#x20cb;&#x20cc;&#x20cd;&#x20ce;&#x20cf;" d="M132 277 l-110 0 l0 103 l110 0 l0 320 l301 0 q111 0 178 -59 q66 -58 66 -152 q0 -95 -66 -153 q-67 -59 -178 -59 l-158 0 l0 -66 l254 0 l0 -103 l-254 0 l0 -108 l-143 0 l0 108 l-110 0 l0 103 l110 0 l0 66 ZM275 574 l0 -194 l139 0 q55 0 86.5 25.5 q31.5 25.5 31.5 71.5 q0 47 -31.5 72 q-31.5 25 -86.5 25 l-139 0 Z" /><glyph glyph-name="uni2113" unicode="&#x2113;" d="M234 -13 q-86 0 -130 46.5 q-44 46.5 -44 130.5 l0 306 q0 105 41 173 q42 69 132 69 q68 0 107.5 -46.5 q39.5 -46.5 39.5 -119.5 q0 -171 -218 -362 l0 -18 q0 -84 94 -84 q58 0 101 35 l0 -92 q-44 -38 -123 -38 ZM162 489 l0 -177 q51 49 88 113 q37 62 37 117 q0 71 -52 71 q-32 0 -52 -31.5 q-20 -31.5 -21 -92.5 Z" /><glyph glyph-name="uni2116" unicode="&#x2116;" d="M1101 225 l-326 0 l0 86 l326 0 l0 -86 ZM811 657 q49 49 127 49 q78 0 127 -49 q50 -50 50 -122 q0 -72 -50 -122 q-49 -49 -127 -49 q-78 0 -127 49 q-50 50 -50 122 q0 72 50 122 ZM880 477 q23 -23 58 -23 q34 0 57 23 q23 23 23 58 q0 35 -23 58 q-23 23 -57 23 q-35 0 -58 -23 q-22 -23 -22 -58 q0 -35 22 -58 ZM218 0 l-141 0 l0 700 l123 0 l353 -448 l0 448 l140 0 l0 -700 l-119 0 l-356 450 l0 -450 Z" /><glyph glyph-name="trademark" unicode="&#x2122;" d="M405 389 l-78 0 l0 311 l73 0 l83 -113 l81 113 l74 0 l0 -311 l-79 0 l0 185 l-56 -74 l-40 0 l-58 75 l0 -186 ZM191 389 l-79 0 l0 240 l-95 0 l0 71 l269 0 l0 -71 l-95 0 l0 -240 Z" /><glyph glyph-name="Omega" unicode="&#x2126;" d="M721 382 q0 -73 -27.5 -142 q-27.5 -69 -71.5 -111 l98 0 l0 -129 l-266 0 l0 109 q53 38 86.5 104 q33.5 66 33.5 144 q0 97 -49 159 q-49 63 -129 63 q-80 0 -129 -63 q-49 -62 -49 -159 q0 -78 33.5 -144 q33.5 -66 86.5 -104 l0 -109 l-266 0 l0 129 l98 0 q-44 42 -71.5 111 q-27.5 69 -27.5 142 q0 136 89 234 q89 98 236 98 q147 0 236 -98 q89 -98 89 -234 Z" /><glyph glyph-name="estimated" unicode="&#x212e;" d="M394 -14 q-146 0 -243 96 q-98 96 -98 243 q0 139 94 239 q94 100 247 100 q73 0 137.5 -27.5 q64.5 -27.5 106.5 -74.5 q88 -94 94 -210 l0 -29 l-565 0 l0 -205 q90 -98 227 -98 q92 0 165 45.5 q73 45.5 111 125.5 l38 0 q-35 -88 -117 -146 q-83 -59 -197 -59 ZM167 534 l0 -178 l453 0 l0 178 q-92 98 -226 98 q-137 0 -227 -98 Z" /><glyph glyph-name="onethird" unicode="&#x2153;" d="M207 0 l-108 0 l422 700 l108 0 l-422 -700 ZM214 322 l-96 0 l0 280 l-101 -51 l0 94 l105 55 l92 0 l0 -378 ZM609 -7 q-71 0 -122 30 l0 88 q55 -34 114 -34 q31 0 51.5 14 q20.5 14 20.5 37 q0 22 -17.5 35.5 q-17.5 13.5 -47.5 13.5 q-36 0 -61 -11 l0 59 l87 73 l-136 0 l0 80 l253 0 l0 -71 l-80 -69 q43 -9 70.5 -36.5 q27.5 -27.5 27.5 -75.5 q0 -59 -47 -97 q-46 -36 -113 -36 Z" /><glyph glyph-name="twothirds" unicode="&#x2154;" d="M319 322 l-281 0 l0 69 l108 92 q65 56 65 93 q0 20 -15.5 31.5 q-15.5 11.5 -40.5 11.5 q-54 0 -104 -39 l0 95 q47 32 112 32 q57 0 100 -33 q44 -32 44 -86 q0 -41 -17.5 -72 q-17.5 -31 -62.5 -71 l-48 -43 l140 0 l0 -80 ZM703 -7 q-71 0 -122 30 l0 88 q55 -34 114 -34 q31 0 51.5 14 q20.5 14 20.5 37 q0 22 -17.5 35.5 q-17.5 13.5 -47.5 13.5 q-36 0 -61 -11 l0 59 l87 73 l-136 0 l0 80 l253 0 l0 -71 l-80 -69 q43 -9 70.5 -36.5 q27.5 -27.5 27.5 -75.5 q0 -59 -47 -97 q-46 -36 -113 -36 ZM301 0 l-108 0 l422 700 l108 0 l-422 -700 Z" /><glyph glyph-name="uni2155" unicode="&#x2155;" d="M207 0 l-108 0 l422 700 l108 0 l-422 -700 ZM214 322 l-96 0 l0 280 l-101 -51 l0 94 l105 55 l92 0 l0 -378 ZM581 -7 q-65 0 -112 27 l0 89 q50 -32 108 -32 q32 0 53 13.5 q21 13.5 21 38.5 q0 23 -20 37 q-20 14 -55 14 q-47 0 -95 -15 l25 213 l216 0 l0 -80 l-144 0 l-5 -48 q10 2 26 2 q66 0 107 -33.5 q41 -33.5 41 -89.5 q0 -65 -48 -101 q-49 -35 -118 -35 Z" /><glyph glyph-name="uni2156" unicode="&#x2156;" d="M319 322 l-281 0 l0 69 l108 92 q65 56 65 93 q0 20 -15.5 31.5 q-15.5 11.5 -40.5 11.5 q-54 0 -104 -39 l0 95 q47 32 112 32 q57 0 100 -33 q44 -32 44 -86 q0 -41 -17.5 -72 q-17.5 -31 -62.5 -71 l-48 -43 l140 0 l0 -80 ZM675 -7 q-65 0 -112 27 l0 89 q50 -32 108 -32 q32 0 53 13.5 q21 13.5 21 38.5 q0 23 -20 37 q-20 14 -55 14 q-47 0 -95 -15 l25 213 l216 0 l0 -80 l-144 0 l-5 -48 q10 2 26 2 q66 0 107 -33.5 q41 -33.5 41 -89.5 q0 -65 -48 -101 q-49 -35 -118 -35 ZM301 0 l-108 0 l422 700 l108 0 l-422 -700 Z" /><glyph glyph-name="uni2157" unicode="&#x2157;" d="M251 0 l-108 0 l422 700 l108 0 l-422 -700 ZM624 -7 q-66 0 -112 27 l0 89 q50 -32 108 -32 q32 0 53 13.5 q21 13.5 21 38.5 q0 23 -20 37 q-20 14 -55 14 q-47 0 -95 -15 l25 213 l216 0 l0 -80 l-144 0 l-5 -48 q10 2 26 2 q66 0 107 -33.5 q41 -33.5 41 -89.5 q0 -65 -48 -101 q-49 -35 -118 -35 ZM144 315 q-71 0 -122 30 l0 88 q55 -34 114 -34 q31 0 51.5 14 q20.5 14 20.5 37 q0 22 -17.5 35.5 q-17.5 13.5 -47.5 13.5 q-36 0 -61 -11 l0 59 l87 73 l-136 0 l0 80 l253 0 l0 -71 l-80 -69 q43 -9 70.5 -36.5 q27.5 -27.5 27.5 -75.5 q0 -59 -47 -97 q-47 -36 -113 -36 Z" /><glyph glyph-name="uni2158" unicode="&#x2158;" d="M295 322 l-92 0 l0 90 l-190 0 l0 68 l185 220 l97 0 l0 -214 l54 0 l0 -74 l-54 0 l0 -90 ZM203 594 l-93 -108 l93 0 l0 108 ZM666 -7 q-66 0 -112 27 l0 89 q50 -32 108 -32 q32 0 53 13.5 q21 13.5 21 38.5 q0 23 -20 37 q-20 14 -55 14 q-47 0 -95 -15 l25 213 l216 0 l0 -80 l-144 0 l-5 -48 q10 2 26 2 q66 0 107 -33.5 q41 -33.5 41 -89.5 q0 -65 -48 -101 q-49 -35 -118 -35 ZM293 0 l-108 0 l422 700 l108 0 l-422 -700 Z" /><glyph glyph-name="uni2159" unicode="&#x2159;" d="M207 0 l-108 0 l422 700 l108 0 l-422 -700 ZM214 322 l-96 0 l0 280 l-101 -51 l0 94 l105 55 l92 0 l0 -378 ZM608 -7 q-75 0 -116.5 47.5 q-41.5 47.5 -41.5 129.5 q0 90 46 152 q46 63 136 63 q56 0 90 -23 l0 -84 q-34 24 -79 24 q-39 0 -64.5 -22.5 q-25.5 -22.5 -28.5 -61.5 q28 34 80 34 q55 0 89.5 -33.5 q34.5 -33.5 34.5 -90.5 q0 -61 -42 -98 q-41 -37 -104 -37 ZM559.5 90 q16.5 -20 42.5 -20 q26 0 41.5 16.5 q15.5 16.5 15.5 41.5 q0 22 -16.5 38 q-16.5 16 -40.5 16 q-18 0 -35 -10.5 q-17 -10.5 -25 -27.5 q1 -34 17.5 -54 Z" /><glyph glyph-name="uni215A" unicode="&#x215a;" d="M651 -7 q-75 0 -116.5 47.5 q-41.5 47.5 -41.5 129.5 q0 90 46 152 q47 63 136 63 q56 0 90 -23 l0 -84 q-35 24 -79 24 q-39 0 -64.5 -22.5 q-25.5 -22.5 -28.5 -61.5 q28 34 80 34 q55 0 89.5 -33.5 q34.5 -33.5 34.5 -90.5 q0 -60 -41.5 -97.5 q-41.5 -37.5 -104.5 -37.5 ZM602.5 90 q16.5 -20 42.5 -20 q26 0 41.5 16.5 q15.5 16.5 15.5 41.5 q0 22 -16.5 38 q-16.5 16 -40.5 16 q-18 0 -35 -10.5 q-17 -10.5 -25 -27.5 q1 -34 17.5 -54 ZM137 315 q-65 0 -112 27 l0 89 q50 -32 108 -32 q32 0 53 13.5 q21 13.5 21 38.5 q0 23 -20 37 q-20 14 -55 14 q-47 0 -95 -15 l25 213 l216 0 l0 -80 l-144 0 l-5 -48 q10 2 26 2 q66 0 107 -33.5 q41 -33.5 41 -89.5 q0 -65 -48 -101 q-49 -35 -118 -35 ZM250 0 l-108 0 l422 700 l108 0 l-422 -700 Z" /><glyph glyph-name="oneeighth" unicode="&#x215b;" d="M207 0 l-108 0 l422 700 l108 0 l-422 -700 ZM214 322 l-96 0 l0 280 l-101 -51 l0 94 l105 55 l92 0 l0 -378 ZM621 -7 q-69 0 -114 31 q-45 31 -45 86 q0 29 20 55 q20 26 48 36 q-22 10 -36 31 q-14 21 -14 46 q0 47 40 77 q40 30 101 30 q60 0 100 -30 q40 -30 40 -77 q0 -24 -14.5 -45.5 q-14.5 -21.5 -35.5 -31.5 q30 -10 49 -35.5 q19 -25.5 19 -55.5 q0 -55 -45 -86 q-45 -31 -113 -31 ZM621 70 q27 0 44.5 14 q17.5 14 17.5 34 q0 22 -17.5 35.5 q-17.5 13.5 -44.5 13.5 q-28 0 -45.5 -13.5 q-17.5 -13.5 -17.5 -35.5 q0 -21 17.5 -34.5 q17.5 -13.5 45.5 -13.5 ZM621 227 q22 0 36.5 11.5 q14.5 11.5 14.5 29.5 q0 19 -14.5 30.5 q-14.5 11.5 -36.5 11.5 q-23 0 -38 -11.5 q-15 -11.5 -15 -30.5 q0 -18 15 -29.5 q15 -11.5 38 -11.5 Z" /><glyph glyph-name="threeeighths" unicode="&#x215c;" d="M251 0 l-108 0 l422 700 l108 0 l-422 -700 ZM665 -7 q-69 0 -114 31 q-45 31 -45 86 q0 29 20 55 q20 26 48 36 q-22 10 -36 31 q-14 21 -14 46 q0 47 40 77 q40 30 101 30 q60 0 100 -30 q40 -30 40 -77 q0 -24 -14.5 -45.5 q-14.5 -21.5 -35.5 -31.5 q30 -10 49 -35.5 q19 -25.5 19 -55.5 q0 -55 -45 -86 q-45 -31 -113 -31 ZM665 70 q27 0 44.5 14 q17.5 14 17.5 34 q0 22 -17.5 35.5 q-17.5 13.5 -44.5 13.5 q-28 0 -45.5 -13.5 q-17.5 -13.5 -17.5 -35.5 q0 -21 17.5 -34.5 q17.5 -13.5 45.5 -13.5 ZM665 227 q22 0 36.5 11.5 q14.5 11.5 14.5 29.5 q0 19 -14.5 30.5 q-14.5 11.5 -36.5 11.5 q-23 0 -38 -11.5 q-15 -11.5 -15 -30.5 q0 -18 15 -29.5 q15 -11.5 38 -11.5 ZM144 315 q-71 0 -122 30 l0 88 q55 -34 114 -34 q31 0 51.5 14 q20.5 14 20.5 37 q0 22 -17.5 35.5 q-17.5 13.5 -47.5 13.5 q-36 0 -61 -11 l0 59 l87 73 l-136 0 l0 80 l253 0 l0 -71 l-80 -69 q43 -9 70.5 -36.5 q27.5 -27.5 27.5 -75.5 q0 -59 -47 -97 q-47 -36 -113 -36 Z" /><glyph glyph-name="fiveeighths" unicode="&#x215d;" d="M664 -7 q-69 0 -114 31 q-45 31 -45 86 q0 29 20 55 q20 26 48 36 q-22 10 -36 31 q-14 21 -14 46 q0 47 40 77 q40 30 101 30 q60 0 100 -30 q40 -30 40 -77 q0 -24 -14.5 -45.5 q-14.5 -21.5 -35.5 -31.5 q30 -10 49 -35.5 q19 -25.5 19 -55.5 q0 -55 -45 -86 q-45 -31 -113 -31 ZM664 70 q27 0 44.5 14 q17.5 14 17.5 34 q0 22 -17.5 35.5 q-17.5 13.5 -44.5 13.5 q-28 0 -45.5 -13.5 q-17.5 -13.5 -17.5 -35.5 q0 -21 17.5 -34.5 q17.5 -13.5 45.5 -13.5 ZM664 227 q22 0 36.5 11.5 q14.5 11.5 14.5 29.5 q0 19 -14.5 30.5 q-14.5 11.5 -36.5 11.5 q-23 0 -38 -11.5 q-15 -11.5 -15 -30.5 q0 -18 15 -29.5 q15 -11.5 38 -11.5 ZM137 315 q-65 0 -112 27 l0 89 q50 -32 108 -32 q32 0 53 13.5 q21 13.5 21 38.5 q0 23 -20 37 q-20 14 -55 14 q-47 0 -95 -15 l25 213 l216 0 l0 -80 l-144 0 l-5 -48 q10 2 26 2 q66 0 107 -33.5 q41 -33.5 41 -89.5 q0 -65 -48 -101 q-49 -35 -118 -35 ZM250 0 l-108 0 l422 700 l108 0 l-422 -700 Z" /><glyph glyph-name="seveneighths" unicode="&#x215e;" d="M195 0 l-108 0 l422 700 l108 0 l-422 -700 ZM609 -7 q-69 0 -114 31 q-45 31 -45 86 q0 29 20 55 q20 26 48 36 q-22 10 -36 31 q-14 21 -14 46 q0 47 40 77 q40 30 101 30 q60 0 100 -30 q40 -30 40 -77 q0 -24 -14.5 -45.5 q-14.5 -21.5 -35.5 -31.5 q30 -10 49 -35.5 q19 -25.5 19 -55.5 q0 -55 -45 -86 q-45 -31 -113 -31 ZM609 70 q27 0 44.5 14 q17.5 14 17.5 34 q0 22 -17.5 35.5 q-17.5 13.5 -44.5 13.5 q-28 0 -45.5 -13.5 q-17.5 -13.5 -17.5 -35.5 q0 -21 17.5 -34.5 q17.5 -13.5 45.5 -13.5 ZM609 227 q22 0 36.5 11.5 q14.5 11.5 14.5 29.5 q0 19 -14.5 30.5 q-14.5 11.5 -36.5 11.5 q-23 0 -38 -11.5 q-15 -11.5 -15 -30.5 q0 -18 15 -29.5 q15 -11.5 38 -11.5 ZM147 322 l-104 0 l151 298 l-173 0 l0 80 l282 0 l0 -75 l-156 -303 Z" /><glyph glyph-name="uni215F" unicode="&#x215f;" d="M214 322 l-96 0 l0 280 l-101 -51 l0 94 l105 55 l92 0 l0 -378 ZM207 0 l-108 0 l422 700 l108 0 l-422 -700 Z" /><glyph glyph-name="arrowleft" unicode="&#x2190;" d="M42 267 l190 221 l139 0 l-146 -166 l419 0 l0 -111 l-420 0 l147 -166 l-139 0 l-190 222 Z" /><glyph glyph-name="arrowup" unicode="&#x2191;" d="M284 602 l221 -190 l0 -139 l-166 146 l0 -419 l-111 0 l0 420 l-166 -147 l0 139 l222 190 Z" /><glyph glyph-name="arrowright" unicode="&#x2192;" d="M481 322 l-146 166 l139 0 l190 -221 l-190 -222 l-139 0 l147 166 l-420 0 l0 111 l419 0 Z" /><glyph glyph-name="arrowdown" unicode="&#x2193;" d="M283 -14 l-221 190 l0 139 l166 -146 l0 419 l111 0 l0 -420 l166 147 l0 -139 l-222 -190 Z" /><glyph glyph-name="partialdiff" unicode="&#x2202;" d="M269 -14 q-101 0 -168 62 q-65 62 -65 164 q0 105 66 177 q66 72 169 72 q112 0 170 -82 q0 89 -47 157 q-47 68 -136 68 q-74 0 -139 -39 l0 104 q65 43 156 43 q131 0 209 -96 q78 -94 78 -255 q0 -149 -66 -256 q-34 -55 -92.5 -87 q-58.5 -32 -134.5 -32 ZM281 92 q62 0 103 45 q41 45 50 123 q-17 45 -54.5 72.5 q-37.5 27.5 -82.5 27.5 q-57 0 -98 -39 q-41 -39 -41 -102 q0 -56 34 -91.5 q34 -35.5 89 -35.5 Z" /><glyph glyph-name="Delta" unicode="&#x2206;" d="M754 0 l-738 0 l300 700 l138 0 l300 -700 ZM384 521 l-166 -394 l332 0 l-166 394 Z" /><glyph glyph-name="product" unicode="&#x220f;" d="M281 -134 l-123 0 l0 724 l-121 0 l0 110 l701 0 l0 -110 l-122 0 l0 -724 l-123 0 l0 724 l-212 0 l0 -724 Z" /><glyph glyph-name="summation" unicode="&#x2211;" d="M584 0 l-541 0 l0 102 l225 248 l-218 248 l0 102 l527 0 l0 -129 l-325 0 l167 -191 l0 -59 l-175 -192 l340 0 l0 -129 Z" /><glyph glyph-name="minus" unicode="&#x2212;" d="M646 268 l-580 0 l0 126 l580 0 l0 -126 Z" /><glyph glyph-name="fraction" unicode="&#x2215;" d="M117 0 l-108 0 l422 700 l108 0 l-422 -700 Z" /><glyph glyph-name="periodcentered" unicode="&#x2219;" d="M124 178 q-37 0 -62 25.5 q-25 25.5 -25 62.5 q0 36 25 61 q25 25 62 25 q36 0 61.5 -25 q25.5 -25 25.5 -61 q0 -37 -25.5 -62.5 q-25.5 -25.5 -61.5 -25.5 Z" /><glyph glyph-name="radical" unicode="&#x221a;" d="M432 0 l-112 0 l-176 388 l-138 0 l0 111 l220 0 l150 -339 l214 540 l126 0 l-284 -700 Z" /><glyph glyph-name="infinity" unicode="&#x221e;" d="M221 112 q-72 0 -130 50 q-56 51 -56 141 q0 87 57 136 q58 51 130 51 q105 0 180 -105 q30 46 77 75.5 q47 29.5 104 29.5 q79 0 132 -54 q53 -55 53 -133 q0 -83 -53 -138 q-53 -53 -132 -53 q-51 0 -99 27.5 q-48 27.5 -83 76.5 q-77 -104 -180 -104 ZM233 213 q61 0 114 89 q-58 88 -115 88 q-37 0 -61 -26 q-24 -26 -24 -61 q0 -37 24 -63.5 q24 -26.5 62 -26.5 ZM572 213 q38 0 61 26.5 q23 26.5 23 63.5 q0 37 -23 61.5 q-23 24.5 -63 24.5 q-62 0 -114 -87 q50 -89 116 -89 Z" /><glyph glyph-name="integral" unicode="&#x222b;" d="M410 712 q60 0 98 -19 l0 -116 q-33 13 -68 13 q-95 0 -115 -116 l-76 -473 q-15 -95 -72 -151 q-57 -56 -153 -56 q-60 0 -98 19 l0 116 q33 -13 68 -13 q95 0 115 116 l76 473 q15 95 72 151 q57 56 153 56 Z" /><glyph glyph-name="approxequal" unicode="&#x2248;" d="M465 342 q-53 0 -138 27 q-84 28 -137 28 q-79 0 -124 -47 l0 127 q15 19 50 31.5 q35 12.5 74 12.5 q50 0 137 -29 q84 -28 138 -28 q79 0 125 48 l0 -127 q-16 -19 -50.5 -31 q-34.5 -12 -74.5 -12 ZM465 112 q-54 0 -139 28 q-84 28 -136 28 q-78 0 -124 -48 l0 127 q15 19 50 31.5 q35 12.5 74 12.5 q50 0 137 -29 q84 -28 138 -28 q79 0 125 48 l0 -127 q-16 -19 -50.5 -31 q-34.5 -12 -74.5 -12 Z" /><glyph glyph-name="notequal" unicode="&#x2260;" d="M285 381 l-219 0 l0 127 l286 0 l51 98 l126 0 l-51 -98 l97 0 l0 -127 l-164 0 l-51 -99 l215 0 l0 -128 l-282 0 l-55 -106 l-126 0 l55 106 l-101 0 l0 128 l168 0 l51 99 Z" /><glyph glyph-name="lessequal" unicode="&#x2264;" d="M575 316 l0 -140 l-509 186 l0 121 l509 186 l0 -140 l-359 -106 l359 -107 ZM574 18 l-508 0 l0 127 l508 0 l0 -127 Z" /><glyph glyph-name="greaterequal" unicode="&#x2265;" d="M575 483 l0 -121 l-509 -186 l0 140 l359 107 l-359 106 l0 140 l509 -186 ZM67 145 l508 0 l0 -127 l-508 0 l0 127 Z" /><glyph glyph-name="dotmath" unicode="&#x22c5;" d="M132 300 q-37 0 -62 25.5 q-25 25.5 -25 62.5 q0 36 25 61 q25 25 62 25 q36 0 61.5 -25 q25.5 -25 25.5 -61 q0 -37 -25.5 -62.5 q-25.5 -25.5 -61.5 -25.5 Z" /><glyph glyph-name="lozenge" unicode="&#x25ca;" d="M343 0 l-121 0 l-190 350 l190 350 l121 0 l191 -350 l-191 -350 ZM159 350 l125 -239 l124 239 l-124 239 l-125 -239 Z" /><glyph glyph-name="uniF401" unicode="&#xf401;" d="M-353 761 l-122 0 l95 146 l170 0 l-143 -146 Z" /><glyph glyph-name="uniF639" unicode="&#xf639;" d="M480 38 q-65 -52 -155 -52 q-87 0 -153 50.5 q-66 50.5 -99 134.5 q-32 84 -32 179 q0 210 129 312 q65 52 155 52 q87 0 153.5 -51 q66.5 -51 99.5 -135 q32 -82 32 -178 q0 -210 -130 -312 ZM325 118 q68 0 105 67 q37 67 37 165 q0 98 -37 165 q-37 67 -105 67 q-67 0 -104 -67 q-37 -67 -37 -165 q0 -98 37 -165 q37 -67 104 -67 Z" /><glyph glyph-name="uniF63A" unicode="&#xf63a;" d="M573 0 l-498 0 l0 105 l206 187 q71 65 97 104 q28 40 28 85 q0 45 -33 71.5 q-33 26.5 -87 26.5 q-98 0 -189 -80 l0 148 q85 67 204 67 q100 0 174 -59 q74 -59 74 -155 q0 -74 -33 -131 q-30 -54 -115 -133 l-120 -110 l292 0 l0 -126 Z" /><glyph glyph-name="uniF63B" unicode="&#xf63b;" d="M285 -14 q-124 0 -213 56 l0 137 q92 -64 205 -64 q64 0 105 31.5 q41 31.5 41 85.5 q0 51 -38 82.5 q-38 31.5 -101 31.5 q-51 0 -99 -19 l0 95 l167 154 l-258 0 l0 124 l442 0 l0 -108 l-158 -145 q75 -13 132 -69 q57 -55 57 -146 q0 -112 -81 -179 q-80 -67 -201 -67 Z" /><glyph glyph-name="uniF63C" unicode="&#xf63c;" d="M514 0 l-140 0 l0 175 l-351 0 l0 104 l349 421 l142 0 l0 -409 l103 0 l0 -116 l-103 0 l0 -175 ZM374 519 l-192 -228 l192 0 l0 228 Z" /><glyph glyph-name="uniF63D" unicode="&#xf63d;" d="M270 -14 q-111 0 -199 50 l0 135 q89 -56 193 -56 q68 0 111.5 31 q43.5 31 43.5 86 q0 52 -42.5 84 q-42.5 32 -113.5 32 q-83 0 -168 -30 l46 382 l374 0 l0 -124 l-268 0 l-15 -119 q31 7 67 7 q116 0 189 -64 q75 -64 75 -168 q0 -115 -85 -181 q-85 -65 -208 -65 Z" /><glyph glyph-name="uniF63E" unicode="&#xf63e;" d="M340 -14 q-132 0 -205.5 87 q-73.5 87 -73.5 241 q0 79 20 150 q20 71 58.5 127.5 q38.5 56.5 101 89.5 q62.5 33 141.5 33 q90 0 158 -45 l0 -130 q-66 45 -142 45 q-86 0 -136 -54 q-49 -53 -55 -136 q56 65 163 65 q95 0 160 -62 q64 -61 64 -164 q0 -109 -73 -178 q-72 -69 -181 -69 ZM331 110 q53 0 86.5 33.5 q33.5 33.5 33.5 86.5 q0 51 -34 84 q-34 33 -86 33 q-41 0 -77 -25 q-36 -25 -51 -63 q3 -71 37 -110 q34 -39 91 -39 Z" /><glyph glyph-name="uniF63F" unicode="&#xf63f;" d="M277 0 l-153 0 l286 571 l-331 0 l0 129 l494 0 l0 -111 l-296 -589 Z" /><glyph glyph-name="uniF640" unicode="&#xf640;" d="M474 373 q59 -21 94.5 -68 q35.5 -47 35.5 -106 q0 -99 -81 -156 q-79 -57 -198 -57 q-118 0 -199 57 q-81 57 -81 156 q0 59 35.5 106 q35.5 47 94.5 68 q-46 21 -72 60 q-26 39 -26 87 q0 86 70 140 q71 54 178 54 q105 0 176 -54 q71 -54 71 -140 q0 -48 -26 -87 q-26 -39 -72 -60 ZM216 506 q0 -38 31.5 -62.5 q31.5 -24.5 77.5 -24.5 q46 0 77 24.5 q31 24.5 31 62.5 q0 39 -31 63.5 q-31 24.5 -77 24.5 q-46 0 -77.5 -24.5 q-31.5 -24.5 -31.5 -63.5 ZM455 208 q0 44 -37 73 q-37 29 -93 29 q-56 0 -93.5 -29 q-37.5 -29 -37.5 -73 q0 -43 37.5 -72 q37.5 -29 93.5 -29 q56 0 93 29 q37 29 37 72 Z" /><glyph glyph-name="uniF641" unicode="&#xf641;" d="M310 714 q132 0 205.5 -87 q73.5 -87 73.5 -241 q0 -79 -20 -150 q-20 -71 -58.5 -127.5 q-38.5 -56.5 -101 -89.5 q-62.5 -33 -141.5 -33 q-90 0 -158 45 l0 130 q66 -45 142 -45 q86 0 135 54 q50 55 56 136 q-56 -65 -163 -65 q-96 0 -160 61 q-64 61 -64 165 q0 109 72 178 q73 69 182 69 ZM319 590 q-53 0 -86.5 -33.5 q-33.5 -33.5 -33.5 -86.5 q0 -51 34 -84 q34 -33 86 -33 q41 0 77 25 q36 25 51 64 q-3 71 -37 109.5 q-34 38.5 -91 38.5 Z" /><glyph glyph-name="uniF643" unicode="&#xf643;" d="M188 250 q0 -60 39 -100 q39 -40 99 -40 q60 0 99 40 q39 41 39 100 q0 60 -39 99 q-39 40 -99 40 q-60 0 -99 -40 q-39 -39 -39 -99 ZM49 250 q0 111 78 186 q77 76 199 76 q122 0 199 -76 q78 -76 78 -186 q0 -112 -78 -188 q-78 -75 -199 -75 q-121 0 -199 75 q-78 76 -78 188 Z" /><glyph glyph-name="uniF644" unicode="&#xf644;" d="M593 0 l-486 0 l0 124 l179 0 l0 221 l-148 -75 l0 141 l164 88 l125 0 l0 -375 l166 0 l0 -124 Z" /><glyph glyph-name="uniF645" unicode="&#xf645;" d="M564 0 l-478 0 l0 106 q140 71 211 113 l51 32 q49 35 49 71 q0 60 -90 60 q-96 0 -202 -73 l0 136 q97 67 215 67 q98 0 159 -46 q62 -47 62 -126 q0 -116 -153 -186 l-65 -30 l241 0 l0 -124 Z" /><glyph glyph-name="uniF646" unicode="&#xf646;" d="M284 -206 q-124 0 -213 56 l0 137 q92 -64 205 -64 q64 0 105 31 q41 31 41 84 q0 50 -37.5 80.5 q-37.5 30.5 -101.5 30.5 q-51 0 -99 -19 l0 95 l167 150 l-258 0 l0 124 l442 0 l0 -108 l-158 -141 q74 -13 132 -68 q57 -52 57 -144 q0 -111 -81 -177 q-80 -67 -201 -67 Z" /><glyph glyph-name="uniF647" unicode="&#xf647;" d="M514 -200 l-143 0 l0 200 l-348 0 l0 105 l349 394 l142 0 l0 -382 l103 0 l0 -117 l-103 0 l0 -200 ZM371 329 l-188 -212 l188 0 l0 212 Z" /><glyph glyph-name="uniF648" unicode="&#xf648;" d="M284 -206 q-111 0 -199 50 l0 135 q89 -56 193 -56 q68 0 111.5 31 q43.5 31 43.5 86 q0 52 -42 83 q-42 31 -114 31 q-81 0 -168 -31 l45 376 l374 0 l0 -124 l-269 0 l-13 -113 q32 8 66 8 q116 0 190 -63 q75 -63 75 -167 q0 -116 -85 -180 q-84 -66 -208 -66 Z" /><glyph glyph-name="uniF649" unicode="&#xf649;" d="M340 -14 q-132 0 -205.5 87 q-73.5 87 -73.5 241 q0 79 20 150 q20 71 58.5 127.5 q38.5 56.5 101 89.5 q62.5 33 141.5 33 q90 0 158 -45 l0 -130 q-66 45 -142 45 q-86 0 -136 -54 q-49 -53 -55 -136 q56 65 163 65 q95 0 160 -62 q64 -61 64 -164 q0 -109 -73 -178 q-72 -69 -181 -69 ZM331 110 q53 0 86.5 33.5 q33.5 33.5 33.5 86.5 q0 51 -34 84 q-34 33 -86 33 q-41 0 -77 -25 q-36 -25 -51 -63 q3 -71 37 -110 q34 -39 91 -39 Z" /><glyph glyph-name="uniF64A" unicode="&#xf64a;" d="M279 -200 l-152 0 l284 571 l-332 0 l0 128 l494 0 l0 -111 l-294 -588 Z" /><glyph glyph-name="uniF64B" unicode="&#xf64b;" d="M474 373 q59 -21 94.5 -68 q35.5 -47 35.5 -106 q0 -99 -81 -156 q-79 -57 -198 -57 q-118 0 -199 57 q-81 57 -81 156 q0 59 35.5 106 q35.5 47 94.5 68 q-46 21 -72 60 q-26 39 -26 87 q0 86 70 140 q71 54 178 54 q105 0 176 -54 q71 -54 71 -140 q0 -48 -26 -87 q-26 -39 -72 -60 ZM216 506 q0 -38 31.5 -62.5 q31.5 -24.5 77.5 -24.5 q46 0 77 24.5 q31 24.5 31 62.5 q0 39 -31 63.5 q-31 24.5 -77 24.5 q-46 0 -77.5 -24.5 q-31.5 -24.5 -31.5 -63.5 ZM455 208 q0 44 -37 73 q-37 29 -93 29 q-56 0 -93.5 -29 q-37.5 -29 -37.5 -73 q0 -43 37.5 -72 q37.5 -29 93.5 -29 q56 0 93 29 q37 29 37 72 Z" /><glyph glyph-name="uniF64C" unicode="&#xf64c;" d="M316 512 q132 0 205.5 -87 q73.5 -87 73.5 -241 q0 -109 -34 -193 q-35 -90 -110 -143.5 q-75 -53.5 -177 -53.5 q-90 0 -158 45 l0 130 q66 -45 142 -45 q86 0 136 48.5 q50 48.5 55 131.5 q-56 -65 -163 -65 q-96 0 -160 61 q-64 61 -64 165 q0 109 72 178 q73 69 182 69 ZM325 388 q-53 0 -86.5 -33.5 q-33.5 -33.5 -33.5 -86.5 q0 -51 34 -84 q34 -33 86 -33 q41 0 77 25 q36 25 51 64 q-3 71 -37 109.5 q-34 38.5 -91 38.5 Z" /><glyph glyph-name="uniF64E" unicode="&#xf64e;" d="M82 275 l-66 0 l0 61 l78 0 q25 82 98 129 q73 47 161 47 q82 0 148 -33 l0 -111 q-63 29 -125 29 q-99 0 -136 -61 l160 0 l0 -61 l-181 0 q-2 -22 -2 -25 q0 -6 2 -24 l181 0 l0 -61 l-161 0 q37 -63 137 -63 q75 0 133 34 l0 -111 q-71 -38 -157 -38 q-87 0 -160 47 q-72 48 -98 131 l-78 0 l0 61 l66 0 q-1 5 -1 25 q0 3 0.5 12.5 q0.5 9.5 0.5 11.5 Z" /><glyph glyph-name="uniF653" unicode="&#xf653;" d="M317 -8 l0 -91 l-125 0 l0 89 q-96 10 -149 44 l0 125 q36 -24 91.5 -40.5 q55.5 -16.5 112.5 -16.5 q86 0 86 42 q0 20 -25 31 q-13 6 -26 9 l-37 9 q-8 2 -21.5 5.5 q-13.5 3.5 -18.5 5.5 q-89 24 -125.5 57.5 q-36.5 33.5 -36.5 97.5 q0 58 39 96 q39 38 110 51 l0 92 l125 0 l0 -90 q79 -10 133 -42 l0 -120 q-89 52 -181 52 q-80 0 -80 -40 q0 -8 4.5 -14.5 q4.5 -6.5 9 -9.5 q4.5 -3 14.5 -9 q6 -2 22 -6.5 q16 -4.5 21 -6.5 l53 -11 q83 -19 123 -56.5 q40 -37.5 40 -101.5 q0 -58 -42.5 -98 q-42.5 -40 -116.5 -53 Z" /><glyph glyph-name="commaaccent" unicode="&#xf6c3;" d="M137 -270 l-105 0 l59 204 l130 0 l-84 -204 Z" /><glyph glyph-name="cyrbreve" unicode="&#xf6d4;" d="M240 554 q-80 0 -130 46.5 q-50 46.5 -51 124.5 l106 0 q0 -33 20 -53 q20 -20 54 -20 q33 0 53 20 q20 20 21 53 l107 0 q-1 -79 -52 -125 q-50 -46 -128 -46 Z" /><glyph glyph-name="uniF6DC" unicode="&#xf6dc;" d="M581 0 l-492 0 l0 126 l181 0 l0 420 l-148 -75 l0 141 l164 88 l125 0 l0 -574 l170 0 l0 -126 Z" /><glyph glyph-name="uniF721" unicode="&#xf721;" d="M449 332 l50 0 l0 -60 l-444 0 l0 60 l248 0 q35 12 35 34 q0 38 -90 38 q-76 0 -150 -27 l0 106 q74 30 164 30 q78 0 138 -26 q34 -13 53.5 -39.5 q19.5 -26.5 19.5 -61.5 q0 -34 -24 -54 ZM110 173 l-55 0 l0 60 l444 0 l0 -60 l-241 0 q-38 -11 -38 -38 q0 -39 97 -39 q80 0 152 28 l0 -108 q-72 -29 -166 -29 q-52 0 -98 10 q-46 10 -83.5 40 q-37.5 30 -37.5 77 q0 38 26 59 Z" /><glyph glyph-name="uniF722" unicode="&#xf722;" d="M250 0 l-137 0 l0 58 l-86 0 l0 61 l86 0 l0 39 l-86 0 l0 86 l86 0 l0 255 l259 0 q92 0 144.5 -47.5 q52.5 -47.5 52.5 -123.5 q0 -78 -55.5 -124 q-55.5 -46 -148.5 -46 l-115 0 l0 -39 l165 0 l0 -61 l-165 0 l0 -58 ZM345 395 l-95 0 l0 -151 l95 0 q44 0 69 20 q25 20 25 55 q0 36 -25 56 q-25 20 -69 20 Z" /><glyph glyph-name="uniF725" unicode="&#xf725;" d="M130 197 l-73 0 l0 86 l73 0 l0 44 q0 85 59.5 135 q59.5 50 163.5 50 q83 0 141 -26 l0 -113 q-64 24 -121 24 q-51 0 -79.5 -24 q-28.5 -24 -28.5 -66 l0 -24 l187 0 l0 -86 l-187 0 l0 -30 q0 -42 -25 -60 l269 0 l0 -107 l-452 0 l0 107 l26 0 q47 0 47 57 l0 33 Z" /><glyph glyph-name="uniF727" unicode="&#xf727;" d="M231 204 l-146 0 l0 61 l116 0 l-175 234 l151 0 l124 -177 l125 177 l148 0 l-179 -234 l120 0 l0 -61 l-147 0 l0 -45 l147 0 l0 -61 l-147 0 l0 -98 l-137 0 l0 98 l-146 0 l0 61 l146 0 l0 45 Z" /><glyph glyph-name="uniF730" unicode="&#xf730;" d="M175 250 q0 -60 39 -100 q39 -40 99 -40 q60 0 99 40 q39 41 39 100 q0 60 -39 99 q-39 40 -99 40 q-60 0 -99 -40 q-39 -39 -39 -99 ZM36 250 q0 111 78 186 q77 76 199 76 q122 0 199 -76 q78 -76 78 -186 q0 -112 -78 -188 q-78 -75 -199 -75 q-121 0 -199 75 q-78 76 -78 188 Z" /><glyph glyph-name="uniF731" unicode="&#xf731;" d="M317 0 l-141 0 l0 345 l-148 -75 l0 141 l164 88 l125 0 l0 -499 Z" /><glyph glyph-name="uniF732" unicode="&#xf732;" d="M522 0 l-478 0 l0 106 q140 71 211 113 l51 32 q49 35 49 71 q0 60 -90 60 q-96 0 -202 -73 l0 136 q97 67 215 67 q98 0 159 -46 q62 -47 62 -126 q0 -116 -153 -186 l-65 -30 l241 0 l0 -124 Z" /><glyph glyph-name="uniF733" unicode="&#xf733;" d="M239 -206 q-124 0 -213 56 l0 137 q92 -64 205 -64 q64 0 105 31 q41 31 41 84 q0 50 -37.5 80.5 q-37.5 30.5 -101.5 30.5 q-51 0 -99 -19 l0 95 l167 150 l-258 0 l0 124 l442 0 l0 -108 l-158 -141 q74 -13 132 -68 q57 -52 57 -144 q0 -111 -81 -177 q-80 -67 -201 -67 Z" /><glyph glyph-name="uniF734" unicode="&#xf734;" d="M514 -200 l-143 0 l0 200 l-348 0 l0 105 l349 394 l142 0 l0 -382 l103 0 l0 -117 l-103 0 l0 -200 ZM371 329 l-188 -212 l188 0 l0 212 Z" /><glyph glyph-name="uniF735" unicode="&#xf735;" d="M238 -206 q-111 0 -199 50 l0 135 q89 -56 193 -56 q68 0 111.5 31 q43.5 31 43.5 86 q0 52 -42 83 q-42 31 -114 31 q-81 0 -168 -31 l45 376 l374 0 l0 -124 l-269 0 l-13 -113 q32 8 66 8 q116 0 190 -63 q75 -63 75 -167 q0 -116 -85 -180 q-84 -66 -208 -66 Z" /><glyph glyph-name="uniF736" unicode="&#xf736;" d="M334 -14 q-132 0 -205.5 87 q-73.5 87 -73.5 241 q0 79 20 150 q20 71 58.5 127.5 q38.5 56.5 101 89.5 q62.5 33 141.5 33 q90 0 158 -45 l0 -130 q-66 45 -142 45 q-86 0 -136 -54 q-49 -53 -55 -136 q56 65 163 65 q95 0 160 -62 q64 -61 64 -164 q0 -109 -73 -178 q-72 -69 -181 -69 ZM325 110 q53 0 86.5 33.5 q33.5 33.5 33.5 86.5 q0 51 -34 84 q-34 33 -86 33 q-41 0 -77 -25 q-36 -25 -51 -63 q3 -71 37 -110 q34 -39 91 -39 Z" /><glyph glyph-name="uniF737" unicode="&#xf737;" d="M234 -200 l-152 0 l284 571 l-332 0 l0 128 l494 0 l0 -111 l-294 -588 Z" /><glyph glyph-name="uniF738" unicode="&#xf738;" d="M468 373 q59 -21 94.5 -68 q35.5 -47 35.5 -106 q0 -99 -81 -156 q-79 -57 -198 -57 q-118 0 -199 57 q-81 57 -81 156 q0 59 35.5 106 q35.5 47 94.5 68 q-46 21 -72 60 q-26 39 -26 87 q0 86 70 140 q71 54 178 54 q105 0 176 -54 q71 -54 71 -140 q0 -48 -26 -87 q-26 -39 -72 -60 ZM210 506 q0 -38 31.5 -62.5 q31.5 -24.5 77.5 -24.5 q46 0 77 24.5 q31 24.5 31 62.5 q0 39 -31 63.5 q-31 24.5 -77 24.5 q-46 0 -77.5 -24.5 q-31.5 -24.5 -31.5 -63.5 ZM449 208 q0 44 -37 73 q-37 29 -93 29 q-56 0 -93.5 -29 q-37.5 -29 -37.5 -73 q0 -43 37.5 -72 q37.5 -29 93.5 -29 q56 0 93 29 q37 29 37 72 Z" /><glyph glyph-name="uniF739" unicode="&#xf739;" d="M309 512 q132 0 205.5 -87 q73.5 -87 73.5 -241 q0 -109 -34 -193 q-35 -90 -110 -143.5 q-75 -53.5 -177 -53.5 q-91 0 -158 45 l0 130 q66 -45 142 -45 q85 0 135.5 48.5 q50.5 48.5 55.5 131.5 q-56 -65 -163 -65 q-96 0 -160 61 q-64 61 -64 165 q0 109 72 178 q73 69 182 69 ZM318 388 q-53 0 -86.5 -33.5 q-33.5 -33.5 -33.5 -86.5 q0 -51 34 -84 q34 -33 86 -33 q41 0 77 25 q36 25 51 64 q-3 71 -37 109.5 q-34 38.5 -91 38.5 Z" /><glyph glyph-name="f_f" unicode="&#xfb00;" d="M248 381 l0 -381 l-141 0 l0 381 l-89 0 l0 118 l89 0 l0 47 q0 76 44 121 q44 45 125 45 q73 0 127 -21 l0 -114 q-45 17 -86 17 q-69 0 -69 -67 l0 -28 l219 0 l0 47 q0 76 44 121 q44 45 125 45 q73 0 127 -21 l0 -114 q-45 17 -86 17 q-69 0 -69 -67 l0 -28 l155 0 l0 -118 l-155 0 l0 -381 l-141 0 l0 381 l-219 0 Z" /><glyph glyph-name="fi" unicode="&#xfb01;" d="M608 0 l-141 0 l0 381 l-219 0 l0 -381 l-141 0 l0 381 l-89 0 l0 118 l89 0 l0 47 q0 76 44 121 q44 45 125 45 q73 0 127 -21 l0 -114 q-45 17 -86 17 q-69 0 -69 -67 l0 -28 l360 0 l0 -499 ZM453 631 q0 36 24.5 60.5 q24.5 24.5 59.5 24.5 q35 0 59.5 -24.5 q24.5 -24.5 24.5 -60.5 q0 -35 -24.5 -59.5 q-24.5 -24.5 -59.5 -24.5 q-35 0 -59.5 24.5 q-24.5 24.5 -24.5 59.5 Z" /><glyph glyph-name="fl" unicode="&#xfb02;" d="M600 -13 q-62 0 -97.5 33.5 q-35.5 33.5 -35.5 104.5 l0 256 l-219 0 l0 -381 l-141 0 l0 381 l-89 0 l0 118 l89 0 l0 47 q0 76 44 121 q44 45 125 45 q73 0 127 -21 l0 -114 q-45 17 -86 17 q-69 0 -69 -67 l0 -28 l219 0 l0 201 l141 0 l0 -538 q0 -50 45 -50 q21 0 36 9 l0 -116 q-36 -18 -89 -18 Z" /><glyph glyph-name="f_f_i" unicode="&#xfb03;" d="M608 381 l0 -381 l-141 0 l0 381 l-219 0 l0 -381 l-141 0 l0 381 l-89 0 l0 118 l89 0 l0 47 q0 76 44 121 q44 45 125 45 q73 0 127 -21 l0 -114 q-45 17 -86 17 q-69 0 -69 -67 l0 -28 l219 0 l0 47 q0 76 44 121 q44 45 125 45 q73 0 127 -21 l0 -114 q-45 17 -86 17 q-69 0 -69 -67 l0 -28 l360 0 l0 -499 l-141 0 l0 381 l-219 0 ZM813 631 q0 36 24.5 60.5 q24.5 24.5 59.5 24.5 q35 0 59.5 -24.5 q24.5 -24.5 24.5 -60.5 q0 -35 -24.5 -59.5 q-24.5 -24.5 -59.5 -24.5 q-35 0 -59.5 24.5 q-24.5 24.5 -24.5 59.5 Z" /><glyph glyph-name="f_f_l" unicode="&#xfb04;" d="M608 381 l0 -381 l-141 0 l0 381 l-219 0 l0 -381 l-141 0 l0 381 l-89 0 l0 118 l89 0 l0 47 q0 76 44 121 q44 45 125 45 q73 0 127 -21 l0 -114 q-45 17 -86 17 q-69 0 -69 -67 l0 -28 l219 0 l0 47 q0 76 44 121 q44 45 125 45 q73 0 127 -21 l0 -114 q-45 17 -86 17 q-69 0 -69 -67 l0 -28 l219 0 l0 201 l141 0 l0 -538 q0 -50 45 -50 q21 0 36 9 l0 -116 q-36 -18 -89 -18 q-62 0 -97.5 33.5 q-35.5 33.5 -35.5 104.5 l0 256 l-219 0 Z" /></font>
</defs>
</svg>
