<svg xmlns="http://www.w3.org/2000/svg" viewBox="0 0 16 16">
  <path d="M4.5 2C3.675781 2 3 2.675781 3 3.5L3 12.5C3 13.324219 3.675781 14 4.5 14L11.5 14C12.324219 14 13 13.324219 13 12.5L13 3.5C13 2.675781 12.324219 2 11.5 2 Z M 4.5 3L11.5 3C11.78125 3 12 3.21875 12 3.5L12 12.5C12 12.78125 11.78125 13 11.5 13L4.5 13C4.21875 13 4 12.78125 4 12.5L4 3.5C4 3.21875 4.21875 3 4.5 3 Z M 5 4L5 5L11 5L11 4 Z M 5 7L5 8L6 8L6 7 Z M 7 7L7 8L8 8L8 7 Z M 9 7L9 8L11 8L11 7 Z M 5 9L5 10L6 10L6 9 Z M 7 9L7 10L8 10L8 9 Z M 9 9L9 10L11 10L11 9 Z M 5 11L5 12L6 12L6 11 Z M 7 11L7 12L8 12L8 11 Z M 9 11L9 12L11 12L11 11Z"  />
</svg>