<svg xmlns="http://www.w3.org/2000/svg" viewBox="0 0 50 50">
  <path d="M44.78125 13.15625C44 10.367188 42.453125 8.164063 40.1875 6.605469C37.328125 4.632813 34.039063 3.9375 31.199219 3.511719C27.269531 2.925781 23.710938 2.84375 20.316406 3.257813C17.136719 3.648438 14.742188 4.269531 12.558594 5.273438C8.277344 7.242188 5.707031 10.425781 4.921875 14.734375C4.539063 16.828125 4.28125 18.71875 4.132813 20.523438C3.789063 24.695313 4.101563 28.386719 5.085938 31.808594C6.046875 35.144531 7.722656 37.527344 10.210938 39.09375C10.84375 39.492188 11.65625 39.78125 12.441406 40.058594C12.886719 40.214844 13.320313 40.367188 13.675781 40.535156C14.003906 40.6875 14.003906 40.714844 14 40.988281C13.972656 43.359375 14 48.007813 14 48.007813L14.007813 49L15.789063 49L16.078125 48.71875C16.269531 48.539063 20.683594 44.273438 22.257813 42.554688L22.472656 42.316406C22.742188 42.003906 22.742188 42.003906 23.019531 42C25.144531 41.957031 27.316406 41.875 29.472656 41.757813C32.085938 41.617188 35.113281 41.363281 37.964844 40.175781C40.574219 39.085938 42.480469 37.355469 43.625 35.035156C44.820313 32.613281 45.527344 29.992188 45.792969 27.019531C46.261719 21.792969 45.929688 17.257813 44.78125 13.15625 Z M 35.382813 33.480469C34.726563 34.546875 33.75 35.289063 32.597656 35.769531C31.753906 36.121094 30.894531 36.046875 30.0625 35.695313C23.097656 32.746094 17.632813 28.101563 14.023438 21.421875C13.277344 20.046875 12.761719 18.546875 12.167969 17.09375C12.046875 16.796875 12.054688 16.445313 12 16.117188C12.050781 13.769531 13.851563 12.445313 15.671875 12.046875C16.367188 11.890625 16.984375 12.136719 17.5 12.632813C18.929688 13.992188 20.058594 15.574219 20.910156 17.347656C21.28125 18.125 21.113281 18.8125 20.480469 19.390625C20.347656 19.511719 20.210938 19.621094 20.066406 19.730469C18.621094 20.816406 18.410156 21.640625 19.179688 23.277344C20.492188 26.0625 22.671875 27.933594 25.488281 29.09375C26.230469 29.398438 26.929688 29.246094 27.496094 28.644531C27.574219 28.566406 27.660156 28.488281 27.714844 28.394531C28.824219 26.542969 30.4375 26.726563 31.925781 27.78125C32.902344 28.476563 33.851563 29.210938 34.816406 29.917969C36.289063 31 36.277344 32.015625 35.382813 33.480469 Z M 26.144531 15C25.816406 15 25.488281 15.027344 25.164063 15.082031C24.617188 15.171875 24.105469 14.804688 24.011719 14.257813C23.921875 13.714844 24.289063 13.199219 24.835938 13.109375C25.265625 13.035156 25.707031 13 26.144531 13C30.476563 13 34 16.523438 34 20.855469C34 21.296875 33.964844 21.738281 33.890625 22.164063C33.808594 22.652344 33.386719 23 32.90625 23C32.851563 23 32.796875 22.996094 32.738281 22.984375C32.195313 22.894531 31.828125 22.378906 31.917969 21.835938C31.972656 21.515625 32 21.1875 32 20.855469C32 17.628906 29.371094 15 26.144531 15 Z M 31 21C31 21.550781 30.550781 22 30 22C29.449219 22 29 21.550781 29 21C29 19.347656 27.652344 18 26 18C25.449219 18 25 17.550781 25 17C25 16.449219 25.449219 16 26 16C28.757813 16 31 18.242188 31 21 Z M 36.710938 23.222656C36.605469 23.6875 36.191406 24 35.734375 24C35.660156 24 35.585938 23.992188 35.511719 23.976563C34.972656 23.851563 34.636719 23.316406 34.757813 22.777344C34.902344 22.140625 34.976563 21.480469 34.976563 20.816406C34.976563 15.957031 31.019531 12 26.160156 12C25.496094 12 24.835938 12.074219 24.199219 12.21875C23.660156 12.34375 23.125 12.003906 23.003906 11.464844C22.878906 10.925781 23.21875 10.390625 23.757813 10.269531C24.539063 10.089844 25.347656 10 26.160156 10C32.125 10 36.976563 14.851563 36.976563 20.816406C36.976563 21.628906 36.886719 22.4375 36.710938 23.222656Z"  />
</svg>